  0
SECTION
  2
HEADER
  9
$ACADVER
  1
AC1027
  9
$ACADMAINTVER
 70
   105
  9
$DWGCODEPAGE
  3
ANSI_1252
  9
$LASTSAVEDBY
  1
chuck
  9
$REQUIREDVERSIONS
160
                 0
  9
$INSBASE
 10
0.0
 20
0.0
 30
0.0
  9
$EXTMIN
 10
-108.75
 20
-108.75
 30
0.0
  9
$EXTMAX
 10
108.75
 20
108.75
 30
0.0
  9
$LIMMIN
 10
0.0
 20
0.0
  9
$LIMMAX
 10
12.0
 20
9.0
  9
$ORTHOMODE
 70
     0
  9
$REGENMODE
 70
     1
  9
$FILLMODE
 70
     1
  9
$QTEXTMODE
 70
     0
  9
$MIRRTEXT
 70
     0
  9
$LTSCALE
 40
1.0
  9
$ATTMODE
 70
     1
  9
$TEXTSIZE
 40
0.2
  9
$TRACEWID
 40
0.05
  9
$TEXTSTYLE
  7
Standard
  9
$CLAYER
  8
0
  9
$CELTYPE
  6
ByLayer
  9
$CECOLOR
 62
   256
  9
$CELTSCALE
 40
1.0
  9
$DISPSILH
 70
     0
  9
$DIMSCALE
 40
1.0
  9
$DIMASZ
 40
1.0
  9
$DIMEXO
 40
0.25
  9
$DIMDLI
 40
2.0
  9
$DIMRND
 40
0.0
  9
$DIMDLE
 40
0.0
  9
$DIMEXE
 40
0.5
  9
$DIMTP
 40
0.0
  9
$DIMTM
 40
0.0
  9
$DIMTXT
 40
1.0
  9
$DIMCEN
 40
0.09
  9
$DIMTSZ
 40
0.0
  9
$DIMTOL
 70
     0
  9
$DIMLIM
 70
     0
  9
$DIMTIH
 70
     1
  9
$DIMTOH
 70
     1
  9
$DIMSE1
 70
     0
  9
$DIMSE2
 70
     0
  9
$DIMTAD
 70
     0
  9
$DIMZIN
 70
     8
  9
$DIMBLK
  1

  9
$DIMASO
 70
     1
  9
$DIMSHO
 70
     1
  9
$DIMPOST
  1

  9
$DIMAPOST
  1

  9
$DIMALT
 70
     0
  9
$DIMALTD
 70
     2
  9
$DIMALTF
 40
25.4
  9
$DIMLFAC
 40
1.0
  9
$DIMTOFL
 70
     0
  9
$DIMTVP
 40
0.0
  9
$DIMTIX
 70
     0
  9
$DIMSOXD
 70
     0
  9
$DIMSAH
 70
     0
  9
$DIMBLK1
  1

  9
$DIMBLK2
  1

  9
$DIMSTYLE
  2
Standard
  9
$DIMCLRD
 70
     0
  9
$DIMCLRE
 70
     0
  9
$DIMCLRT
 70
   256
  9
$DIMTFAC
 40
1.0
  9
$DIMGAP
 40
0.25
  9
$DIMJUST
 70
     0
  9
$DIMSD1
 70
     0
  9
$DIMSD2
 70
     0
  9
$DIMTOLJ
 70
     1
  9
$DIMTZIN
 70
     0
  9
$DIMALTZ
 70
     0
  9
$DIMALTTZ
 70
     0
  9
$DIMUPT
 70
     0
  9
$DIMDEC
 70
     4
  9
$DIMTDEC
 70
     4
  9
$DIMALTU
 70
     2
  9
$DIMALTTD
 70
     2
  9
$DIMTXSTY
  7
Standard
  9
$DIMAUNIT
 70
     0
  9
$DIMADEC
 70
     0
  9
$DIMALTRND
 40
0.0
  9
$DIMAZIN
 70
     2
  9
$DIMDSEP
 70
    46
  9
$DIMATFIT
 70
     3
  9
$DIMFRAC
 70
     0
  9
$DIMLDRBLK
  1

  9
$DIMLUNIT
 70
     2
  9
$DIMLWD
 70
    -2
  9
$DIMLWE
 70
    -2
  9
$DIMTMOVE
 70
     0
  9
$DIMFXL
 40
1.0
  9
$DIMFXLON
 70
     0
  9
$DIMJOGANG
 40
0.7853981633974483
  9
$DIMTFILL
 70
     0
  9
$DIMTFILLCLR
 70
     0
  9
$DIMARCSYM
 70
     0
  9
$DIMLTYPE
  6

  9
$DIMLTEX1
  6

  9
$DIMLTEX2
  6

  9
$DIMTXTDIRECTION
 70
     0
  9
$LUNITS
 70
     2
  9
$LUPREC
 70
     4
  9
$SKETCHINC
 40
0.1
  9
$FILLETRAD
 40
0.5
  9
$AUNITS
 70
     0
  9
$AUPREC
 70
     0
  9
$MENU
  1
.
  9
$ELEVATION
 40
0.0
  9
$PELEVATION
 40
0.0
  9
$THICKNESS
 40
0.0
  9
$LIMCHECK
 70
     0
  9
$CHAMFERA
 40
0.0
  9
$CHAMFERB
 40
0.0
  9
$CHAMFERC
 40
0.0
  9
$CHAMFERD
 40
0.0
  9
$SKPOLY
 70
     0
  9
$TDCREATE
 40
2459232.862078079
  9
$TDUCREATE
 40
2459233.112078079
  9
$TDUPDATE
 40
2459232.862078183
  9
$TDUUPDATE
 40
2459233.112078183
  9
$TDINDWG
 40
0.0000000116
  9
$TDUSRTIMER
 40
0.0000000116
  9
$USRTIMER
 70
     1
  9
$ANGBASE
 50
0.0
  9
$ANGDIR
 70
     0
  9
$PDMODE
 70
     0
  9
$PDSIZE
 40
10.0
  9
$PLINEWID
 40
0.0
  9
$SPLFRAME
 70
     0
  9
$SPLINETYPE
 70
     6
  9
$SPLINESEGS
 70
     8
  9
$HANDSEED
  5
1099
  9
$SURFTAB1
 70
     6
  9
$SURFTAB2
 70
     6
  9
$SURFTYPE
 70
     6
  9
$SURFU
 70
     6
  9
$SURFV
 70
     6
  9
$UCSBASE
  2

  9
$UCSNAME
  2

  9
$UCSORG
 10
0.0
 20
0.0
 30
0.0
  9
$UCSXDIR
 10
1.0
 20
0.0
 30
0.0
  9
$UCSYDIR
 10
0.0
 20
1.0
 30
0.0
  9
$UCSORTHOREF
  2

  9
$UCSORTHOVIEW
 70
     0
  9
$UCSORGTOP
 10
0.0
 20
0.0
 30
0.0
  9
$UCSORGBOTTOM
 10
0.0
 20
0.0
 30
0.0
  9
$UCSORGLEFT
 10
0.0
 20
0.0
 30
0.0
  9
$UCSORGRIGHT
 10
0.0
 20
0.0
 30
0.0
  9
$UCSORGFRONT
 10
0.0
 20
0.0
 30
0.0
  9
$UCSORGBACK
 10
0.0
 20
0.0
 30
0.0
  9
$PUCSBASE
  2

  9
$PUCSNAME
  2

  9
$PUCSORG
 10
0.0
 20
0.0
 30
0.0
  9
$PUCSXDIR
 10
1.0
 20
0.0
 30
0.0
  9
$PUCSYDIR
 10
0.0
 20
1.0
 30
0.0
  9
$PUCSORTHOREF
  2

  9
$PUCSORTHOVIEW
 70
     0
  9
$PUCSORGTOP
 10
0.0
 20
0.0
 30
0.0
  9
$PUCSORGBOTTOM
 10
0.0
 20
0.0
 30
0.0
  9
$PUCSORGLEFT
 10
0.0
 20
0.0
 30
0.0
  9
$PUCSORGRIGHT
 10
0.0
 20
0.0
 30
0.0
  9
$PUCSORGFRONT
 10
0.0
 20
0.0
 30
0.0
  9
$PUCSORGBACK
 10
0.0
 20
0.0
 30
0.0
  9
$USERI1
 70
     0
  9
$USERI2
 70
     0
  9
$USERI3
 70
     0
  9
$USERI4
 70
     0
  9
$USERI5
 70
     0
  9
$USERR1
 40
0.0
  9
$USERR2
 40
0.0
  9
$USERR3
 40
0.0
  9
$USERR4
 40
0.0
  9
$USERR5
 40
0.0
  9
$WORLDVIEW
 70
     1
  9
$SHADEDGE
 70
     3
  9
$SHADEDIF
 70
    70
  9
$TILEMODE
 70
     1
  9
$MAXACTVP
 70
    64
  9
$PINSBASE
 10
0.0
 20
0.0
 30
0.0
  9
$PLIMCHECK
 70
     0
  9
$PEXTMIN
 10
0.0
 20
0.0
 30
0.0
  9
$PEXTMAX
 10
0.0
 20
0.0
 30
0.0
  9
$PLIMMIN
 10
-20.0
 20
-7.5
  9
$PLIMMAX
 10
277.0
 20
202.5
  9
$UNITMODE
 70
     0
  9
$VISRETAIN
 70
     1
  9
$PLINEGEN
 70
     0
  9
$PSLTSCALE
 70
     1
  9
$TREEDEPTH
 70
  3020
  9
$CMLSTYLE
  2
Standard
  9
$CMLJUST
 70
     0
  9
$CMLSCALE
 40
1.0
  9
$PROXYGRAPHICS
 70
     1
  9
$MEASUREMENT
 70
     1
  9
$CELWEIGHT
370
    -1
  9
$ENDCAPS
280
     0
  9
$JOINSTYLE
280
     0
  9
$LWDISPLAY
290
     0
  9
$INSUNITS
 70
     4
  9
$HYPERLINKBASE
  1

  9
$STYLESHEET
  1

  9
$XEDIT
290
     1
  9
$CEPSNTYPE
380
     0
  9
$PSTYLEMODE
290
     1
  9
$FINGERPRINTGUID
  2
{77767630-3370-3465-b5b8-787476737839}
  9
$VERSIONGUID
  2
{FAEB1C32-E019-11D5-929B-00C0DF256EC4}
  9
$EXTNAMES
290
     1
  9
$PSVPSCALE
 40
0.0
  9
$OLESTARTUP
290
     0
  9
$SORTENTS
280
   127
  9
$INDEXCTL
280
     0
  9
$HIDETEXT
280
     1
  9
$XCLIPFRAME
280
     2
  9
$HALOGAP
280
     0
  9
$OBSCOLOR
 70
   257
  9
$OBSLTYPE
280
     0
  9
$INTERSECTIONDISPLAY
280
     0
  9
$INTERSECTIONCOLOR
 70
   257
  9
$DIMASSOC
280
     2
  9
$PROJECTNAME
  1

  9
$CAMERADISPLAY
290
     0
  9
$LENSLENGTH
 40
50.0
  9
$CAMERAHEIGHT
 40
0.0
  9
$STEPSPERSEC
 40
2.0
  9
$STEPSIZE
 40
6.0
  9
$3DDWFPREC
 40
2.0
  9
$PSOLWIDTH
 40
0.25
  9
$PSOLHEIGHT
 40
4.0
  9
$LOFTANG1
 40
1.570796326794897
  9
$LOFTANG2
 40
1.570796326794897
  9
$LOFTMAG1
 40
0.0
  9
$LOFTMAG2
 40
0.0
  9
$LOFTPARAM
 70
     7
  9
$LOFTNORMALS
280
     1
  9
$LATITUDE
 40
37.795
  9
$LONGITUDE
 40
-122.394
  9
$NORTHDIRECTION
 40
0.0
  9
$TIMEZONE
 70
 -8000
  9
$LIGHTGLYPHDISPLAY
280
     1
  9
$TILEMODELIGHTSYNCH
280
     1
  9
$CMATERIAL
347
FE7
  9
$SOLIDHIST
280
     0
  9
$SHOWHIST
280
     1
  9
$DWFFRAME
280
     2
  9
$DGNFRAME
280
     2
  9
$REALWORLDSCALE
290
     1
  9
$INTERFERECOLOR
 62
   256
  9
$CSHADOW
280
     0
  9
$SHADOWPLANELOCATION
 40
0.0
  0
ENDSEC
  0
SECTION
  2
CLASSES
  0
CLASS
  1
ACDBDICTIONARYWDFLT
  2
AcDbDictionaryWithDefault
  3
ObjectDBX Classes
 90
        0
 91
        3
280
     0
281
     0
  0
CLASS
  1
VISUALSTYLE
  2
AcDbVisualStyle
  3
ObjectDBX Classes
 90
     4095
 91
        3
280
     0
281
     0
  0
CLASS
  1
MATERIAL
  2
AcDbMaterial
  3
ObjectDBX Classes
 90
     1153
 91
        3
280
     0
281
     0
  0
CLASS
  1
SCALE
  2
AcDbScale
  3
ObjectDBX Classes
 90
     1153
 91
        3
280
     0
281
     0
  0
CLASS
  1
TABLESTYLE
  2
AcDbTableStyle
  3
ObjectDBX Classes
 90
     4095
 91
        3
280
     0
281
     0
  0
CLASS
  1
MLEADERSTYLE
  2
AcDbMLeaderStyle
  3
ACDB_MLEADERSTYLE_CLASS
 90
     4095
 91
        3
280
     0
281
     0
  0
CLASS
  1
SUN
  2
AcDbSun
  3
SCENEOE
 90
     1153
 91
        3
280
     0
281
     0
  0
CLASS
  1
DICTIONARYVAR
  2
AcDbDictionaryVar
  3
ObjectDBX Classes
 90
        0
 91
        3
280
     0
281
     0
  0
CLASS
  1
CELLSTYLEMAP
  2
AcDbCellStyleMap
  3
ObjectDBX Classes
 90
     1152
 91
        3
280
     0
281
     0
  0
ENDSEC
  0
SECTION
  2
TABLES
  0
TABLE
  2
VPORT
  5
FAC
330
0
100
AcDbSymbolTable
 70
     1
  0
VPORT
  5
FCC
330
FAC
100
AcDbSymbolTableRecord
100
AcDbViewportTableRecord
  2
*Active
 70
     0
 10
0.0
 20
0.0
 11
1.0
 21
1.0
 12
-22.33898621633
 22
-6.688912416993958
 13
0.0
 23
0.0
 14
0.5
 24
0.5
 15
0.5
 25
0.5
 16
0.0
 26
0.0
 36
1.0
 17
0.0
 27
0.0
 37
0.0
 40
270.8863636363636
 41
1.547445255474453
 42
50.0
 43
0.0
 44
0.0
 50
0.0
 51
0.0
 71
     0
 72
   100
 73
     1
 74
     3
 75
     0
 76
     0
 77
     0
 78
     0
281
     0
 65
     1
110
0.0
120
0.0
130
0.0
111
1.0
121
0.0
131
0.0
112
0.0
122
1.0
132
0.0
 79
     0
146
0.0
348
FD2
 60
     3
 61
     5
292
     1
282
     1
141
0.0
142
0.0
 63
   250
361
1010
  0
ENDTAB
  0
TABLE
  2
LTYPE
  5
FA9
330
0
100
AcDbSymbolTable
 70
    52
  0
LTYPE
  5
FB7
330
FA9
100
AcDbSymbolTableRecord
100
AcDbLinetypeTableRecord
  2
ByBlock
 70
     0
  3

 72
    65
 73
     0
 40
0.0
  0
LTYPE
  5
FB8
330
FA9
100
AcDbSymbolTableRecord
100
AcDbLinetypeTableRecord
  2
ByLayer
 70
     0
  3

 72
    65
 73
     0
 40
0.0
  0
LTYPE
  5
FB9
330
FA9
100
AcDbSymbolTableRecord
100
AcDbLinetypeTableRecord
  2
Continuous
 70
     0
  3
Solid line
 72
    65
 73
     0
 40
0.0
  0
LTYPE
  5
104C
330
FA9
100
AcDbSymbolTableRecord
100
AcDbLinetypeTableRecord
  2
ACAD_ISO02W100
 70
     0
  3
ISO dash __ __ __ __ __ __ __ __ __ __ __ __ __
 72
    65
 73
     2
 40
15.0
 49
12.0
 74
     0
 49
-3.0
 74
     0
  0
LTYPE
  5
104D
330
FA9
100
AcDbSymbolTableRecord
100
AcDbLinetypeTableRecord
  2
ACAD_ISO03W100
 70
     0
  3
ISO dash space __    __    __    __    __    __
 72
    65
 73
     2
 40
30.0
 49
12.0
 74
     0
 49
-18.0
 74
     0
  0
LTYPE
  5
104E
330
FA9
100
AcDbSymbolTableRecord
100
AcDbLinetypeTableRecord
  2
ACAD_ISO04W100
 70
     0
  3
ISO long-dash dot ____ . ____ . ____ . ____ . _
 72
    65
 73
     4
 40
30.0
 49
24.0
 74
     0
 49
-3.0
 74
     0
 49
0.0
 74
     0
 49
-3.0
 74
     0
  0
LTYPE
  5
104F
330
FA9
100
AcDbSymbolTableRecord
100
AcDbLinetypeTableRecord
  2
ACAD_ISO05W100
 70
     0
  3
ISO long-dash double-dot ____ .. ____ .. ____ . 
 72
    65
 73
     6
 40
33.0
 49
24.0
 74
     0
 49
-3.0
 74
     0
 49
0.0
 74
     0
 49
-3.0
 74
     0
 49
0.0
 74
     0
 49
-3.0
 74
     0
  0
LTYPE
  5
1050
330
FA9
100
AcDbSymbolTableRecord
100
AcDbLinetypeTableRecord
  2
ACAD_ISO06W100
 70
     0
  3
ISO long-dash triple-dot ____ ... ____ ... ____
 72
    65
 73
     8
 40
36.0
 49
24.0
 74
     0
 49
-3.0
 74
     0
 49
0.0
 74
     0
 49
-3.0
 74
     0
 49
0.0
 74
     0
 49
-3.0
 74
     0
 49
0.0
 74
     0
 49
-3.0
 74
     0
  0
LTYPE
  5
1051
330
FA9
100
AcDbSymbolTableRecord
100
AcDbLinetypeTableRecord
  2
ACAD_ISO07W100
 70
     0
  3
ISO dot . . . . . . . . . . . . . . . . . . . . 
 72
    65
 73
     2
 40
3.0
 49
0.0
 74
     0
 49
-3.0
 74
     0
  0
LTYPE
  5
1052
330
FA9
100
AcDbSymbolTableRecord
100
AcDbLinetypeTableRecord
  2
ACAD_ISO08W100
 70
     0
  3
ISO long-dash short-dash ____ __ ____ __ ____ _
 72
    65
 73
     4
 40
36.0
 49
24.0
 74
     0
 49
-3.0
 74
     0
 49
6.0
 74
     0
 49
-3.0
 74
     0
  0
LTYPE
  5
1053
330
FA9
100
AcDbSymbolTableRecord
100
AcDbLinetypeTableRecord
  2
ACAD_ISO09W100
 70
     0
  3
ISO long-dash double-short-dash ____ __ __ ____
 72
    65
 73
     6
 40
45.0
 49
24.0
 74
     0
 49
-3.0
 74
     0
 49
6.0
 74
     0
 49
-3.0
 74
     0
 49
6.0
 74
     0
 49
-3.0
 74
     0
  0
LTYPE
  5
1054
330
FA9
100
AcDbSymbolTableRecord
100
AcDbLinetypeTableRecord
  2
ACAD_ISO10W100
 70
     0
  3
ISO dash dot __ . __ . __ . __ . __ . __ . __ . 
 72
    65
 73
     4
 40
18.0
 49
12.0
 74
     0
 49
-3.0
 74
     0
 49
0.0
 74
     0
 49
-3.0
 74
     0
  0
LTYPE
  5
1055
330
FA9
100
AcDbSymbolTableRecord
100
AcDbLinetypeTableRecord
  2
ACAD_ISO11W100
 70
     0
  3
ISO double-dash dot __ __ . __ __ . __ __ . __ _
 72
    65
 73
     6
 40
33.0
 49
12.0
 74
     0
 49
-3.0
 74
     0
 49
12.0
 74
     0
 49
-3.0
 74
     0
 49
0.0
 74
     0
 49
-3.0
 74
     0
  0
LTYPE
  5
1056
330
FA9
100
AcDbSymbolTableRecord
100
AcDbLinetypeTableRecord
  2
ACAD_ISO12W100
 70
     0
  3
ISO dash double-dot __ . . __ . . __ . . __ . . 
 72
    65
 73
     6
 40
21.0
 49
12.0
 74
     0
 49
-3.0
 74
     0
 49
0.0
 74
     0
 49
-3.0
 74
     0
 49
0.0
 74
     0
 49
-3.0
 74
     0
  0
LTYPE
  5
1057
330
FA9
100
AcDbSymbolTableRecord
100
AcDbLinetypeTableRecord
  2
ACAD_ISO13W100
 70
     0
  3
ISO double-dash double-dot __ __ . . __ __ . . _
 72
    65
 73
     8
 40
36.0
 49
12.0
 74
     0
 49
-3.0
 74
     0
 49
12.0
 74
     0
 49
-3.0
 74
     0
 49
0.0
 74
     0
 49
-3.0
 74
     0
 49
0.0
 74
     0
 49
-3.0
 74
     0
  0
LTYPE
  5
1058
330
FA9
100
AcDbSymbolTableRecord
100
AcDbLinetypeTableRecord
  2
ACAD_ISO14W100
 70
     0
  3
ISO dash triple-dot __ . . . __ . . . __ . . . _
 72
    65
 73
     8
 40
24.0
 49
12.0
 74
     0
 49
-3.0
 74
     0
 49
0.0
 74
     0
 49
-3.0
 74
     0
 49
0.0
 74
     0
 49
-3.0
 74
     0
 49
0.0
 74
     0
 49
-3.0
 74
     0
  0
LTYPE
  5
1059
330
FA9
100
AcDbSymbolTableRecord
100
AcDbLinetypeTableRecord
  2
ACAD_ISO15W100
 70
     0
  3
ISO double-dash triple-dot __ __ . . . __ __ . .
 72
    65
 73
    10
 40
39.0
 49
12.0
 74
     0
 49
-3.0
 74
     0
 49
12.0
 74
     0
 49
-3.0
 74
     0
 49
0.0
 74
     0
 49
-3.0
 74
     0
 49
0.0
 74
     0
 49
-3.0
 74
     0
 49
0.0
 74
     0
 49
-3.0
 74
     0
  0
LTYPE
  5
105C
330
FA9
100
AcDbSymbolTableRecord
100
AcDbLinetypeTableRecord
  2
BATTING
 70
     0
  3
Batting SSSSSSSSSSSSSSSSSSSSSSSSSSSSSSSSSSSSSSSSSSSSSSS
 72
    65
 73
     4
 40
10.16254
 49
0.00254
 74
     0
 49
-2.54
 74
     2
 75
     0
340
105A
 46
2.54
 50
0.0
 44
-2.54
 45
0.0
  9
BAT
 49
-5.08
 74
     2
 75
     0
340
105B
 46
2.54
 50
180.0
 44
2.54
 45
0.0
  9
BAT
 49
-2.54
 74
     0
  0
LTYPE
  5
105D
330
FA9
100
AcDbSymbolTableRecord
100
AcDbLinetypeTableRecord
  2
BORDER
 70
     0
  3
Border __ __ . __ __ . __ __ . __ __ . __ __ .
 72
    65
 73
     6
 40
44.45
 49
12.7
 74
     0
 49
-6.35
 74
     0
 49
12.7
 74
     0
 49
-6.35
 74
     0
 49
0.0
 74
     0
 49
-6.35
 74
     0
  0
LTYPE
  5
105E
330
FA9
100
AcDbSymbolTableRecord
100
AcDbLinetypeTableRecord
  2
BORDER2
 70
     0
  3
Border (.5x) __.__.__.__.__.__.__.__.__.__.__.
 72
    65
 73
     6
 40
22.225
 49
6.35
 74
     0
 49
-3.175
 74
     0
 49
6.35
 74
     0
 49
-3.175
 74
     0
 49
0.0
 74
     0
 49
-3.175
 74
     0
  0
LTYPE
  5
105F
330
FA9
100
AcDbSymbolTableRecord
100
AcDbLinetypeTableRecord
  2
BORDERX2
 70
     0
  3
Border (2x) ____  ____  .  ____  ____  .  ___
 72
    65
 73
     6
 40
88.89999999999999
 49
25.4
 74
     0
 49
-12.7
 74
     0
 49
25.4
 74
     0
 49
-12.7
 74
     0
 49
0.0
 74
     0
 49
-12.7
 74
     0
  0
LTYPE
  5
1060
330
FA9
100
AcDbSymbolTableRecord
100
AcDbLinetypeTableRecord
  2
CENTER
 70
     0
  3
Center ____ _ ____ _ ____ _ ____ _ ____ _ ____
 72
    65
 73
     4
 40
50.8
 49
31.75
 74
     0
 49
-6.35
 74
     0
 49
6.35
 74
     0
 49
-6.35
 74
     0
  0
LTYPE
  5
1061
330
FA9
100
AcDbSymbolTableRecord
100
AcDbLinetypeTableRecord
  2
CENTER2
 70
     0
  3
Center (.5x) ___ _ ___ _ ___ _ ___ _ ___ _ ___
 72
    65
 73
     4
 40
28.575
 49
19.05
 74
     0
 49
-3.175
 74
     0
 49
3.175
 74
     0
 49
-3.175
 74
     0
  0
LTYPE
  5
1062
330
FA9
100
AcDbSymbolTableRecord
100
AcDbLinetypeTableRecord
  2
CENTERX2
 70
     0
  3
Center (2x) ________  __  ________  __  _____
 72
    65
 73
     4
 40
101.6
 49
63.5
 74
     0
 49
-12.7
 74
     0
 49
12.7
 74
     0
 49
-12.7
 74
     0
  0
LTYPE
  5
1064
330
FA9
100
AcDbSymbolTableRecord
100
AcDbLinetypeTableRecord
  2
CUTLEFT
 70
     0
  3
G41 ----\----\----\----
 72
    65
 73
     2
 40
10.16
 49
5.08
 74
     2
 75
     0
340
1063
 46
2.54
 50
180.0
 44
0.0
 45
0.0
  9
LRIGHT_ARROW
 49
5.08
 74
     0
  0
LTYPE
  5
1066
330
FA9
100
AcDbSymbolTableRecord
100
AcDbLinetypeTableRecord
  2
CUTLEFT2
 70
     0
  3
G41 reversed----/----/----/----
 72
    65
 73
     2
 40
10.16
 49
5.08
 74
     2
 75
     0
340
1065
 46
2.54
 50
0.0
 44
0.0
 45
0.0
  9
LRIGHT_ARROW
 49
5.08
 74
     0
  0
LTYPE
  5
1068
330
FA9
100
AcDbSymbolTableRecord
100
AcDbLinetypeTableRecord
  2
CUTRIGHT
 70
     0
  3
G42 ----/----/-----/---
 72
    65
 73
     2
 40
10.16
 49
5.08
 74
     2
 75
     0
340
1067
 46
2.54
 50
180.0
 44
0.0
 45
0.0
  9
HRIGHT_ARROW
 49
5.08
 74
     0
  0
LTYPE
  5
106A
330
FA9
100
AcDbSymbolTableRecord
100
AcDbLinetypeTableRecord
  2
CUTRIGHT2
 70
     0
  3
G42 reversed----\----\----\----
 72
    65
 73
     2
 40
10.16
 49
5.08
 74
     2
 75
     0
340
1069
 46
2.54
 50
0.0
 44
0.0
 45
0.0
  9
HRIGHT_ARROW
 49
5.08
 74
     0
  0
LTYPE
  5
106B
330
FA9
100
AcDbSymbolTableRecord
100
AcDbLinetypeTableRecord
  2
DASHDOT
 70
     0
  3
Dash dot __ . __ . __ . __ . __ . __ . __ . __
 72
    65
 73
     4
 40
25.4
 49
12.7
 74
     0
 49
-6.35
 74
     0
 49
0.0
 74
     0
 49
-6.35
 74
     0
  0
LTYPE
  5
106C
330
FA9
100
AcDbSymbolTableRecord
100
AcDbLinetypeTableRecord
  2
DASHDOT2
 70
     0
  3
Dash dot (.5x) _._._._._._._._._._._._._._._.
 72
    65
 73
     4
 40
12.7
 49
6.35
 74
     0
 49
-3.175
 74
     0
 49
0.0
 74
     0
 49
-3.175
 74
     0
  0
LTYPE
  5
106D
330
FA9
100
AcDbSymbolTableRecord
100
AcDbLinetypeTableRecord
  2
DASHDOTX2
 70
     0
  3
Dash dot (2x) ____  .  ____  .  ____  .  ___
 72
    65
 73
     4
 40
50.8
 49
25.4
 74
     0
 49
-12.7
 74
     0
 49
0.0
 74
     0
 49
-12.7
 74
     0
  0
LTYPE
  5
106E
330
FA9
100
AcDbSymbolTableRecord
100
AcDbLinetypeTableRecord
  2
DASHED
 70
     0
  3
Dashed __ __ __ __ __ __ __ __ __ __ __ __ __ _
 72
    65
 73
     2
 40
19.05
 49
12.7
 74
     0
 49
-6.35
 74
     0
  0
LTYPE
  5
106F
330
FA9
100
AcDbSymbolTableRecord
100
AcDbLinetypeTableRecord
  2
DASHED2
 70
     0
  3
Dashed (.5x) _ _ _ _ _ _ _ _ _ _ _ _ _ _ _ _ _ 
 72
    65
 73
     2
 40
9.524999999999999
 49
6.35
 74
     0
 49
-3.175
 74
     0
  0
LTYPE
  5
1070
330
FA9
100
AcDbSymbolTableRecord
100
AcDbLinetypeTableRecord
  2
DASHEDX2
 70
     0
  3
Dashed (2x) ____  ____  ____  ____  ____  ___
 72
    65
 73
     2
 40
38.09999999999999
 49
25.4
 74
     0
 49
-12.7
 74
     0
  0
LTYPE
  5
1071
330
FA9
100
AcDbSymbolTableRecord
100
AcDbLinetypeTableRecord
  2
DIVIDE
 70
     0
  3
Divide ____ . . ____ . . ____ . . ____ . . ____
 72
    65
 73
     6
 40
31.75
 49
12.7
 74
     0
 49
-6.35
 74
     0
 49
0.0
 74
     0
 49
-6.35
 74
     0
 49
0.0
 74
     0
 49
-6.35
 74
     0
  0
LTYPE
  5
1072
330
FA9
100
AcDbSymbolTableRecord
100
AcDbLinetypeTableRecord
  2
DIVIDE2
 70
     0
  3
Divide (.5x) __..__..__..__..__..__..__..__.._
 72
    65
 73
     6
 40
15.875
 49
6.35
 74
     0
 49
-3.175
 74
     0
 49
0.0
 74
     0
 49
-3.175
 74
     0
 49
0.0
 74
     0
 49
-3.175
 74
     0
  0
LTYPE
  5
1073
330
FA9
100
AcDbSymbolTableRecord
100
AcDbLinetypeTableRecord
  2
DIVIDEX2
 70
     0
  3
Divide (2x) ________  .  .  ________  .  .  _
 72
    65
 73
     6
 40
63.5
 49
25.4
 74
     0
 49
-12.7
 74
     0
 49
0.0
 74
     0
 49
-12.7
 74
     0
 49
0.0
 74
     0
 49
-12.7
 74
     0
  0
LTYPE
  5
1074
330
FA9
100
AcDbSymbolTableRecord
100
AcDbLinetypeTableRecord
  2
DOT
 70
     0
  3
Dot . . . . . . . . . . . . . . . . . . . . . . . .
 72
    65
 73
     2
 40
6.35
 49
0.0
 74
     0
 49
-6.35
 74
     0
  0
LTYPE
  5
1075
330
FA9
100
AcDbSymbolTableRecord
100
AcDbLinetypeTableRecord
  2
DOT2
 70
     0
  3
Dot (.5x) ........................................
 72
    65
 73
     2
 40
3.175
 49
0.0
 74
     0
 49
-3.175
 74
     0
  0
LTYPE
  5
1076
330
FA9
100
AcDbSymbolTableRecord
100
AcDbLinetypeTableRecord
  2
DOTX2
 70
     0
  3
Dot (2x) .  .  .  .  .  .  .  .  .  .  .  .  .  .
 72
    65
 73
     2
 40
12.7
 49
0.0
 74
     0
 49
-12.7
 74
     0
  0
LTYPE
  5
1078
330
FA9
100
AcDbSymbolTableRecord
100
AcDbLinetypeTableRecord
  2
DRAINAGE
 70
     0
  3
Drainage ---->---->---->----
 72
    65
 73
     2
 40
10.16
 49
5.08
 74
     2
 75
     0
340
1077
 46
2.54
 50
180.0
 44
0.0
 45
0.0
  9
RIGHT_ARROW
 49
5.08
 74
     0
  0
LTYPE
  5
107A
330
FA9
100
AcDbSymbolTableRecord
100
AcDbLinetypeTableRecord
  2
DRAINAGE2
 70
     0
  3
Drainage reversed----<----<----<----
 72
    65
 73
     2
 40
10.16
 49
5.08
 74
     2
 75
     0
340
1079
 46
2.54
 50
0.0
 44
0.0
 45
0.0
  9
RIGHT_ARROW
 49
5.08
 74
     0
  0
LTYPE
  5
107C
330
FA9
100
AcDbSymbolTableRecord
100
AcDbLinetypeTableRecord
  2
FENCELINE1
 70
     0
  3
Fenceline circle ----0-----0----0-----0----0-----0--
 72
    65
 73
     4
 40
36.83
 49
6.35
 74
     0
 49
-2.54
 74
     2
 75
     0
340
107B
 46
2.54
 50
0.0
 44
-2.54
 45
0.0
  9
CIRC1
 49
-2.54
 74
     0
 49
25.4
 74
     0
  0
LTYPE
  5
107E
330
FA9
100
AcDbSymbolTableRecord
100
AcDbLinetypeTableRecord
  2
FENCELINE2
 70
     0
  3
Fenceline square ----[]-----[]----[]-----[]----[]---
 72
    65
 73
     4
 40
36.83
 49
6.35
 74
     0
 49
-2.54
 74
     2
 75
     0
340
107D
 46
2.54
 50
0.0
 44
-2.54
 45
0.0
  9
BOX
 49
-2.54
 74
     0
 49
25.4
 74
     0
  0
LTYPE
  5
1080
330
FA9
100
AcDbSymbolTableRecord
100
AcDbLinetypeTableRecord
  2
GAS_LINE
 70
     0
  3
Gas line ----GAS----GAS----GAS----GAS----GAS----GAS--
 72
    65
 73
     3
 40
24.13
 49
12.7
 74
     0
 49
-5.08
 74
     2
 75
     0
340
107F
 46
2.54
 50
0.0
 44
-2.54
 45
-1.27
  9
GAS
 49
-6.35
 74
     0
  0
LTYPE
  5
1081
330
FA9
100
AcDbSymbolTableRecord
100
AcDbLinetypeTableRecord
  2
HIDDEN
 70
     0
  3
Hidden __ __ __ __ __ __ __ __ __ __ __ __ __ __
 72
    65
 73
     2
 40
9.524999999999999
 49
6.35
 74
     0
 49
-3.175
 74
     0
  0
LTYPE
  5
1082
330
FA9
100
AcDbSymbolTableRecord
100
AcDbLinetypeTableRecord
  2
HIDDEN2
 70
     0
  3
Hidden (.5x) _ _ _ _ _ _ _ _ _ _ _ _ _ _ _ _ _ 
 72
    65
 73
     2
 40
4.762499999999999
 49
3.175
 74
     0
 49
-1.5875
 74
     0
  0
LTYPE
  5
1083
330
FA9
100
AcDbSymbolTableRecord
100
AcDbLinetypeTableRecord
  2
HIDDENX2
 70
     0
  3
Hidden (2x) ____ ____ ____ ____ ____ ____ ____ 
 72
    65
 73
     2
 40
19.05
 49
12.7
 74
     0
 49
-6.35
 74
     0
  0
LTYPE
  5
1085
330
FA9
100
AcDbSymbolTableRecord
100
AcDbLinetypeTableRecord
  2
HOT_WATER_SUPPLY
 70
     0
  3
Hot water supply ---- HW ---- HW ---- HW ----
 72
    65
 73
     3
 40
22.86
 49
12.7
 74
     0
 49
-5.08
 74
     2
 75
     0
340
1084
 46
2.54
 50
0.0
 44
-2.54
 45
-1.27
  9
HW
 49
-5.08
 74
     0
  0
LTYPE
  5
1086
330
FA9
100
AcDbSymbolTableRecord
100
AcDbLinetypeTableRecord
  2
PHANTOM
 70
     0
  3
Phantom ______  __  __  ______  __  __  ______ 
 72
    65
 73
     6
 40
63.50000000000001
 49
31.75
 74
     0
 49
-6.35
 74
     0
 49
6.35
 74
     0
 49
-6.35
 74
     0
 49
6.35
 74
     0
 49
-6.35
 74
     0
  0
LTYPE
  5
1087
330
FA9
100
AcDbSymbolTableRecord
100
AcDbLinetypeTableRecord
  2
PHANTOM2
 70
     0
  3
Phantom (.5x) ___ _ _ ___ _ _ ___ _ _ ___ _ _
 72
    65
 73
     6
 40
31.75
 49
15.875
 74
     0
 49
-3.175
 74
     0
 49
3.175
 74
     0
 49
-3.175
 74
     0
 49
3.175
 74
     0
 49
-3.175
 74
     0
  0
LTYPE
  5
1088
330
FA9
100
AcDbSymbolTableRecord
100
AcDbLinetypeTableRecord
  2
PHANTOMX2
 70
     0
  3
Phantom (2x) ____________    ____    ____   _
 72
    65
 73
     6
 40
127.0
 49
63.5
 74
     0
 49
-12.7
 74
     0
 49
12.7
 74
     0
 49
-12.7
 74
     0
 49
12.7
 74
     0
 49
-12.7
 74
     0
  0
LTYPE
  5
108A
330
FA9
100
AcDbSymbolTableRecord
100
AcDbLinetypeTableRecord
  2
TRACKS
 70
     0
  3
Tracks -|-|-|-|-|-|-|-|-|-|-|-|-|-|-|-|-|-|-|-|-|-|-|-|-
 72
    65
 73
     2
 40
7.62
 49
3.81
 74
     2
 75
     0
340
1089
 46
6.35
 50
0.0
 44
0.0
 45
0.0
  9
TRACK1
 49
3.81
 74
     0
  0
LTYPE
  5
108D
330
FA9
100
AcDbSymbolTableRecord
100
AcDbLinetypeTableRecord
  2
ZIGZAG
 70
     0
  3
Zig zag /\/\/\/\/\/\/\/\/\/\/\/\/\/\/\/\/\/\/\/\/\/\/\/
 72
    65
 73
     4
 40
20.32254
 49
0.00254
 74
     0
 49
-5.08
 74
     2
 75
     0
340
108B
 46
5.08
 50
0.0
 44
-5.08
 45
0.0
  9
ZIG
 49
-10.16
 74
     2
 75
     0
340
108C
 46
5.08
 50
180.0
 44
5.08
 45
0.0
  9
ZIG
 49
-5.08
 74
     0
  0
ENDTAB
  0
TABLE
  2
LAYER
  5
FA7
330
0
100
AcDbSymbolTable
 70
     1
  0
LAYER
  5
FB4
330
FA7
100
AcDbSymbolTableRecord
100
AcDbLayerTableRecord
  2
0
 70
     0
 62
     7
  6
Continuous
370
     0
390
FB3
347
FE9
348
0
  0
ENDTAB
  0
TABLE
  2
STYLE
  5
FA8
330
0
100
AcDbSymbolTable
 70
    17
  0
STYLE
  5
FB5
330
FA8
100
AcDbSymbolTableRecord
100
AcDbTextStyleTableRecord
  2
Standard
 70
     0
 40
0.0
 41
1.0
 50
0.0
 71
     0
 42
0.2
  3
txt
  4

  0
STYLE
  5
104A
330
FA8
100
AcDbSymbolTableRecord
100
AcDbTextStyleTableRecord
  2
QCADDimTextStyle
 70
     0
 40
0.0
 41
1.0
 50
0.0
 71
     0
 42
0.2
  3
txt
  4

  0
STYLE
  5
105A
330
FA8
100
AcDbSymbolTableRecord
100
AcDbTextStyleTableRecord
  2
textstyle0
 70
     0
 40
0.0
 41
1.0
 50
0.0
 71
     0
 42
0.2
  3
ltypeshp.shx
  4

  0
STYLE
  5
105B
330
FA8
100
AcDbSymbolTableRecord
100
AcDbTextStyleTableRecord
  2
textstyle1
 70
     0
 40
0.0
 41
1.0
 50
0.0
 71
     0
 42
0.2
  3
ltypeshp.shx
  4

  0
STYLE
  5
1063
330
FA8
100
AcDbSymbolTableRecord
100
AcDbTextStyleTableRecord
  2
textstyle2
 70
     0
 40
0.0
 41
1.0
 50
0.0
 71
     0
 42
0.2
  3
qcadshp.shx
  4

  0
STYLE
  5
1065
330
FA8
100
AcDbSymbolTableRecord
100
AcDbTextStyleTableRecord
  2
textstyle3
 70
     0
 40
0.0
 41
1.0
 50
0.0
 71
     0
 42
0.2
  3
qcadshp.shx
  4

  0
STYLE
  5
1067
330
FA8
100
AcDbSymbolTableRecord
100
AcDbTextStyleTableRecord
  2
textstyle4
 70
     0
 40
0.0
 41
1.0
 50
0.0
 71
     0
 42
0.2
  3
qcadshp.shx
  4

  0
STYLE
  5
1069
330
FA8
100
AcDbSymbolTableRecord
100
AcDbTextStyleTableRecord
  2
textstyle5
 70
     0
 40
0.0
 41
1.0
 50
0.0
 71
     0
 42
0.2
  3
qcadshp.shx
  4

  0
STYLE
  5
1077
330
FA8
100
AcDbSymbolTableRecord
100
AcDbTextStyleTableRecord
  2
textstyle6
 70
     0
 40
0.0
 41
1.0
 50
0.0
 71
     0
 42
0.2
  3
qcadshp.shx
  4

  0
STYLE
  5
1079
330
FA8
100
AcDbSymbolTableRecord
100
AcDbTextStyleTableRecord
  2
textstyle7
 70
     0
 40
0.0
 41
1.0
 50
0.0
 71
     0
 42
0.2
  3
qcadshp.shx
  4

  0
STYLE
  5
107B
330
FA8
100
AcDbSymbolTableRecord
100
AcDbTextStyleTableRecord
  2
textstyle8
 70
     0
 40
0.0
 41
1.0
 50
0.0
 71
     0
 42
0.2
  3
ltypeshp.shx
  4

  0
STYLE
  5
107D
330
FA8
100
AcDbSymbolTableRecord
100
AcDbTextStyleTableRecord
  2
textstyle9
 70
     0
 40
0.0
 41
1.0
 50
0.0
 71
     0
 42
0.2
  3
ltypeshp.shx
  4

  0
STYLE
  5
107F
330
FA8
100
AcDbSymbolTableRecord
100
AcDbTextStyleTableRecord
  2
textstyle10
 70
     0
 40
0.0
 41
1.0
 50
0.0
 71
     0
 42
0.2
  3
STANDARD
  4

  0
STYLE
  5
1084
330
FA8
100
AcDbSymbolTableRecord
100
AcDbTextStyleTableRecord
  2
textstyle11
 70
     0
 40
0.0
 41
1.0
 50
0.0
 71
     0
 42
0.2
  3
STANDARD
  4

  0
STYLE
  5
1089
330
FA8
100
AcDbSymbolTableRecord
100
AcDbTextStyleTableRecord
  2
textstyle12
 70
     0
 40
0.0
 41
1.0
 50
0.0
 71
     0
 42
0.2
  3
ltypeshp.shx
  4

  0
STYLE
  5
108B
330
FA8
100
AcDbSymbolTableRecord
100
AcDbTextStyleTableRecord
  2
textstyle13
 70
     0
 40
0.0
 41
1.0
 50
0.0
 71
     0
 42
0.2
  3
ltypeshp.shx
  4

  0
STYLE
  5
108C
330
FA8
100
AcDbSymbolTableRecord
100
AcDbTextStyleTableRecord
  2
textstyle14
 70
     0
 40
0.0
 41
1.0
 50
0.0
 71
     0
 42
0.2
  3
ltypeshp.shx
  4

  0
ENDTAB
  0
TABLE
  2
VIEW
  5
FAA
330
0
100
AcDbSymbolTable
 70
     0
  0
ENDTAB
  0
TABLE
  2
UCS
  5
FAB
330
0
100
AcDbSymbolTable
 70
     0
  0
ENDTAB
  0
TABLE
  2
APPID
  5
FAD
330
0
100
AcDbSymbolTable
 70
     2
  0
APPID
  5
FB6
330
FAD
100
AcDbSymbolTableRecord
100
AcDbRegAppTableRecord
  2
ACAD
 70
     0
  0
APPID
  5
1011
330
FAD
100
AcDbSymbolTableRecord
100
AcDbRegAppTableRecord
  2
QCAD
 70
     0
  0
ENDTAB
  0
TABLE
  2
DIMSTYLE
  5
FAE
330
0
100
AcDbSymbolTable
 70
     2
100
AcDbDimStyleTable
  0
DIMSTYLE
105
FCA
330
FAE
100
AcDbSymbolTableRecord
100
AcDbDimStyleTableRecord
  2
Standard
 70
     0
178
     0
340
FB5
  0
DIMSTYLE
105
104B
330
FAE
100
AcDbSymbolTableRecord
100
AcDbDimStyleTableRecord
  2
QCADDimStyle
 70
     0
 41
1.0
 42
0.25
 44
0.5
 73
     0
 77
     1
140
1.0
147
0.25
178
   256
340
104A
  0
ENDTAB
  0
TABLE
  2
BLOCK_RECORD
  5
FA6
330
0
100
AcDbSymbolTable
 70
     0
  0
BLOCK_RECORD
  5
FC2
330
FA6
100
AcDbSymbolTableRecord
100
AcDbBlockTableRecord
  2
*Model_Space
340
FC5
 70
     0
280
     1
281
     0
  0
BLOCK_RECORD
  5
FBE
330
FA6
100
AcDbSymbolTableRecord
100
AcDbBlockTableRecord
  2
*Paper_Space
340
FC1
 70
     0
280
     1
281
     0
  0
ENDTAB
  0
ENDSEC
  0
SECTION
  2
BLOCKS
  0
BLOCK
  5
FC3
330
FC2
100
AcDbEntity
  8
0
100
AcDbBlockBegin
  2
*Model_Space
 70
     0
 10
0.0
 20
0.0
 30
0.0
  3
*Model_Space
  1

  0
ENDBLK
  5
FC4
330
FC2
100
AcDbEntity
  8
0
100
AcDbBlockEnd
  0
BLOCK
  5
FBF
330
FBE
100
AcDbEntity
 67
     1
  8
0
100
AcDbBlockBegin
  2
*Paper_Space
 70
     0
 10
0.0
 20
0.0
 30
0.0
  3
*Paper_Space
  1

  0
ENDBLK
  5
FC0
330
FBE
100
AcDbEntity
 67
     1
  8
0
100
AcDbBlockEnd
  0
ENDSEC
  0
SECTION
  2
ENTITIES
  0
ARC
  5
F15
330
FC2
100
AcDbEntity
  8
0
100
AcDbCircle
 10
0.0000000000000111
 20
64.99999999999999
 30
0.0
 40
10.0
100
AcDbArc
 50
92.86598398259886
 51
132.1340160174011
  0
ARC
  5
F39
330
FC2
100
AcDbEntity
  8
0
100
AcDbCircle
 10
65.0
 20
0.0
 30
0.0
 40
10.0
100
AcDbArc
 50
92.86598398259886
 51
132.1340160174011
  0
ARC
  5
F5D
330
FC2
100
AcDbEntity
  8
0
100
AcDbCircle
 10
-0.0000000000000051
 20
-65.0
 30
0.0
 40
10.0
100
AcDbArc
 50
92.86598398259886
 51
132.1340160174011
  0
ARC
  5
F81
330
FC2
100
AcDbEntity
  8
0
100
AcDbCircle
 10
-65.0
 20
0.0
 30
0.0
 40
10.0
100
AcDbArc
 50
92.86598398259886
 51
132.1340160174011
  0
ARC
  5
F16
330
FC2
100
AcDbEntity
  8
0
100
AcDbCircle
 10
0.0000000000000111
 20
64.99999999999999
 30
0.0
 40
10.0
100
AcDbArc
 50
47.86598398259888
 51
87.13401601740115
  0
ARC
  5
F3A
330
FC2
100
AcDbEntity
  8
0
100
AcDbCircle
 10
65.0
 20
0.0
 30
0.0
 40
10.0
100
AcDbArc
 50
47.86598398259888
 51
87.13401601740115
  0
ARC
  5
F5E
330
FC2
100
AcDbEntity
  8
0
100
AcDbCircle
 10
-0.0000000000000051
 20
-65.0
 30
0.0
 40
10.0
100
AcDbArc
 50
47.86598398259888
 51
87.13401601740115
  0
ARC
  5
F82
330
FC2
100
AcDbEntity
  8
0
100
AcDbCircle
 10
-65.0
 20
0.0
 30
0.0
 40
10.0
100
AcDbArc
 50
47.86598398259888
 51
87.13401601740115
  0
ARC
  5
F17
330
FC2
100
AcDbEntity
  8
0
100
AcDbCircle
 10
0.0000000000000111
 20
64.99999999999999
 30
0.0
 40
10.0
100
AcDbArc
 50
2.865983982598987
 51
42.13401601740112
  0
ARC
  5
F3B
330
FC2
100
AcDbEntity
  8
0
100
AcDbCircle
 10
65.0
 20
0.0
 30
0.0
 40
10.0
100
AcDbArc
 50
2.865983982598987
 51
42.13401601740112
  0
ARC
  5
F5F
330
FC2
100
AcDbEntity
  8
0
100
AcDbCircle
 10
-0.0000000000000051
 20
-65.0
 30
0.0
 40
10.0
100
AcDbArc
 50
2.865983982598987
 51
42.13401601740112
  0
ARC
  5
F83
330
FC2
100
AcDbEntity
  8
0
100
AcDbCircle
 10
-65.0
 20
0.0
 30
0.0
 40
10.0
100
AcDbArc
 50
2.865983982598987
 51
42.13401601740112
  0
ARC
  5
F18
330
FC2
100
AcDbEntity
  8
0
100
AcDbCircle
 10
0.0000000000000111
 20
64.99999999999999
 30
0.0
 40
10.0
100
AcDbArc
 50
317.8659839825989
 51
357.134016017401
  0
ARC
  5
F3C
330
FC2
100
AcDbEntity
  8
0
100
AcDbCircle
 10
65.0
 20
0.0
 30
0.0
 40
10.0
100
AcDbArc
 50
317.8659839825989
 51
357.134016017401
  0
ARC
  5
F60
330
FC2
100
AcDbEntity
  8
0
100
AcDbCircle
 10
-0.0000000000000051
 20
-65.0
 30
0.0
 40
10.0
100
AcDbArc
 50
317.8659839825989
 51
357.134016017401
  0
ARC
  5
F84
330
FC2
100
AcDbEntity
  8
0
100
AcDbCircle
 10
-65.0
 20
0.0
 30
0.0
 40
10.0
100
AcDbArc
 50
317.8659839825989
 51
357.134016017401
  0
LINE
  5
43D
330
FC2
100
AcDbEntity
  8
0
100
AcDbLine
 10
-61.24363726760509
 20
41.32964721628621
 30
0.0
 11
-41.32964721628622
 21
61.24363726760509
 31
0.0
  0
ARC
  5
F19
330
FC2
100
AcDbEntity
  8
0
100
AcDbCircle
 10
0.0000000000000111
 20
64.99999999999999
 30
0.0
 40
10.0
100
AcDbArc
 50
272.8659839825988
 51
312.1340160174011
  0
ARC
  5
F3D
330
FC2
100
AcDbEntity
  8
0
100
AcDbCircle
 10
65.0
 20
0.0
 30
0.0
 40
10.0
100
AcDbArc
 50
272.8659839825988
 51
312.1340160174011
  0
ARC
  5
F61
330
FC2
100
AcDbEntity
  8
0
100
AcDbCircle
 10
-0.0000000000000051
 20
-65.0
 30
0.0
 40
10.0
100
AcDbArc
 50
272.8659839825988
 51
312.1340160174011
  0
ARC
  5
F85
330
FC2
100
AcDbEntity
  8
0
100
AcDbCircle
 10
-65.0
 20
0.0
 30
0.0
 40
10.0
100
AcDbArc
 50
272.8659839825988
 51
312.1340160174011
  0
LINE
  5
39F
330
FC2
100
AcDbEntity
  8
0
100
AcDbLine
 10
-61.24363726760511
 20
-41.32964721628621
 30
0.0
 11
-41.32964721628622
 21
-61.24363726760511
 31
0.0
  0
ARC
  5
F1A
330
FC2
100
AcDbEntity
  8
0
100
AcDbCircle
 10
0.0000000000000111
 20
64.99999999999999
 30
0.0
 40
10.0
100
AcDbArc
 50
227.8659839825989
 51
267.1340160174011
  0
ARC
  5
F3E
330
FC2
100
AcDbEntity
  8
0
100
AcDbCircle
 10
65.0
 20
0.0
 30
0.0
 40
10.0
100
AcDbArc
 50
227.8659839825989
 51
267.1340160174011
  0
ARC
  5
F62
330
FC2
100
AcDbEntity
  8
0
100
AcDbCircle
 10
-0.0000000000000051
 20
-65.0
 30
0.0
 40
10.0
100
AcDbArc
 50
227.8659839825989
 51
267.1340160174011
  0
ARC
  5
F86
330
FC2
100
AcDbEntity
  8
0
100
AcDbCircle
 10
-65.0
 20
0.0
 30
0.0
 40
10.0
100
AcDbArc
 50
227.8659839825989
 51
267.1340160174011
  0
LINE
  5
457
330
FC2
100
AcDbEntity
  8
0
100
AcDbLine
 10
41.32964721628623
 20
61.24363726760511
 30
0.0
 11
61.24363726760511
 21
41.32964721628622
 31
0.0
  0
ARC
  5
F1B
330
FC2
100
AcDbEntity
  8
0
100
AcDbCircle
 10
0.0000000000000111
 20
64.99999999999999
 30
0.0
 40
10.0
100
AcDbArc
 50
182.865983982599
 51
222.1340160174011
  0
ARC
  5
F3F
330
FC2
100
AcDbEntity
  8
0
100
AcDbCircle
 10
65.0
 20
0.0
 30
0.0
 40
10.0
100
AcDbArc
 50
182.865983982599
 51
222.1340160174011
  0
ARC
  5
F63
330
FC2
100
AcDbEntity
  8
0
100
AcDbCircle
 10
-0.0000000000000051
 20
-65.0
 30
0.0
 40
10.0
100
AcDbArc
 50
182.865983982599
 51
222.1340160174011
  0
ARC
  5
F87
330
FC2
100
AcDbEntity
  8
0
100
AcDbCircle
 10
-65.0
 20
0.0
 30
0.0
 40
10.0
100
AcDbArc
 50
182.865983982599
 51
222.1340160174011
  0
LINE
  5
3DB
330
FC2
100
AcDbEntity
  8
0
100
AcDbLine
 10
61.2436372676051
 20
-41.32964721628622
 30
0.0
 11
41.32964721628622
 21
-61.2436372676051
 31
0.0
  0
ARC
  5
F1C
330
FC2
100
AcDbEntity
  8
0
100
AcDbCircle
 10
0.0000000000000111
 20
64.99999999999999
 30
0.0
 40
10.0
100
AcDbArc
 50
137.8659839825988
 51
177.134016017401
  0
ARC
  5
F40
330
FC2
100
AcDbEntity
  8
0
100
AcDbCircle
 10
65.0
 20
0.0
 30
0.0
 40
10.0
100
AcDbArc
 50
137.8659839825988
 51
177.134016017401
  0
ARC
  5
F64
330
FC2
100
AcDbEntity
  8
0
100
AcDbCircle
 10
-0.0000000000000051
 20
-65.0
 30
0.0
 40
10.0
100
AcDbArc
 50
137.8659839825988
 51
177.134016017401
  0
ARC
  5
F88
330
FC2
100
AcDbEntity
  8
0
100
AcDbCircle
 10
-65.0
 20
0.0
 30
0.0
 40
10.0
100
AcDbArc
 50
137.8659839825988
 51
177.134016017401
  0
LINE
  5
C10
330
FC2
100
AcDbEntity
  8
0
100
AcDbLine
 10
21.5667568261897
 20
-20.85965004500315
 30
0.0
 11
26.16295090390226
 21
-16.2634559672906
 31
0.0
  0
ARC
  5
F1D
330
FC2
100
AcDbEntity
  8
0
100
AcDbCircle
 10
0.0000000000000111
 20
64.99999999999999
 30
0.0
 40
39.0
100
AcDbArc
 50
90.73458140005849
 51
134.2654185999415
  0
ARC
  5
F41
330
FC2
100
AcDbEntity
  8
0
100
AcDbCircle
 10
65.0
 20
0.0
 30
0.0
 40
39.0
100
AcDbArc
 50
90.73458140005849
 51
134.2654185999415
  0
ARC
  5
F65
330
FC2
100
AcDbEntity
  8
0
100
AcDbCircle
 10
-0.0000000000000051
 20
-65.0
 30
0.0
 40
39.0
100
AcDbArc
 50
90.73458140005849
 51
134.2654185999415
  0
ARC
  5
F89
330
FC2
100
AcDbEntity
  8
0
100
AcDbCircle
 10
-65.0
 20
0.0
 30
0.0
 40
39.0
100
AcDbArc
 50
90.73458140005849
 51
134.2654185999415
  0
LINE
  5
C14
330
FC2
100
AcDbEntity
  8
0
100
AcDbLine
 10
16.26345596729059
 20
-26.16295090390226
 30
0.0
 11
20.85965004500315
 21
-21.5667568261897
 31
0.0
  0
ARC
  5
F1E
330
FC2
100
AcDbEntity
  8
0
100
AcDbCircle
 10
0.0000000000000111
 20
64.99999999999999
 30
0.0
 40
39.0
100
AcDbArc
 50
45.73458140005848
 51
89.26541859994151
  0
ARC
  5
F42
330
FC2
100
AcDbEntity
  8
0
100
AcDbCircle
 10
65.0
 20
0.0
 30
0.0
 40
39.0
100
AcDbArc
 50
45.73458140005848
 51
89.26541859994151
  0
ARC
  5
F66
330
FC2
100
AcDbEntity
  8
0
100
AcDbCircle
 10
-0.0000000000000051
 20
-65.0
 30
0.0
 40
39.0
100
AcDbArc
 50
45.73458140005848
 51
89.26541859994151
  0
ARC
  5
F8A
330
FC2
100
AcDbEntity
  8
0
100
AcDbCircle
 10
-65.0
 20
0.0
 30
0.0
 40
39.0
100
AcDbArc
 50
45.73458140005848
 51
89.26541859994151
  0
LINE
  5
BE8
330
FC2
100
AcDbEntity
  8
0
100
AcDbLine
 10
-21.5667568261897
 20
20.85965004500315
 30
0.0
 11
-26.16295090390226
 21
16.2634559672906
 31
0.0
  0
ARC
  5
F1F
330
FC2
100
AcDbEntity
  8
0
100
AcDbCircle
 10
0.0000000000000111
 20
64.99999999999999
 30
0.0
 40
39.0
100
AcDbArc
 50
0.7345814000590178
 51
44.26541859994149
  0
ARC
  5
F43
330
FC2
100
AcDbEntity
  8
0
100
AcDbCircle
 10
65.0
 20
0.0
 30
0.0
 40
39.0
100
AcDbArc
 50
0.7345814000590178
 51
44.26541859994149
  0
ARC
  5
F67
330
FC2
100
AcDbEntity
  8
0
100
AcDbCircle
 10
-0.0000000000000051
 20
-65.0
 30
0.0
 40
39.0
100
AcDbArc
 50
0.7345814000590178
 51
44.26541859994149
  0
ARC
  5
F8B
330
FC2
100
AcDbEntity
  8
0
100
AcDbCircle
 10
-65.0
 20
0.0
 30
0.0
 40
39.0
100
AcDbArc
 50
0.7345814000590178
 51
44.26541859994149
  0
LINE
  5
BEC
330
FC2
100
AcDbEntity
  8
0
100
AcDbLine
 10
-16.2634559672906
 20
26.16295090390226
 30
0.0
 11
-20.85965004500315
 21
21.5667568261897
 31
0.0
  0
ARC
  5
F20
330
FC2
100
AcDbEntity
  8
0
100
AcDbCircle
 10
0.0000000000000111
 20
64.99999999999999
 30
0.0
 40
39.0
100
AcDbArc
 50
315.7345814000585
 51
359.265418599941
  0
ARC
  5
F44
330
FC2
100
AcDbEntity
  8
0
100
AcDbCircle
 10
65.0
 20
0.0
 30
0.0
 40
39.0
100
AcDbArc
 50
315.7345814000585
 51
359.265418599941
  0
ARC
  5
F68
330
FC2
100
AcDbEntity
  8
0
100
AcDbCircle
 10
-0.0000000000000051
 20
-65.0
 30
0.0
 40
39.0
100
AcDbArc
 50
315.7345814000585
 51
359.265418599941
  0
ARC
  5
F8C
330
FC2
100
AcDbEntity
  8
0
100
AcDbCircle
 10
-65.0
 20
0.0
 30
0.0
 40
39.0
100
AcDbArc
 50
315.7345814000585
 51
359.265418599941
  0
LINE
  5
BD4
330
FC2
100
AcDbEntity
  8
0
100
AcDbLine
 10
-20.85965004500316
 20
-21.5667568261897
 30
0.0
 11
-16.2634559672906
 21
-26.16295090390226
 31
0.0
  0
ARC
  5
F21
330
FC2
100
AcDbEntity
  8
0
100
AcDbCircle
 10
0.0000000000000111
 20
64.99999999999999
 30
0.0
 40
39.0
100
AcDbArc
 50
270.7345814000585
 51
314.2654185999415
  0
ARC
  5
F45
330
FC2
100
AcDbEntity
  8
0
100
AcDbCircle
 10
65.0
 20
0.0
 30
0.0
 40
39.0
100
AcDbArc
 50
270.7345814000585
 51
314.2654185999415
  0
ARC
  5
F69
330
FC2
100
AcDbEntity
  8
0
100
AcDbCircle
 10
-0.0000000000000051
 20
-65.0
 30
0.0
 40
39.0
100
AcDbArc
 50
270.7345814000585
 51
314.2654185999415
  0
ARC
  5
F8D
330
FC2
100
AcDbEntity
  8
0
100
AcDbCircle
 10
-65.0
 20
0.0
 30
0.0
 40
39.0
100
AcDbArc
 50
270.7345814000585
 51
314.2654185999415
  0
LINE
  5
BD8
330
FC2
100
AcDbEntity
  8
0
100
AcDbLine
 10
-26.16295090390226
 20
-16.2634559672906
 30
0.0
 11
-21.56675682618971
 21
-20.85965004500315
 31
0.0
  0
ARC
  5
F22
330
FC2
100
AcDbEntity
  8
0
100
AcDbCircle
 10
0.0000000000000111
 20
64.99999999999999
 30
0.0
 40
39.0
100
AcDbArc
 50
225.7345814000585
 51
269.2654185999415
  0
ARC
  5
F46
330
FC2
100
AcDbEntity
  8
0
100
AcDbCircle
 10
65.0
 20
0.0
 30
0.0
 40
39.0
100
AcDbArc
 50
225.7345814000585
 51
269.2654185999415
  0
ARC
  5
F6A
330
FC2
100
AcDbEntity
  8
0
100
AcDbCircle
 10
-0.0000000000000051
 20
-65.0
 30
0.0
 40
39.0
100
AcDbArc
 50
225.7345814000585
 51
269.2654185999415
  0
ARC
  5
F8E
330
FC2
100
AcDbEntity
  8
0
100
AcDbCircle
 10
-65.0
 20
0.0
 30
0.0
 40
39.0
100
AcDbArc
 50
225.7345814000585
 51
269.2654185999415
  0
LINE
  5
3A5
330
FC2
100
AcDbEntity
  8
0
100
AcDbLine
 10
-64.6106449046008
 20
-41.49817348522325
 30
0.0
 11
-54.64539945258176
 21
-51.4634189372423
 31
0.0
  0
ARC
  5
F23
330
FC2
100
AcDbEntity
  8
0
100
AcDbCircle
 10
0.0000000000000111
 20
64.99999999999999
 30
0.0
 40
39.0
100
AcDbArc
 50
180.734581400059
 51
224.2654185999415
  0
ARC
  5
F47
330
FC2
100
AcDbEntity
  8
0
100
AcDbCircle
 10
65.0
 20
0.0
 30
0.0
 40
39.0
100
AcDbArc
 50
180.734581400059
 51
224.2654185999415
  0
ARC
  5
F6B
330
FC2
100
AcDbEntity
  8
0
100
AcDbCircle
 10
-0.0000000000000051
 20
-65.0
 30
0.0
 40
39.0
100
AcDbArc
 50
180.734581400059
 51
224.2654185999415
  0
ARC
  5
F8F
330
FC2
100
AcDbEntity
  8
0
100
AcDbCircle
 10
-65.0
 20
0.0
 30
0.0
 40
39.0
100
AcDbArc
 50
180.734581400059
 51
224.2654185999415
  0
LINE
  5
3A8
330
FC2
100
AcDbEntity
  8
0
100
AcDbLine
 10
-51.4634189372423
 20
-54.64539945258176
 30
0.0
 11
-41.49817348522326
 21
-64.6106449046008
 31
0.0
  0
ARC
  5
F24
330
FC2
100
AcDbEntity
  8
0
100
AcDbCircle
 10
0.0000000000000111
 20
64.99999999999999
 30
0.0
 40
39.0
100
AcDbArc
 50
135.7345814000585
 51
179.265418599942
  0
ARC
  5
F48
330
FC2
100
AcDbEntity
  8
0
100
AcDbCircle
 10
65.0
 20
0.0
 30
0.0
 40
39.0
100
AcDbArc
 50
135.7345814000585
 51
179.265418599942
  0
ARC
  5
F6C
330
FC2
100
AcDbEntity
  8
0
100
AcDbCircle
 10
-0.0000000000000051
 20
-65.0
 30
0.0
 40
39.0
100
AcDbArc
 50
135.7345814000585
 51
179.265418599942
  0
ARC
  5
F90
330
FC2
100
AcDbEntity
  8
0
100
AcDbCircle
 10
-65.0
 20
0.0
 30
0.0
 40
39.0
100
AcDbArc
 50
135.7345814000585
 51
179.265418599942
  0
LINE
  5
435
330
FC2
100
AcDbEntity
  8
0
100
AcDbLine
 10
-51.46341893724228
 20
54.64539945258177
 30
0.0
 11
-41.49817348522325
 21
64.6106449046008
 31
0.0
  0
LINE
  5
43B
330
FC2
100
AcDbEntity
  8
0
100
AcDbLine
 10
-64.6106449046008
 20
41.49817348522325
 30
0.0
 11
-54.64539945258174
 21
51.46341893724231
 31
0.0
  0
CIRCLE
  5
F26
330
FC2
100
AcDbEntity
  8
0
100
AcDbCircle
 10
0.0000000000000111
 20
64.99999999999999
 30
0.0
 40
9.0
  0
CIRCLE
  5
F4A
330
FC2
100
AcDbEntity
  8
0
100
AcDbCircle
 10
65.0
 20
0.0
 30
0.0
 40
9.0
  0
CIRCLE
  5
F6E
330
FC2
100
AcDbEntity
  8
0
100
AcDbCircle
 10
-0.0000000000000051
 20
-65.0
 30
0.0
 40
9.0
  0
CIRCLE
  5
F92
330
FC2
100
AcDbEntity
  8
0
100
AcDbCircle
 10
-65.0
 20
0.0
 30
0.0
 40
9.0
  0
LINE
  5
409
330
FC2
100
AcDbEntity
  8
0
100
AcDbLine
 10
54.64539945258175
 20
51.46341893724231
 30
0.0
 11
64.61064490460079
 21
41.49817348522326
 31
0.0
  0
LINE
  5
F27
330
FC2
100
AcDbEntity
  8
0
100
AcDbLine
 10
0.5000000000000087
 20
25.99999999999999
 30
0.0
 11
0.5000000000000087
 21
26.0032052599191
 31
0.0
  0
LINE
  5
F4B
330
FC2
100
AcDbEntity
  8
0
100
AcDbLine
 10
65.5
 20
-39.0
 30
0.0
 11
65.5
 21
-38.99679474008089
 31
0.0
  0
LINE
  5
F6F
330
FC2
100
AcDbEntity
  8
0
100
AcDbLine
 10
0.4999999999999925
 20
-104.0
 30
0.0
 11
0.4999999999999925
 21
-103.9967947400809
 31
0.0
  0
LINE
  5
F93
330
FC2
100
AcDbEntity
  8
0
100
AcDbLine
 10
-64.5
 20
-39.0
 30
0.0
 11
-64.5
 21
-38.99679474008089
 31
0.0
  0
LINE
  5
459
330
FC2
100
AcDbEntity
  8
0
100
AcDbLine
 10
41.49817348522327
 20
64.61064490460079
 30
0.0
 11
51.46341893724232
 21
54.64539945258174
 31
0.0
  0
LINE
  5
F28
330
FC2
100
AcDbEntity
  8
0
100
AcDbLine
 10
0.5000000000000118
 20
74.98749217771909
 30
0.0
 11
0.5000000000000135
 21
103.9967947400809
 31
0.0
  0
LINE
  5
F4C
330
FC2
100
AcDbEntity
  8
0
100
AcDbLine
 10
65.5
 20
9.987492177719105
 30
0.0
 11
65.5
 21
38.9967947400809
 31
0.0
  0
LINE
  5
F70
330
FC2
100
AcDbEntity
  8
0
100
AcDbLine
 10
0.4999999999999956
 20
-55.0125078222809
 30
0.0
 11
0.4999999999999973
 21
-26.0032052599191
 31
0.0
  0
LINE
  5
F94
330
FC2
100
AcDbEntity
  8
0
100
AcDbLine
 10
-64.5
 20
9.987492177719105
 30
0.0
 11
-64.5
 21
38.9967947400809
 31
0.0
  0
LINE
  5
3CD
330
FC2
100
AcDbEntity
  8
0
100
AcDbLine
 10
51.46341893724232
 20
-54.64539945258174
 30
0.0
 11
41.49817348522325
 21
-64.6106449046008
 31
0.0
  0
LINE
  5
F29
330
FC2
100
AcDbEntity
  8
0
100
AcDbLine
 10
0.5000000000000087
 20
26.0032052599191
 30
0.0
 11
0.5000000000000104
 21
55.01250782228088
 31
0.0
  0
LINE
  5
F4D
330
FC2
100
AcDbEntity
  8
0
100
AcDbLine
 10
65.5
 20
-38.99679474008089
 30
0.0
 11
65.5
 21
-9.987492177719108
 31
0.0
  0
LINE
  5
F71
330
FC2
100
AcDbEntity
  8
0
100
AcDbLine
 10
0.4999999999999925
 20
-103.9967947400809
 30
0.0
 11
0.4999999999999943
 21
-74.9874921777191
 31
0.0
  0
LINE
  5
F95
330
FC2
100
AcDbEntity
  8
0
100
AcDbLine
 10
-64.5
 20
-38.99679474008089
 30
0.0
 11
-64.5
 21
-9.987492177719108
 31
0.0
  0
LINE
  5
3D9
330
FC2
100
AcDbEntity
  8
0
100
AcDbLine
 10
64.6106449046008
 20
-41.49817348522325
 30
0.0
 11
54.64539945258175
 21
-51.4634189372423
 31
0.0
  0
LINE
  5
F2A
330
FC2
100
AcDbEntity
  8
0
100
AcDbLine
 10
-0.4999999999999883
 20
74.98749217771906
 30
0.0
 11
-0.4999999999999865
 21
103.9967947400809
 31
0.0
  0
LINE
  5
F4E
330
FC2
100
AcDbEntity
  8
0
100
AcDbLine
 10
64.5
 20
9.987492177719076
 30
0.0
 11
64.5
 21
38.99679474008087
 31
0.0
  0
LINE
  5
F72
330
FC2
100
AcDbEntity
  8
0
100
AcDbLine
 10
-0.5000000000000044
 20
-55.01250782228092
 30
0.0
 11
-0.5000000000000027
 21
-26.00320525991913
 31
0.0
  0
LINE
  5
F96
330
FC2
100
AcDbEntity
  8
0
100
AcDbLine
 10
-65.5
 20
9.987492177719076
 30
0.0
 11
-65.5
 21
38.99679474008087
 31
0.0
  0
CIRCLE
  5
37E
330
FC2
100
AcDbEntity
  8
0
100
AcDbCircle
 10
-53.05440919491203
 20
53.05440919491203
 30
0.0
 40
1.0
  0
LINE
  5
F2B
330
FC2
100
AcDbEntity
  8
0
100
AcDbLine
 10
-0.4999999999999913
 20
26.00320525991911
 30
0.0
 11
-0.4999999999999896
 21
55.01250782228091
 31
0.0
  0
LINE
  5
F4F
330
FC2
100
AcDbEntity
  8
0
100
AcDbLine
 10
64.5
 20
-38.99679474008088
 30
0.0
 11
64.5
 21
-9.987492177719073
 31
0.0
  0
LINE
  5
F73
330
FC2
100
AcDbEntity
  8
0
100
AcDbLine
 10
-0.5000000000000075
 20
-103.9967947400809
 30
0.0
 11
-0.5000000000000058
 21
-74.98749217771908
 31
0.0
  0
LINE
  5
F97
330
FC2
100
AcDbEntity
  8
0
100
AcDbLine
 10
-65.5
 20
-38.99679474008088
 30
0.0
 11
-65.5
 21
-9.987492177719073
 31
0.0
  0
CIRCLE
  5
37F
330
FC2
100
AcDbEntity
  8
0
100
AcDbCircle
 10
0.0000000000000014
 20
23.49999999999998
 30
0.0
 40
1.0
  0
LINE
  5
F2C
330
FC2
100
AcDbEntity
  8
0
100
AcDbLine
 10
6.708670055319498
 20
72.41577683650603
 30
0.0
 11
27.22134461465781
 21
92.92845139584432
 31
0.0
  0
LINE
  5
F50
330
FC2
100
AcDbEntity
  8
0
100
AcDbLine
 10
71.70867005531949
 20
7.415776836506041
 30
0.0
 11
92.2213446146578
 21
27.92845139584434
 31
0.0
  0
LINE
  5
F74
330
FC2
100
AcDbEntity
  8
0
100
AcDbLine
 10
6.708670055319482
 20
-57.58422316349396
 30
0.0
 11
27.2213446146578
 21
-37.07154860415566
 31
0.0
  0
LINE
  5
F98
330
FC2
100
AcDbEntity
  8
0
100
AcDbLine
 10
-58.29132994468051
 20
7.415776836506041
 30
0.0
 11
-37.7786553853422
 21
27.92845139584434
 31
0.0
  0
CIRCLE
  5
380
330
FC2
100
AcDbEntity
  8
0
100
AcDbCircle
 10
-23.5
 20
0.0
 30
0.0
 40
1.0
  0
LINE
  5
F2D
330
FC2
100
AcDbEntity
  8
0
100
AcDbLine
 10
-27.92845139584436
 20
37.77865538534218
 30
0.0
 11
-7.415776836506037
 21
58.2913299446805
 31
0.0
  0
LINE
  5
F51
330
FC2
100
AcDbEntity
  8
0
100
AcDbLine
 10
37.07154860415563
 20
-27.22134461465781
 30
0.0
 11
57.58422316349395
 21
-6.708670055319491
 31
0.0
  0
LINE
  5
F75
330
FC2
100
AcDbEntity
  8
0
100
AcDbLine
 10
-27.92845139584437
 20
-92.22134461465781
 30
0.0
 11
-7.415776836506053
 21
-71.70867005531949
 31
0.0
  0
LINE
  5
F99
330
FC2
100
AcDbEntity
  8
0
100
AcDbLine
 10
-92.92845139584438
 20
-27.22134461465781
 30
0.0
 11
-72.41577683650604
 21
-6.708670055319491
 31
0.0
  0
CIRCLE
  5
381
330
FC2
100
AcDbEntity
  8
0
100
AcDbCircle
 10
23.5
 20
0.0
 30
0.0
 40
1.0
  0
LINE
  5
F2E
330
FC2
100
AcDbEntity
  8
0
100
AcDbLine
 10
7.415776836506062
 20
71.70867005531949
 30
0.0
 11
27.92845139584437
 21
92.22134461465778
 31
0.0
  0
LINE
  5
F52
330
FC2
100
AcDbEntity
  8
0
100
AcDbLine
 10
72.41577683650605
 20
6.708670055319498
 30
0.0
 11
92.92845139584436
 21
27.2213446146578
 31
0.0
  0
LINE
  5
F76
330
FC2
100
AcDbEntity
  8
0
100
AcDbLine
 10
7.415776836506046
 20
-58.2913299446805
 30
0.0
 11
27.92845139584436
 21
-37.7786553853422
 31
0.0
  0
LINE
  5
F9A
330
FC2
100
AcDbEntity
  8
0
100
AcDbLine
 10
-57.58422316349395
 20
6.708670055319498
 30
0.0
 11
-37.07154860415564
 21
27.2213446146578
 31
0.0
  0
CIRCLE
  5
382
330
FC2
100
AcDbEntity
  8
0
100
AcDbCircle
 10
-0.0000000000000014
 20
-23.5
 30
0.0
 40
1.0
  0
LINE
  5
F2F
330
FC2
100
AcDbEntity
  8
0
100
AcDbLine
 10
-27.2213446146578
 20
37.07154860415564
 30
0.0
 11
-6.708670055319491
 21
57.58422316349393
 31
0.0
  0
LINE
  5
F53
330
FC2
100
AcDbEntity
  8
0
100
AcDbLine
 10
37.77865538534219
 20
-27.92845139584435
 30
0.0
 11
58.2913299446805
 21
-7.415776836506051
 31
0.0
  0
LINE
  5
F77
330
FC2
100
AcDbEntity
  8
0
100
AcDbLine
 10
-27.22134461465781
 20
-92.92845139584435
 30
0.0
 11
-6.708670055319507
 21
-72.41577683650605
 31
0.0
  0
LINE
  5
F9B
330
FC2
100
AcDbEntity
  8
0
100
AcDbLine
 10
-92.22134461465781
 20
-27.92845139584435
 30
0.0
 11
-71.7086700553195
 21
-7.415776836506051
 31
0.0
  0
CIRCLE
  5
383
330
FC2
100
AcDbEntity
  8
0
100
AcDbCircle
 10
-106.5
 20
0.0
 30
0.0
 40
1.0
  0
LINE
  5
F30
330
FC2
100
AcDbEntity
  8
0
100
AcDbLine
 10
9.987492177719087
 20
65.49999999999999
 30
0.0
 11
38.99679474008089
 21
65.49999999999999
 31
0.0
  0
LINE
  5
F54
330
FC2
100
AcDbEntity
  8
0
100
AcDbLine
 10
74.98749217771908
 20
0.5
 30
0.0
 11
103.9967947400809
 21
0.5
 31
0.0
  0
LINE
  5
F78
330
FC2
100
AcDbEntity
  8
0
100
AcDbLine
 10
9.987492177719071
 20
-64.5
 30
0.0
 11
38.99679474008087
 21
-64.5
 31
0.0
  0
LINE
  5
F9C
330
FC2
100
AcDbEntity
  8
0
100
AcDbLine
 10
-55.01250782228092
 20
0.5
 30
0.0
 11
-26.00320525991913
 21
0.5
 31
0.0
  0
CIRCLE
  5
384
330
FC2
100
AcDbEntity
  8
0
100
AcDbCircle
 10
0.0000000000000065
 20
106.5
 30
0.0
 40
1.0
  0
LINE
  5
F31
330
FC2
100
AcDbEntity
  8
0
100
AcDbLine
 10
-38.99679474008087
 20
65.49999999999999
 30
0.0
 11
-9.987492177719062
 21
65.49999999999999
 31
0.0
  0
LINE
  5
F55
330
FC2
100
AcDbEntity
  8
0
100
AcDbLine
 10
26.00320525991912
 20
0.5
 30
0.0
 11
55.01250782228092
 21
0.5
 31
0.0
  0
LINE
  5
F79
330
FC2
100
AcDbEntity
  8
0
100
AcDbLine
 10
-38.99679474008089
 20
-64.5
 30
0.0
 11
-9.987492177719078
 21
-64.5
 31
0.0
  0
LINE
  5
F9D
330
FC2
100
AcDbEntity
  8
0
100
AcDbLine
 10
-103.9967947400809
 20
0.5
 30
0.0
 11
-74.98749217771908
 21
0.5
 31
0.0
  0
CIRCLE
  5
385
330
FC2
100
AcDbEntity
  8
0
100
AcDbCircle
 10
53.05440919491204
 20
53.05440919491203
 30
0.0
 40
1.0
  0
LINE
  5
F32
330
FC2
100
AcDbEntity
  8
0
100
AcDbLine
 10
9.987492177719087
 20
64.49999999999999
 30
0.0
 11
38.99679474008089
 21
64.49999999999999
 31
0.0
  0
LINE
  5
F56
330
FC2
100
AcDbEntity
  8
0
100
AcDbLine
 10
74.98749217771908
 20
-0.5
 30
0.0
 11
103.9967947400809
 21
-0.5
 31
0.0
  0
LINE
  5
F7A
330
FC2
100
AcDbEntity
  8
0
100
AcDbLine
 10
9.987492177719071
 20
-65.5
 30
0.0
 11
38.99679474008087
 21
-65.5
 31
0.0
  0
LINE
  5
F9E
330
FC2
100
AcDbEntity
  8
0
100
AcDbLine
 10
-55.01250782228092
 20
-0.5
 30
0.0
 11
-26.00320525991913
 21
-0.5
 31
0.0
  0
CIRCLE
  5
386
330
FC2
100
AcDbEntity
  8
0
100
AcDbCircle
 10
106.5
 20
0.0
 30
0.0
 40
1.0
  0
LINE
  5
F33
330
FC2
100
AcDbEntity
  8
0
100
AcDbLine
 10
-38.99679474008087
 20
64.49999999999999
 30
0.0
 11
-9.987492177719062
 21
64.49999999999999
 31
0.0
  0
LINE
  5
F57
330
FC2
100
AcDbEntity
  8
0
100
AcDbLine
 10
26.00320525991912
 20
-0.5
 30
0.0
 11
55.01250782228092
 21
-0.5
 31
0.0
  0
LINE
  5
F7B
330
FC2
100
AcDbEntity
  8
0
100
AcDbLine
 10
-38.99679474008089
 20
-65.5
 30
0.0
 11
-9.987492177719078
 21
-65.5
 31
0.0
  0
LINE
  5
F9F
330
FC2
100
AcDbEntity
  8
0
100
AcDbLine
 10
-103.9967947400809
 20
-0.5
 30
0.0
 11
-74.98749217771908
 21
-0.5
 31
0.0
  0
CIRCLE
  5
387
330
FC2
100
AcDbEntity
  8
0
100
AcDbCircle
 10
53.05440919491203
 20
-53.05440919491203
 30
0.0
 40
1.0
  0
LINE
  5
F34
330
FC2
100
AcDbEntity
  8
0
100
AcDbLine
 10
-6.708670055319455
 20
72.41577683650601
 30
0.0
 11
-27.22134461465781
 21
92.92845139584436
 31
0.0
  0
LINE
  5
F58
330
FC2
100
AcDbEntity
  8
0
100
AcDbLine
 10
58.29132994468053
 20
7.415776836506026
 30
0.0
 11
37.77865538534218
 21
27.92845139584438
 31
0.0
  0
LINE
  5
F7C
330
FC2
100
AcDbEntity
  8
0
100
AcDbLine
 10
-6.708670055319471
 20
-57.58422316349397
 30
0.0
 11
-27.22134461465782
 21
-37.07154860415562
 31
0.0
  0
LINE
  5
FA0
330
FC2
100
AcDbEntity
  8
0
100
AcDbLine
 10
-71.70867005531946
 20
7.415776836506026
 30
0.0
 11
-92.22134461465782
 21
27.92845139584438
 31
0.0
  0
CIRCLE
  5
388
330
FC2
100
AcDbEntity
  8
0
100
AcDbCircle
 10
-0.0000000000000065
 20
-106.5
 30
0.0
 40
1.0
  0
LINE
  5
F35
330
FC2
100
AcDbEntity
  8
0
100
AcDbLine
 10
27.92845139584436
 20
37.77865538534219
 30
0.0
 11
7.415776836506048
 21
58.29132994468051
 31
0.0
  0
LINE
  5
F59
330
FC2
100
AcDbEntity
  8
0
100
AcDbLine
 10
92.92845139584435
 20
-27.2213446146578
 30
0.0
 11
72.41577683650604
 21
-6.70867005531948
 31
0.0
  0
LINE
  5
F7D
330
FC2
100
AcDbEntity
  8
0
100
AcDbLine
 10
27.92845139584434
 20
-92.2213446146578
 30
0.0
 11
7.415776836506032
 21
-71.70867005531949
 31
0.0
  0
LINE
  5
FA1
330
FC2
100
AcDbEntity
  8
0
100
AcDbLine
 10
-37.07154860415565
 20
-27.2213446146578
 30
0.0
 11
-57.58422316349396
 21
-6.70867005531948
 31
0.0
  0
ARC
  5
439
330
FC2
100
AcDbEntity
  8
0
100
AcDbCircle
 10
-53.05440919491203
 20
53.05440919491203
 30
0.0
 40
2.25
100
AcDbArc
 50
44.99999999999987
 51
225.0000000000001
  0
LINE
  5
F36
330
FC2
100
AcDbEntity
  8
0
100
AcDbLine
 10
-7.415776836506005
 20
71.70867005531946
 30
0.0
 11
-27.92845139584437
 21
92.22134461465782
 31
0.0
  0
LINE
  5
F5A
330
FC2
100
AcDbEntity
  8
0
100
AcDbLine
 10
57.58422316349399
 20
6.708670055319473
 30
0.0
 11
37.07154860415562
 21
27.22134461465784
 31
0.0
  0
LINE
  5
F7E
330
FC2
100
AcDbEntity
  8
0
100
AcDbLine
 10
-7.415776836506021
 20
-58.29132994468053
 30
0.0
 11
-27.92845139584438
 21
-37.77865538534216
 31
0.0
  0
LINE
  5
FA2
330
FC2
100
AcDbEntity
  8
0
100
AcDbLine
 10
-72.41577683650601
 20
6.708670055319473
 30
0.0
 11
-92.92845139584438
 21
27.22134461465784
 31
0.0
  0
ARC
  5
450
330
FC2
100
AcDbEntity
  8
0
100
AcDbCircle
 10
-106.5
 20
0.0
 30
0.0
 40
2.25
100
AcDbArc
 50
88.44661086236692
 51
271.553389137633
  0
LINE
  5
F37
330
FC2
100
AcDbEntity
  8
0
100
AcDbLine
 10
27.22134461465782
 20
37.07154860415562
 30
0.0
 11
6.708670055319502
 21
57.58422316349395
 31
0.0
  0
LINE
  5
F5B
330
FC2
100
AcDbEntity
  8
0
100
AcDbLine
 10
92.22134461465781
 20
-27.92845139584436
 30
0.0
 11
71.70867005531949
 21
-7.415776836506041
 31
0.0
  0
LINE
  5
F7F
330
FC2
100
AcDbEntity
  8
0
100
AcDbLine
 10
27.22134461465781
 20
-92.92845139584436
 30
0.0
 11
6.708670055319486
 21
-72.41577683650604
 31
0.0
  0
LINE
  5
FA3
330
FC2
100
AcDbEntity
  8
0
100
AcDbLine
 10
-37.77865538534219
 20
-27.92845139584436
 30
0.0
 11
-58.29132994468051
 21
-7.415776836506041
 31
0.0
  0
ARC
  5
3A4
330
FC2
100
AcDbEntity
  8
0
100
AcDbCircle
 10
-53.05440919491204
 20
-53.05440919491203
 30
0.0
 40
2.25
100
AcDbArc
 50
134.9999999999999
 51
315.0
  0
ARC
  5
BC7
330
FC2
100
AcDbEntity
  8
0
100
AcDbCircle
 10
-0.0000000000000013
 20
-23.5
 30
0.0
 40
2.25
100
AcDbArc
 50
358.4466108623668
 51
64.79792296663044
  0
ARC
  5
BCA
330
FC2
100
AcDbEntity
  8
0
100
AcDbCircle
 10
-0.0000000000000013
 20
-23.5
 30
0.0
 40
2.25
100
AcDbArc
 50
115.2020770333694
 51
181.5533891376332
  0
ARC
  5
BAD
330
FC2
100
AcDbEntity
  8
0
100
AcDbCircle
 10
-23.5
 20
0.0
 30
0.0
 40
2.25
100
AcDbArc
 50
268.4466108623669
 51
334.7979229666307
  0
ARC
  5
BB0
330
FC2
100
AcDbEntity
  8
0
100
AcDbCircle
 10
-23.5
 20
0.0
 30
0.0
 40
2.25
100
AcDbArc
 50
25.20207703337892
 51
91.55338913763306
  0
ARC
  5
B8B
330
FC2
100
AcDbEntity
  8
0
100
AcDbCircle
 10
0.0000000000000013
 20
23.49999999999998
 30
0.0
 40
2.25
100
AcDbArc
 50
178.4466108623668
 51
244.7979229666313
  0
ARC
  5
B8E
330
FC2
100
AcDbEntity
  8
0
100
AcDbCircle
 10
0.0000000000000013
 20
23.49999999999998
 30
0.0
 40
2.25
100
AcDbArc
 50
295.2020770333684
 51
1.553389137633197
  0
ARC
  5
BA0
330
FC2
100
AcDbEntity
  8
0
100
AcDbCircle
 10
23.5
 20
0.0
 30
0.0
 40
2.25
100
AcDbArc
 50
205.2020770333697
 51
271.553389137633
  0
ARC
  5
BA1
330
FC2
100
AcDbEntity
  8
0
100
AcDbCircle
 10
23.5
 20
0.0
 30
0.0
 40
2.25
100
AcDbArc
 50
88.44661086236692
 51
154.7979229666308
  0
ARC
  5
3D1
330
FC2
100
AcDbEntity
  8
0
100
AcDbCircle
 10
53.05440919491203
 20
-53.05440919491203
 30
0.0
 40
2.25
100
AcDbArc
 50
224.9999999999999
 51
45.00000000000012
  0
ARC
  5
3F3
330
FC2
100
AcDbEntity
  8
0
100
AcDbCircle
 10
106.5
 20
0.0
 30
0.0
 40
2.25
100
AcDbArc
 50
268.4466108623669
 51
91.55338913763306
  0
ARC
  5
40C
330
FC2
100
AcDbEntity
  8
0
100
AcDbCircle
 10
53.05440919491204
 20
53.05440919491203
 30
0.0
 40
2.25
100
AcDbArc
 50
314.9999999999998
 51
135.0000000000003
  0
ARC
  5
433
330
FC2
100
AcDbEntity
  8
0
100
AcDbCircle
 10
0.0000000000000067
 20
106.5
 30
0.0
 40
2.25
100
AcDbArc
 50
358.446610862367
 51
181.5533891376329
  0
ARC
  5
3D7
330
FC2
100
AcDbEntity
  8
0
100
AcDbCircle
 10
-0.0000000000000067
 20
-106.5
 30
0.0
 40
2.25
100
AcDbArc
 50
178.4466108623668
 51
1.553389137633197
  0
CIRCLE
  5
396
330
FC2
100
AcDbEntity
  8
0
100
AcDbCircle
 10
-53.05440919491204
 20
-53.05440919491203
 30
0.0
 40
1.0
  0
ARC
  5
42E
330
FC2
100
AcDbEntity
  8
0
100
AcDbCircle
 10
0.0000000000000142
 20
64.99999999999999
 30
0.0
 40
41.5
100
AcDbArc
 50
359.4624402171995
 51
86.89322172473386
  0
ARC
  5
431
330
FC2
100
AcDbEntity
  8
0
100
AcDbCircle
 10
0.0000000000000142
 20
64.99999999999999
 30
0.0
 40
41.5
100
AcDbArc
 50
93.10677827526615
 51
180.5375597827999
  0
ARC
  5
AF2
330
FC2
100
AcDbEntity
  8
0
100
AcDbCircle
 10
0.0000000000000142
 20
64.99999999999999
 30
0.0
 40
41.5
100
AcDbArc
 50
293.8673315589484
 51
354.8067781944741
  0
ARC
  5
AF9
330
FC2
100
AcDbEntity
  8
0
100
AcDbCircle
 10
0.0000000000000142
 20
64.99999999999999
 30
0.0
 40
41.5
100
AcDbArc
 50
185.1932218055259
 51
246.1326684410516
  0
ARC
  5
BEF
330
FC2
100
AcDbEntity
  8
0
100
AcDbCircle
 10
0.0000000000000142
 20
64.99999999999999
 30
0.0
 40
41.5
100
AcDbArc
 50
248.8303808665042
 51
258.5936873669822
  0
ARC
  5
BF2
330
FC2
100
AcDbEntity
  8
0
100
AcDbCircle
 10
0.0000000000000142
 20
64.99999999999999
 30
0.0
 40
41.5
100
AcDbArc
 50
260.2676102612511
 51
266.8932217247338
  0
ARC
  5
BF3
330
FC2
100
AcDbEntity
  8
0
100
AcDbCircle
 10
0.0000000000000142
 20
64.99999999999999
 30
0.0
 40
41.5
100
AcDbArc
 50
273.1067782752661
 51
279.7323897387489
  0
ARC
  5
BF7
330
FC2
100
AcDbEntity
  8
0
100
AcDbCircle
 10
0.0000000000000142
 20
64.99999999999999
 30
0.0
 40
41.5
100
AcDbArc
 50
281.4063126330178
 51
291.1696191334959
  0
ARC
  5
44E
330
FC2
100
AcDbEntity
  8
0
100
AcDbCircle
 10
-65.0
 20
0.0
 30
0.0
 40
41.5
100
AcDbArc
 50
89.46244021719974
 51
176.8932217247338
  0
ARC
  5
452
330
FC2
100
AcDbEntity
  8
0
100
AcDbCircle
 10
-65.0
 20
0.0
 30
0.0
 40
41.5
100
AcDbArc
 50
183.1067782752661
 51
270.5375597828003
  0
ARC
  5
AEB
330
FC2
100
AcDbEntity
  8
0
100
AcDbCircle
 10
-65.0
 20
0.0
 30
0.0
 40
41.5
100
AcDbArc
 50
275.1932218055258
 51
336.1326684410516
  0
ARC
  5
AEE
330
FC2
100
AcDbEntity
  8
0
100
AcDbCircle
 10
-65.0
 20
0.0
 30
0.0
 40
41.5
100
AcDbArc
 50
23.86733155894837
 51
84.80677819447412
  0
ARC
  5
BDB
330
FC2
100
AcDbEntity
  8
0
100
AcDbCircle
 10
-65.0
 20
0.0
 30
0.0
 40
41.5
100
AcDbArc
 50
338.830380866504
 51
348.5936873669822
  0
ARC
  5
BDE
330
FC2
100
AcDbEntity
  8
0
100
AcDbCircle
 10
-65.0
 20
0.0
 30
0.0
 40
41.5
100
AcDbArc
 50
350.2676102612511
 51
356.8932217247338
  0
ARC
  5
BDF
330
FC2
100
AcDbEntity
  8
0
100
AcDbCircle
 10
-65.0
 20
0.0
 30
0.0
 40
41.5
100
AcDbArc
 50
3.106778275266145
 51
9.73238973874887
  0
ARC
  5
BE3
330
FC2
100
AcDbEntity
  8
0
100
AcDbCircle
 10
-65.0
 20
0.0
 30
0.0
 40
41.5
100
AcDbArc
 50
11.4063126330177
 51
21.16961913349588
  0
ARC
  5
3EE
330
FC2
100
AcDbEntity
  8
0
100
AcDbCircle
 10
65.0
 20
0.0
 30
0.0
 40
41.5
100
AcDbArc
 50
269.4624402171997
 51
356.8932217247338
  0
ARC
  5
3F4
330
FC2
100
AcDbEntity
  8
0
100
AcDbCircle
 10
65.0
 20
0.0
 30
0.0
 40
41.5
100
AcDbArc
 50
3.106778275266145
 51
90.53755978280027
  0
ARC
  5
AEF
330
FC2
100
AcDbEntity
  8
0
100
AcDbCircle
 10
65.0
 20
0.0
 30
0.0
 40
41.5
100
AcDbArc
 50
95.19322180552585
 51
156.1326684410516
  0
ARC
  5
AF4
330
FC2
100
AcDbEntity
  8
0
100
AcDbCircle
 10
65.0
 20
0.0
 30
0.0
 40
41.5
100
AcDbArc
 50
203.8673315589484
 51
264.8067781944741
  0
ARC
  5
C03
330
FC2
100
AcDbEntity
  8
0
100
AcDbCircle
 10
65.0
 20
0.0
 30
0.0
 40
41.5
100
AcDbArc
 50
158.830380866504
 51
168.5936873669823
  0
ARC
  5
C06
330
FC2
100
AcDbEntity
  8
0
100
AcDbCircle
 10
65.0
 20
0.0
 30
0.0
 40
41.5
100
AcDbArc
 50
170.2676102612511
 51
176.8932217247338
  0
ARC
  5
C07
330
FC2
100
AcDbEntity
  8
0
100
AcDbCircle
 10
65.0
 20
0.0
 30
0.0
 40
41.5
100
AcDbArc
 50
183.1067782752661
 51
189.7323897387489
  0
ARC
  5
C0B
330
FC2
100
AcDbEntity
  8
0
100
AcDbCircle
 10
65.0
 20
0.0
 30
0.0
 40
41.5
100
AcDbArc
 50
191.4063126330176
 51
201.1696191334959
  0
ARC
  5
3D3
330
FC2
100
AcDbEntity
  8
0
100
AcDbCircle
 10
-0.0000000000000071
 20
-65.0
 30
0.0
 40
41.5
100
AcDbArc
 50
273.1067782752662
 51
0.5375597828005731
  0
ARC
  5
467
330
FC2
100
AcDbEntity
  8
0
100
AcDbCircle
 10
-0.0000000000000071
 20
-65.0
 30
0.0
 40
41.5
100
AcDbArc
 50
179.4624402172001
 51
266.8932217247338
  0
ARC
  5
AF5
330
FC2
100
AcDbEntity
  8
0
100
AcDbCircle
 10
-0.0000000000000071
 20
-65.0
 30
0.0
 40
41.5
100
AcDbArc
 50
5.19322180552587
 51
66.1326684410516
  0
ARC
  5
AF8
330
FC2
100
AcDbEntity
  8
0
100
AcDbCircle
 10
-0.0000000000000071
 20
-65.0
 30
0.0
 40
41.5
100
AcDbArc
 50
113.8673315589484
 51
174.8067781944741
  0
ARC
  5
BCB
330
FC2
100
AcDbEntity
  8
0
100
AcDbCircle
 10
-0.0000000000000071
 20
-65.0
 30
0.0
 40
41.5
100
AcDbArc
 50
93.10677827526615
 51
99.73238973874888
  0
ARC
  5
BCF
330
FC2
100
AcDbEntity
  8
0
100
AcDbCircle
 10
-0.0000000000000071
 20
-65.0
 30
0.0
 40
41.5
100
AcDbArc
 50
101.4063126330177
 51
111.1696191334959
  0
ARC
  5
C17
330
FC2
100
AcDbEntity
  8
0
100
AcDbCircle
 10
-0.0000000000000071
 20
-65.0
 30
0.0
 40
41.5
100
AcDbArc
 50
68.83038086650413
 51
78.5936873669823
  0
ARC
  5
C1A
330
FC2
100
AcDbEntity
  8
0
100
AcDbCircle
 10
-0.0000000000000071
 20
-65.0
 30
0.0
 40
41.5
100
AcDbArc
 50
80.26761026125112
 51
86.89322172473385
  0
LINE
  5
BFB
330
FC2
100
AcDbEntity
  8
0
100
AcDbLine
 10
16.26345596729058
 20
26.16295090390225
 30
0.0
 11
20.85965004500315
 21
21.56675682618969
 31
0.0
  0
LINE
  5
BFF
330
FC2
100
AcDbEntity
  8
0
100
AcDbLine
 10
21.5667568261897
 20
20.85965004500314
 30
0.0
 11
26.16295090390225
 21
16.2634559672906
 31
0.0
  0
LINE
  5
CDD
330
FC2
100
AcDbEntity
  8
0
100
AcDbLine
 10
-24.09726537438947
 20
7.015432997818625
 30
0.0
 11
-21.21320343559643
 21
9.899494936611664
 31
0.0
  0
LINE
  5
CF9
330
FC2
100
AcDbEntity
  8
0
100
AcDbLine
 10
-20.50609665440988
 20
10.60660171779821
 30
0.0
 11
-15.90990257669732
 21
15.20279579551077
 31
0.0
  0
LINE
  5
DBB
330
FC2
100
AcDbEntity
  8
0
100
AcDbLine
 10
-15.20279579551077
 20
15.90990257669732
 30
0.0
 11
-10.60660171779822
 21
20.50609665440987
 31
0.0
  0
LINE
  5
DC0
330
FC2
100
AcDbEntity
  8
0
100
AcDbLine
 10
-9.899494936611662
 20
21.21320343559643
 30
0.0
 11
-7.015432997818614
 21
24.09726537438947
 31
0.0
  0
LINE
  5
CE9
330
FC2
100
AcDbEntity
  8
0
100
AcDbLine
 10
-24.31965025144739
 20
8.207261683133801
 30
0.0
 11
-21.92031021678298
 21
10.60660171779821
 31
0.0
  0
LINE
  5
CEB
330
FC2
100
AcDbEntity
  8
0
100
AcDbLine
 10
-21.21320343559643
 20
11.31370849898476
 30
0.0
 11
-16.61700935788387
 21
15.90990257669732
 31
0.0
  0
LINE
  5
DC2
330
FC2
100
AcDbEntity
  8
0
100
AcDbLine
 10
-10.60660171779821
 20
21.92031021678298
 30
0.0
 11
-8.207261683133805
 21
24.31965025144738
 31
0.0
  0
LINE
  5
DC7
330
FC2
100
AcDbEntity
  8
0
100
AcDbLine
 10
-15.90990257669732
 20
16.61700935788387
 30
0.0
 11
-11.31370849898477
 21
21.21320343559643
 31
0.0
  0
LINE
  5
CD9
330
FC2
100
AcDbEntity
  8
0
100
AcDbLine
 10
-21.21320343559643
 20
0.7071067811865426
 30
0.0
 11
-16.61700935788387
 21
5.303300858899105
 31
0.0
  0
LINE
  5
CFD
330
FC2
100
AcDbEntity
  8
0
100
AcDbLine
 10
-15.90990257669732
 20
6.010407640085653
 30
0.0
 11
-11.31370849898477
 21
10.60660171779821
 31
0.0
  0
LINE
  5
DB2
330
FC2
100
AcDbEntity
  8
0
100
AcDbLine
 10
-5.303300858899104
 20
16.61700935788387
 30
0.0
 11
-0.707106781186539
 21
21.21320343559643
 31
0.0
  0
LINE
  5
DB5
330
FC2
100
AcDbEntity
  8
0
100
AcDbLine
 10
-10.60660171779821
 20
11.31370849898476
 30
0.0
 11
-6.010407640085655
 21
15.90990257669731
 31
0.0
  0
LINE
  5
B86
330
FC2
100
AcDbEntity
  8
0
100
AcDbLine
 10
0.7071067811865528
 20
21.21320343559643
 30
0.0
 11
0.95807720752817
 21
21.46417386193805
 31
0.0
  0
LINE
  5
BAC
330
FC2
100
AcDbEntity
  8
0
100
AcDbLine
 10
-21.46417386193862
 20
-0.9580772075287349
 30
0.0
 11
-21.21320343559643
 21
-0.7071067811865461
 31
0.0
  0
LINE
  5
CCD
330
FC2
100
AcDbEntity
  8
0
100
AcDbLine
 10
-20.50609665440988
 20
-0.0000000000000036
 30
0.0
 11
-15.90990257669732
 21
4.596194077712557
 31
0.0
  0
LINE
  5
CFF
330
FC2
100
AcDbEntity
  8
0
100
AcDbLine
 10
-15.20279579551077
 20
5.303300858899107
 30
0.0
 11
-10.60660171779822
 21
9.89949493661166
 31
0.0
  0
LINE
  5
DAB
330
FC2
100
AcDbEntity
  8
0
100
AcDbLine
 10
-9.899494936611664
 20
10.60660171779822
 30
0.0
 11
-5.303300858899111
 21
15.20279579551077
 31
0.0
  0
LINE
  5
DB0
330
FC2
100
AcDbEntity
  8
0
100
AcDbLine
 10
-4.596194077712558
 20
15.90990257669732
 30
0.0
 11
-0.0000000000000071
 21
20.50609665440987
 31
0.0
  0
LINE
  5
C45
330
FC2
100
AcDbEntity
  8
0
100
AcDbLine
 10
-26.30061006269339
 20
-14.98690156370863
 30
0.0
 11
-21.92031021678298
 21
-10.60660171779821
 31
0.0
  0
LINE
  5
C4D
330
FC2
100
AcDbEntity
  8
0
100
AcDbLine
 10
-21.21320343559643
 20
-9.89949493661166
 30
0.0
 11
-16.61700935788387
 21
-5.303300858899103
 31
0.0
  0
LINE
  5
CC9
330
FC2
100
AcDbEntity
  8
0
100
AcDbLine
 10
-15.90990257669732
 20
-4.596194077712555
 30
0.0
 11
-11.31370849898477
 21
0.0
 31
0.0
  0
LINE
  5
D17
330
FC2
100
AcDbEntity
  8
0
100
AcDbLine
 10
-10.60660171779822
 20
0.7071067811865488
 30
0.0
 11
-6.010407640085663
 21
5.303300858899101
 31
0.0
  0
LINE
  5
DA7
330
FC2
100
AcDbEntity
  8
0
100
AcDbLine
 10
-5.303300858899107
 20
6.010407640085658
 30
0.0
 11
-0.7071067811865523
 21
10.60660171779821
 31
0.0
  0
LINE
  5
DCB
330
FC2
100
AcDbEntity
  8
0
100
AcDbLine
 10
-0.0000000000000009
 20
11.31370849898476
 30
0.0
 11
4.596194077712555
 21
15.90990257669732
 31
0.0
  0
LINE
  5
E1E
330
FC2
100
AcDbEntity
  8
0
100
AcDbLine
 10
10.60660171779821
 20
21.92031021678298
 30
0.0
 11
14.98690156370863
 21
26.30061006269339
 31
0.0
  0
LINE
  5
E23
330
FC2
100
AcDbEntity
  8
0
100
AcDbLine
 10
5.303300858899107
 20
16.61700935788387
 30
0.0
 11
9.899494936611665
 21
21.21320343559643
 31
0.0
  0
LINE
  5
C47
330
FC2
100
AcDbEntity
  8
0
100
AcDbLine
 10
-26.16295090390226
 20
-16.26345596729059
 30
0.0
 11
-21.21320343559643
 21
-11.31370849898476
 31
0.0
  0
LINE
  5
C4F
330
FC2
100
AcDbEntity
  8
0
100
AcDbLine
 10
-20.50609665440988
 20
-10.60660171779821
 30
0.0
 11
-15.90990257669732
 21
-6.010407640085654
 31
0.0
  0
LINE
  5
CBD
330
FC2
100
AcDbEntity
  8
0
100
AcDbLine
 10
-15.20279579551077
 20
-5.303300858899105
 30
0.0
 11
-10.60660171779822
 21
-0.7071067811865506
 31
0.0
  0
LINE
  5
D15
330
FC2
100
AcDbEntity
  8
0
100
AcDbLine
 10
-9.899494936611667
 20
-0.0000000000000004
 30
0.0
 11
-5.303300858899114
 21
4.596194077712552
 31
0.0
  0
LINE
  5
D9B
330
FC2
100
AcDbEntity
  8
0
100
AcDbLine
 10
-4.596194077712556
 20
5.30330085889911
 30
0.0
 11
-0.0000000000000036
 21
9.899494936611662
 31
0.0
  0
LINE
  5
DCD
330
FC2
100
AcDbEntity
  8
0
100
AcDbLine
 10
0.707106781186547
 20
10.60660171779821
 30
0.0
 11
5.303300858899105
 21
15.20279579551077
 31
0.0
  0
LINE
  5
E1C
330
FC2
100
AcDbEntity
  8
0
100
AcDbLine
 10
11.31370849898477
 20
21.21320343559643
 30
0.0
 11
16.26345596729058
 21
26.16295090390225
 31
0.0
  0
LINE
  5
E25
330
FC2
100
AcDbEntity
  8
0
100
AcDbLine
 10
6.010407640085659
 20
15.90990257669732
 30
0.0
 11
10.60660171779822
 21
20.50609665440988
 31
0.0
  0
LINE
  5
C2F
330
FC2
100
AcDbEntity
  8
0
100
AcDbLine
 10
-21.5667568261897
 20
-20.85965004500315
 30
0.0
 11
-16.61700935788387
 21
-15.90990257669732
 31
0.0
  0
LINE
  5
C61
330
FC2
100
AcDbEntity
  8
0
100
AcDbLine
 10
-15.90990257669733
 20
-15.20279579551077
 30
0.0
 11
-11.31370849898476
 21
-10.60660171779821
 31
0.0
  0
LINE
  5
CB9
330
FC2
100
AcDbEntity
  8
0
100
AcDbLine
 10
-10.60660171779822
 20
-9.89949493661166
 30
0.0
 11
-6.010407640085662
 21
-5.303300858899106
 31
0.0
  0
LINE
  5
D1D
330
FC2
100
AcDbEntity
  8
0
100
AcDbLine
 10
-5.303300858899112
 20
-4.596194077712556
 30
0.0
 11
-0.7071067811865577
 21
-0.0000000000000018
 31
0.0
  0
LINE
  5
D97
330
FC2
100
AcDbEntity
  8
0
100
AcDbLine
 10
-0.0000000000000028
 20
0.707106781186553
 30
0.0
 11
4.596194077712553
 21
5.303300858899108
 31
0.0
  0
LINE
  5
DE5
330
FC2
100
AcDbEntity
  8
0
100
AcDbLine
 10
5.303300858899103
 20
6.010407640085658
 30
0.0
 11
9.899494936611662
 21
10.60660171779822
 31
0.0
  0
LINE
  5
E11
330
FC2
100
AcDbEntity
  8
0
100
AcDbLine
 10
10.60660171779822
 20
11.31370849898477
 30
0.0
 11
15.20279579551077
 21
15.90990257669732
 31
0.0
  0
LINE
  5
E18
330
FC2
100
AcDbEntity
  8
0
100
AcDbLine
 10
15.90990257669732
 20
16.61700935788388
 30
0.0
 11
20.85965004500314
 21
21.5667568261897
 31
0.0
  0
LINE
  5
C2D
330
FC2
100
AcDbEntity
  8
0
100
AcDbLine
 10
-20.85965004500315
 20
-21.5667568261897
 30
0.0
 11
-15.90990257669733
 21
-16.61700935788387
 31
0.0
  0
LINE
  5
C63
330
FC2
100
AcDbEntity
  8
0
100
AcDbLine
 10
-15.20279579551077
 20
-15.90990257669732
 30
0.0
 11
-10.60660171779821
 21
-11.31370849898476
 31
0.0
  0
LINE
  5
CAD
330
FC2
100
AcDbEntity
  8
0
100
AcDbLine
 10
-9.899494936611662
 20
-10.60660171779821
 30
0.0
 11
-5.303300858899108
 21
-6.010407640085657
 31
0.0
  0
LINE
  5
D1F
330
FC2
100
AcDbEntity
  8
0
100
AcDbLine
 10
-4.596194077712559
 20
-5.303300858899108
 30
0.0
 11
-0.0000000000000044
 21
-0.707106781186555
 31
0.0
  0
LINE
  5
DE3
330
FC2
100
AcDbEntity
  8
0
100
AcDbLine
 10
6.010407640085656
 20
5.303300858899105
 30
0.0
 11
10.60660171779822
 21
9.899494936611662
 31
0.0
  0
LINE
  5
E0C
330
FC2
100
AcDbEntity
  8
0
100
AcDbLine
 10
16.61700935788387
 20
15.90990257669732
 30
0.0
 11
21.5667568261897
 21
20.85965004500315
 31
0.0
  0
LINE
  5
E0F
330
FC2
100
AcDbEntity
  8
0
100
AcDbLine
 10
11.31370849898477
 20
10.60660171779821
 30
0.0
 11
15.90990257669732
 21
15.20279579551077
 31
0.0
  0
LINE
  5
E2A
330
FC2
100
AcDbEntity
  8
0
100
AcDbLine
 10
0.70710678118655
 20
-0.0000000000000007
 30
0.0
 11
5.303300858899108
 21
4.596194077712556
 31
0.0
  0
LINE
  5
C29
330
FC2
100
AcDbEntity
  8
0
100
AcDbLine
 10
-16.2634559672906
 20
-26.16295090390226
 30
0.0
 11
-11.31370849898477
 21
-21.21320343559643
 31
0.0
  0
LINE
  5
C71
330
FC2
100
AcDbEntity
  8
0
100
AcDbLine
 10
-10.60660171779822
 20
-20.50609665440988
 30
0.0
 11
-6.010407640085658
 21
-15.90990257669732
 31
0.0
  0
LINE
  5
CA5
330
FC2
100
AcDbEntity
  8
0
100
AcDbLine
 10
-5.303300858899106
 20
-15.20279579551077
 30
0.0
 11
-0.7071067811865541
 21
-10.60660171779822
 31
0.0
  0
LINE
  5
D37
330
FC2
100
AcDbEntity
  8
0
100
AcDbLine
 10
-0.0000000000000027
 20
-9.899494936611664
 30
0.0
 11
4.596194077712551
 21
-5.303300858899111
 31
0.0
  0
LINE
  5
D87
330
FC2
100
AcDbEntity
  8
0
100
AcDbLine
 10
5.303300858899105
 20
-4.596194077712557
 30
0.0
 11
9.899494936611664
 21
-0.0000000000000009
 31
0.0
  0
LINE
  5
DEB
330
FC2
100
AcDbEntity
  8
0
100
AcDbLine
 10
10.60660171779821
 20
0.7071067811865497
 30
0.0
 11
15.20279579551077
 21
5.303300858899103
 31
0.0
  0
LINE
  5
DFD
330
FC2
100
AcDbEntity
  8
0
100
AcDbLine
 10
15.90990257669732
 20
6.010407640085656
 30
0.0
 11
20.50609665440988
 21
10.60660171779821
 31
0.0
  0
LINE
  5
E04
330
FC2
100
AcDbEntity
  8
0
100
AcDbLine
 10
21.21320343559643
 20
11.31370849898476
 30
0.0
 11
26.16295090390226
 21
16.2634559672906
 31
0.0
  0
LINE
  5
C1D
330
FC2
100
AcDbEntity
  8
0
100
AcDbLine
 10
-14.98690156370863
 20
-26.30061006269339
 30
0.0
 11
-10.60660171779822
 21
-21.92031021678297
 31
0.0
  0
LINE
  5
C73
330
FC2
100
AcDbEntity
  8
0
100
AcDbLine
 10
-9.899494936611669
 20
-21.21320343559643
 30
0.0
 11
-5.30330085889911
 21
-16.61700935788387
 31
0.0
  0
LINE
  5
CA7
330
FC2
100
AcDbEntity
  8
0
100
AcDbLine
 10
-4.596194077712559
 20
-15.90990257669732
 30
0.0
 11
-0.0000000000000053
 21
-11.31370849898476
 31
0.0
  0
LINE
  5
D33
330
FC2
100
AcDbEntity
  8
0
100
AcDbLine
 10
0.7071067811865461
 20
-10.60660171779821
 30
0.0
 11
5.3033008588991
 21
-6.010407640085659
 31
0.0
  0
LINE
  5
D7B
330
FC2
100
AcDbEntity
  8
0
100
AcDbLine
 10
6.010407640085654
 20
-5.303300858899106
 30
0.0
 11
10.60660171779821
 21
-0.7071067811865497
 31
0.0
  0
LINE
  5
DED
330
FC2
100
AcDbEntity
  8
0
100
AcDbLine
 10
11.31370849898476
 20
0.000000000000002
 30
0.0
 11
15.90990257669732
 21
4.596194077712556
 31
0.0
  0
LINE
  5
DFB
330
FC2
100
AcDbEntity
  8
0
100
AcDbLine
 10
16.61700935788387
 20
5.303300858899108
 30
0.0
 11
21.21320343559643
 21
9.899494936611665
 31
0.0
  0
LINE
  5
E06
330
FC2
100
AcDbEntity
  8
0
100
AcDbLine
 10
21.92031021678298
 20
10.60660171779821
 30
0.0
 11
26.30061006269339
 21
14.98690156370863
 31
0.0
  0
LINE
  5
B9B
330
FC2
100
AcDbEntity
  8
0
100
AcDbLine
 10
21.21320343559643
 20
0.707106781186544
 30
0.0
 11
21.46417386193861
 21
0.9580772075287263
 31
0.0
  0
LINE
  5
BBB
330
FC2
100
AcDbEntity
  8
0
100
AcDbLine
 10
-0.9580772075287136
 20
-21.46417386193859
 30
0.0
 11
-0.7071067811865492
 21
-21.21320343559643
 31
0.0
  0
LINE
  5
C93
330
FC2
100
AcDbEntity
  8
0
100
AcDbLine
 10
-0.0000000000000016
 20
-20.50609665440988
 30
0.0
 11
4.596194077712554
 21
-15.90990257669733
 31
0.0
  0
LINE
  5
D39
330
FC2
100
AcDbEntity
  8
0
100
AcDbLine
 10
5.303300858899107
 20
-15.20279579551077
 30
0.0
 11
9.89949493661166
 21
-10.60660171779822
 31
0.0
  0
LINE
  5
D72
330
FC2
100
AcDbEntity
  8
0
100
AcDbLine
 10
15.90990257669732
 20
-4.596194077712559
 30
0.0
 11
20.50609665440988
 21
0.0
 31
0.0
  0
LINE
  5
D77
330
FC2
100
AcDbEntity
  8
0
100
AcDbLine
 10
10.60660171779822
 20
-9.899494936611665
 30
0.0
 11
15.20279579551077
 21
-5.303300858899111
 31
0.0
  0
LINE
  5
C91
330
FC2
100
AcDbEntity
  8
0
100
AcDbLine
 10
0.7071067811865426
 20
-21.21320343559643
 30
0.0
 11
5.303300858899105
 21
-16.61700935788387
 31
0.0
  0
LINE
  5
D3D
330
FC2
100
AcDbEntity
  8
0
100
AcDbLine
 10
6.010407640085655
 20
-15.90990257669732
 30
0.0
 11
10.60660171779821
 21
-11.31370849898477
 31
0.0
  0
LINE
  5
D6B
330
FC2
100
AcDbEntity
  8
0
100
AcDbLine
 10
11.31370849898476
 20
-10.60660171779822
 30
0.0
 11
15.90990257669732
 21
-6.01040764008566
 31
0.0
  0
LINE
  5
D70
330
FC2
100
AcDbEntity
  8
0
100
AcDbLine
 10
16.61700935788387
 20
-5.303300858899108
 30
0.0
 11
21.21320343559644
 21
-0.7071067811865461
 31
0.0
  0
LINE
  5
C81
330
FC2
100
AcDbEntity
  8
0
100
AcDbLine
 10
7.015432997818607
 20
-24.09726537438948
 30
0.0
 11
9.899494936611658
 21
-21.21320343559643
 31
0.0
  0
LINE
  5
D49
330
FC2
100
AcDbEntity
  8
0
100
AcDbLine
 10
10.60660171779821
 20
-20.50609665440987
 30
0.0
 11
15.20279579551076
 21
-15.90990257669733
 31
0.0
  0
LINE
  5
D62
330
FC2
100
AcDbEntity
  8
0
100
AcDbLine
 10
21.21320343559643
 20
-9.899494936611664
 30
0.0
 11
24.09726537438948
 21
-7.015432997818607
 31
0.0
  0
LINE
  5
D67
330
FC2
100
AcDbEntity
  8
0
100
AcDbLine
 10
15.90990257669732
 20
-15.20279579551077
 30
0.0
 11
20.50609665440988
 21
-10.60660171779821
 31
0.0
  0
LINE
  5
C7B
330
FC2
100
AcDbEntity
  8
0
100
AcDbLine
 10
8.20726168313379
 20
-24.3196502514474
 30
0.0
 11
10.60660171779821
 21
-21.92031021678298
 31
0.0
  0
LINE
  5
D4B
330
FC2
100
AcDbEntity
  8
0
100
AcDbLine
 10
11.31370849898476
 20
-21.21320343559643
 30
0.0
 11
15.90990257669731
 21
-16.61700935788388
 31
0.0
  0
LINE
  5
D59
330
FC2
100
AcDbEntity
  8
0
100
AcDbLine
 10
16.61700935788387
 20
-15.90990257669732
 30
0.0
 11
21.21320343559643
 21
-11.31370849898476
 31
0.0
  0
LINE
  5
D60
330
FC2
100
AcDbEntity
  8
0
100
AcDbLine
 10
21.92031021678298
 20
-10.60660171779821
 30
0.0
 11
24.31965025144738
 21
-8.207261683133808
 31
0.0
  0
LINE
  5
CF0
330
FC2
100
AcDbEntity
  8
0
100
AcDbLine
 10
-15.90990257669732
 20
16.61700935788387
 30
0.0
 11
-20.85965004500315
 21
21.5667568261897
 31
0.0
  0
LINE
  5
D0A
330
FC2
100
AcDbEntity
  8
0
100
AcDbLine
 10
-10.60660171779821
 20
11.31370849898476
 30
0.0
 11
-15.20279579551077
 21
15.90990257669733
 31
0.0
  0
LINE
  5
D0C
330
FC2
100
AcDbEntity
  8
0
100
AcDbLine
 10
-5.30330085889911
 20
6.010407640085663
 30
0.0
 11
-9.899494936611664
 21
10.60660171779822
 31
0.0
  0
LINE
  5
D26
330
FC2
100
AcDbEntity
  8
0
100
AcDbLine
 10
-0.0000000000000028
 20
0.7071067811865529
 30
0.0
 11
-4.59619407771256
 21
5.303300858899114
 31
0.0
  0
LINE
  5
D2A
330
FC2
100
AcDbEntity
  8
0
100
AcDbLine
 10
5.303300858899103
 20
-4.596194077712553
 30
0.0
 11
0.7071067811865497
 21
0.0
 31
0.0
  0
LINE
  5
D48
330
FC2
100
AcDbEntity
  8
0
100
AcDbLine
 10
10.60660171779822
 20
-9.899494936611667
 30
0.0
 11
6.010407640085656
 21
-5.303300858899107
 31
0.0
  0
LINE
  5
D51
330
FC2
100
AcDbEntity
  8
0
100
AcDbLine
 10
21.5667568261897
 20
-20.85965004500316
 30
0.0
 11
16.61700935788387
 21
-15.90990257669732
 31
0.0
  0
LINE
  5
D58
330
FC2
100
AcDbEntity
  8
0
100
AcDbLine
 10
15.90990257669732
 20
-15.20279579551077
 30
0.0
 11
11.31370849898476
 21
-10.60660171779822
 31
0.0
  0
LINE
  5
CEE
330
FC2
100
AcDbEntity
  8
0
100
AcDbLine
 10
-16.61700935788387
 20
15.90990257669732
 30
0.0
 11
-21.5667568261897
 21
20.85965004500315
 31
0.0
  0
LINE
  5
CFC
330
FC2
100
AcDbEntity
  8
0
100
AcDbLine
 10
-11.31370849898477
 20
10.60660171779821
 30
0.0
 11
-15.90990257669733
 21
15.20279579551077
 31
0.0
  0
LINE
  5
D1A
330
FC2
100
AcDbEntity
  8
0
100
AcDbLine
 10
-6.010407640085662
 20
5.303300858899101
 30
0.0
 11
-10.60660171779822
 21
9.89949493661166
 31
0.0
  0
LINE
  5
D1C
330
FC2
100
AcDbEntity
  8
0
100
AcDbLine
 10
-0.7071067811865603
 20
0.0
 30
0.0
 11
-5.303300858899114
 21
4.596194077712553
 31
0.0
  0
LINE
  5
D36
330
FC2
100
AcDbEntity
  8
0
100
AcDbLine
 10
4.596194077712551
 20
-5.303300858899111
 30
0.0
 11
-0.0000000000000036
 21
-0.7071067811865568
 31
0.0
  0
LINE
  5
D3C
330
FC2
100
AcDbEntity
  8
0
100
AcDbLine
 10
9.89949493661166
 20
-10.60660171779822
 30
0.0
 11
5.303300858899101
 21
-6.010407640085662
 31
0.0
  0
LINE
  5
D4E
330
FC2
100
AcDbEntity
  8
0
100
AcDbLine
 10
15.20279579551077
 20
-15.90990257669733
 30
0.0
 11
10.60660171779821
 21
-11.31370849898477
 31
0.0
  0
LINE
  5
D4F
330
FC2
100
AcDbEntity
  8
0
100
AcDbLine
 10
20.85965004500315
 20
-21.56675682618971
 30
0.0
 11
15.90990257669732
 21
-16.61700935788388
 31
0.0
  0
LINE
  5
C87
330
FC2
100
AcDbEntity
  8
0
100
AcDbLine
 10
16.2634559672906
 20
-26.16295090390226
 30
0.0
 11
11.31370849898476
 21
-21.21320343559643
 31
0.0
  0
LINE
  5
C8B
330
FC2
100
AcDbEntity
  8
0
100
AcDbLine
 10
10.60660171779821
 20
-20.50609665440988
 30
0.0
 11
6.010407640085655
 21
-15.90990257669732
 31
0.0
  0
LINE
  5
C9B
330
FC2
100
AcDbEntity
  8
0
100
AcDbLine
 10
5.303300858899106
 20
-15.20279579551077
 30
0.0
 11
0.7071067811865452
 21
-10.60660171779821
 31
0.0
  0
LINE
  5
CAF
330
FC2
100
AcDbEntity
  8
0
100
AcDbLine
 10
-0.000000000000005
 20
-9.899494936611664
 30
0.0
 11
-4.59619407771256
 21
-5.303300858899108
 31
0.0
  0
LINE
  5
CBF
330
FC2
100
AcDbEntity
  8
0
100
AcDbLine
 10
-5.303300858899111
 20
-4.596194077712557
 30
0.0
 11
-9.899494936611667
 21
-0.0000000000000009
 31
0.0
  0
LINE
  5
CCF
330
FC2
100
AcDbEntity
  8
0
100
AcDbLine
 10
-10.60660171779822
 20
0.7071067811865488
 30
0.0
 11
-15.20279579551077
 21
5.303300858899107
 31
0.0
  0
LINE
  5
CDF
330
FC2
100
AcDbEntity
  8
0
100
AcDbLine
 10
-15.90990257669732
 20
6.010407640085655
 30
0.0
 11
-20.50609665440988
 21
10.60660171779821
 31
0.0
  0
LINE
  5
CE6
330
FC2
100
AcDbEntity
  8
0
100
AcDbLine
 10
-21.21320343559643
 20
11.31370849898476
 30
0.0
 11
-26.16295090390226
 21
16.2634559672906
 31
0.0
  0
LINE
  5
C7D
330
FC2
100
AcDbEntity
  8
0
100
AcDbLine
 10
14.98690156370863
 20
-26.3006100626934
 30
0.0
 11
10.60660171779821
 21
-21.92031021678298
 31
0.0
  0
LINE
  5
C8F
330
FC2
100
AcDbEntity
  8
0
100
AcDbLine
 10
9.899494936611658
 20
-21.21320343559643
 30
0.0
 11
5.303300858899103
 21
-16.61700935788387
 31
0.0
  0
LINE
  5
CA9
330
FC2
100
AcDbEntity
  8
0
100
AcDbLine
 10
4.596194077712555
 20
-15.90990257669732
 30
0.0
 11
-0.0000000000000027
 21
-11.31370849898476
 31
0.0
  0
LINE
  5
CAB
330
FC2
100
AcDbEntity
  8
0
100
AcDbLine
 10
-0.7071067811865541
 20
-10.60660171779821
 30
0.0
 11
-5.303300858899108
 21
-6.010407640085658
 31
0.0
  0
LINE
  5
CBB
330
FC2
100
AcDbEntity
  8
0
100
AcDbLine
 10
-6.010407640085661
 20
-5.303300858899106
 30
0.0
 11
-10.60660171779822
 21
-0.7071067811865506
 31
0.0
  0
LINE
  5
CCB
330
FC2
100
AcDbEntity
  8
0
100
AcDbLine
 10
-11.31370849898477
 20
0.0000000000000004
 30
0.0
 11
-15.90990257669732
 21
4.596194077712555
 31
0.0
  0
LINE
  5
CDB
330
FC2
100
AcDbEntity
  8
0
100
AcDbLine
 10
-16.61700935788387
 20
5.303300858899105
 30
0.0
 11
-21.21320343559643
 21
9.899494936611664
 31
0.0
  0
LINE
  5
CE8
330
FC2
100
AcDbEntity
  8
0
100
AcDbLine
 10
-21.92031021678298
 20
10.60660171779821
 30
0.0
 11
-26.30061006269339
 21
14.98690156370863
 31
0.0
  0
LINE
  5
BB4
330
FC2
100
AcDbEntity
  8
0
100
AcDbLine
 10
-21.21320343559643
 20
0.7071067811865481
 30
0.0
 11
-21.46417386193873
 21
0.9580772075288522
 31
0.0
  0
LINE
  5
BC6
330
FC2
100
AcDbEntity
  8
0
100
AcDbLine
 10
0.9580772075286497
 20
-21.46417386193853
 30
0.0
 11
0.7071067811865532
 21
-21.21320343559643
 31
0.0
  0
LINE
  5
C5A
330
FC2
100
AcDbEntity
  8
0
100
AcDbLine
 10
-15.90990257669732
 20
-4.596194077712553
 30
0.0
 11
-20.50609665440988
 21
0.0000000000000071
 31
0.0
  0
LINE
  5
C5C
330
FC2
100
AcDbEntity
  8
0
100
AcDbLine
 10
-10.60660171779822
 20
-9.899494936611662
 30
0.0
 11
-15.20279579551077
 21
-5.303300858899107
 31
0.0
  0
LINE
  5
C6C
330
FC2
100
AcDbEntity
  8
0
100
AcDbLine
 10
-5.303300858899106
 20
-15.20279579551077
 30
0.0
 11
-9.899494936611664
 21
-10.60660171779821
 31
0.0
  0
LINE
  5
C77
330
FC2
100
AcDbEntity
  8
0
100
AcDbLine
 10
-0.0000000000000036
 20
-20.50609665440987
 30
0.0
 11
-4.596194077712558
 21
-15.90990257669732
 31
0.0
  0
LINE
  5
C4C
330
FC2
100
AcDbEntity
  8
0
100
AcDbLine
 10
-16.61700935788387
 20
-5.303300858899107
 30
0.0
 11
-21.21320343559643
 21
-0.707106781186539
 31
0.0
  0
LINE
  5
C60
330
FC2
100
AcDbEntity
  8
0
100
AcDbLine
 10
-11.31370849898477
 20
-10.60660171779821
 30
0.0
 11
-15.90990257669732
 21
-6.010407640085656
 31
0.0
  0
LINE
  5
C70
330
FC2
100
AcDbEntity
  8
0
100
AcDbLine
 10
-6.010407640085656
 20
-15.90990257669732
 30
0.0
 11
-10.60660171779821
 21
-11.31370849898476
 31
0.0
  0
LINE
  5
C75
330
FC2
100
AcDbEntity
  8
0
100
AcDbLine
 10
-0.7071067811865426
 20
-21.21320343559643
 30
0.0
 11
-5.303300858899108
 21
-16.61700935788387
 31
0.0
  0
LINE
  5
C1F
330
FC2
100
AcDbEntity
  8
0
100
AcDbLine
 10
-7.015432997818618
 20
-24.09726537438948
 30
0.0
 11
-9.899494936611669
 21
-21.21320343559643
 31
0.0
  0
LINE
  5
C33
330
FC2
100
AcDbEntity
  8
0
100
AcDbLine
 10
-10.60660171779822
 20
-20.50609665440988
 30
0.0
 11
-15.20279579551077
 21
-15.90990257669732
 31
0.0
  0
LINE
  5
C3B
330
FC2
100
AcDbEntity
  8
0
100
AcDbLine
 10
-15.90990257669733
 20
-15.20279579551077
 30
0.0
 11
-20.50609665440988
 21
-10.60660171779821
 31
0.0
  0
LINE
  5
C42
330
FC2
100
AcDbEntity
  8
0
100
AcDbLine
 10
-21.21320343559643
 20
-9.89949493661166
 30
0.0
 11
-24.09726537438948
 21
-7.015432997818611
 31
0.0
  0
LINE
  5
C1B
330
FC2
100
AcDbEntity
  8
0
100
AcDbLine
 10
-8.207261683133801
 20
-24.31965025144739
 30
0.0
 11
-10.60660171779822
 21
-21.92031021678297
 31
0.0
  0
LINE
  5
C2B
330
FC2
100
AcDbEntity
  8
0
100
AcDbLine
 10
-11.31370849898477
 20
-21.21320343559643
 30
0.0
 11
-15.90990257669732
 21
-16.61700935788387
 31
0.0
  0
LINE
  5
C44
330
FC2
100
AcDbEntity
  8
0
100
AcDbLine
 10
-21.92031021678298
 20
-10.60660171779821
 30
0.0
 11
-24.31965025144741
 21
-8.207261683133783
 31
0.0
  0
LINE
  5
C49
330
FC2
100
AcDbEntity
  8
0
100
AcDbLine
 10
-16.61700935788387
 20
-15.90990257669732
 30
0.0
 11
-21.21320343559643
 21
-11.31370849898476
 31
0.0
  0
LINE
  5
D5B
330
FC2
100
AcDbEntity
  8
0
100
AcDbLine
 10
26.16295090390226
 20
-16.2634559672906
 30
0.0
 11
21.21320343559643
 21
-11.31370849898476
 31
0.0
  0
LINE
  5
D69
330
FC2
100
AcDbEntity
  8
0
100
AcDbLine
 10
20.50609665440988
 20
-10.60660171779822
 30
0.0
 11
15.90990257669732
 21
-6.010407640085661
 31
0.0
  0
LINE
  5
D79
330
FC2
100
AcDbEntity
  8
0
100
AcDbLine
 10
15.20279579551077
 20
-5.303300858899111
 30
0.0
 11
10.60660171779821
 21
-0.707106781186547
 31
0.0
  0
LINE
  5
D89
330
FC2
100
AcDbEntity
  8
0
100
AcDbLine
 10
9.899494936611664
 20
-0.0000000000000008
 30
0.0
 11
5.303300858899107
 21
4.596194077712556
 31
0.0
  0
LINE
  5
D99
330
FC2
100
AcDbEntity
  8
0
100
AcDbLine
 10
4.596194077712553
 20
5.303300858899108
 30
0.0
 11
-0.0000000000000027
 21
9.899494936611664
 31
0.0
  0
LINE
  5
DA9
330
FC2
100
AcDbEntity
  8
0
100
AcDbLine
 10
-0.7071067811865522
 20
10.60660171779821
 30
0.0
 11
-5.303300858899107
 21
15.20279579551077
 31
0.0
  0
LINE
  5
DB9
330
FC2
100
AcDbEntity
  8
0
100
AcDbLine
 10
-6.010407640085655
 20
15.90990257669732
 30
0.0
 11
-10.60660171779821
 21
20.50609665440987
 31
0.0
  0
LINE
  5
DC6
330
FC2
100
AcDbEntity
  8
0
100
AcDbLine
 10
-11.31370849898477
 20
21.21320343559643
 30
0.0
 11
-16.2634559672906
 21
26.16295090390226
 31
0.0
  0
LINE
  5
D5D
330
FC2
100
AcDbEntity
  8
0
100
AcDbLine
 10
26.30061006269339
 20
-14.98690156370863
 30
0.0
 11
21.92031021678297
 21
-10.60660171779821
 31
0.0
  0
LINE
  5
D6D
330
FC2
100
AcDbEntity
  8
0
100
AcDbLine
 10
21.21320343559642
 20
-9.899494936611664
 30
0.0
 11
16.61700935788387
 21
-5.303300858899112
 31
0.0
  0
LINE
  5
D7D
330
FC2
100
AcDbEntity
  8
0
100
AcDbLine
 10
15.90990257669732
 20
-4.59619407771256
 30
0.0
 11
11.31370849898476
 21
0.0000000000000018
 31
0.0
  0
LINE
  5
D8D
330
FC2
100
AcDbEntity
  8
0
100
AcDbLine
 10
10.60660171779821
 20
0.707106781186549
 30
0.0
 11
6.010407640085656
 21
5.303300858899104
 31
0.0
  0
LINE
  5
D9D
330
FC2
100
AcDbEntity
  8
0
100
AcDbLine
 10
5.303300858899101
 20
6.010407640085659
 30
0.0
 11
0.7071067811865479
 21
10.60660171779821
 31
0.0
  0
LINE
  5
DAD
330
FC2
100
AcDbEntity
  8
0
100
AcDbLine
 10
-0.0000000000000018
 20
11.31370849898476
 30
0.0
 11
-4.596194077712559
 21
15.90990257669732
 31
0.0
  0
LINE
  5
DBD
330
FC2
100
AcDbEntity
  8
0
100
AcDbLine
 10
-5.303300858899105
 20
16.61700935788387
 30
0.0
 11
-9.899494936611664
 21
21.21320343559643
 31
0.0
  0
LINE
  5
DC4
330
FC2
100
AcDbEntity
  8
0
100
AcDbLine
 10
-10.60660171779821
 20
21.92031021678298
 30
0.0
 11
-14.98690156370855
 21
26.30061006269331
 31
0.0
  0
LINE
  5
B8A
330
FC2
100
AcDbEntity
  8
0
100
AcDbLine
 10
-0.7071067811865459
 20
21.21320343559642
 30
0.0
 11
-0.9580772075274737
 21
21.46417386193735
 31
0.0
  0
LINE
  5
B9E
330
FC2
100
AcDbEntity
  8
0
100
AcDbLine
 10
21.46417386193871
 20
-0.958077207528838
 30
0.0
 11
21.21320343559643
 21
-0.7071067811865568
 31
0.0
  0
LINE
  5
DCA
330
FC2
100
AcDbEntity
  8
0
100
AcDbLine
 10
4.596194077712553
 20
15.90990257669732
 30
0.0
 11
-0.0000000000000071
 21
20.50609665440988
 31
0.0
  0
LINE
  5
DE8
330
FC2
100
AcDbEntity
  8
0
100
AcDbLine
 10
9.899494936611662
 20
10.60660171779821
 30
0.0
 11
5.303300858899107
 21
15.20279579551077
 31
0.0
  0
LINE
  5
DEA
330
FC2
100
AcDbEntity
  8
0
100
AcDbLine
 10
15.20279579551077
 20
5.303300858899104
 30
0.0
 11
10.60660171779821
 21
9.899494936611662
 31
0.0
  0
LINE
  5
DEF
330
FC2
100
AcDbEntity
  8
0
100
AcDbLine
 10
20.50609665440988
 20
-0.0000000000000071
 30
0.0
 11
15.90990257669732
 21
4.596194077712556
 31
0.0
  0
LINE
  5
DD8
330
FC2
100
AcDbEntity
  8
0
100
AcDbLine
 10
5.30330085889911
 20
16.61700935788387
 30
0.0
 11
0.7071067811865461
 21
21.21320343559644
 31
0.0
  0
LINE
  5
DDA
330
FC2
100
AcDbEntity
  8
0
100
AcDbLine
 10
10.60660171779821
 20
11.31370849898477
 30
0.0
 11
6.010407640085658
 21
15.90990257669732
 31
0.0
  0
LINE
  5
DF1
330
FC2
100
AcDbEntity
  8
0
100
AcDbLine
 10
21.21320343559643
 20
0.7071067811865426
 30
0.0
 11
16.61700935788387
 21
5.303300858899108
 31
0.0
  0
LINE
  5
DF8
330
FC2
100
AcDbEntity
  8
0
100
AcDbLine
 10
15.90990257669732
 20
6.010407640085657
 30
0.0
 11
11.31370849898477
 21
10.60660171779821
 31
0.0
  0
LINE
  5
DF9
330
FC2
100
AcDbEntity
  8
0
100
AcDbLine
 10
24.09726537438948
 20
7.015432997818611
 30
0.0
 11
21.21320343559643
 21
9.899494936611667
 31
0.0
  0
LINE
  5
E0D
330
FC2
100
AcDbEntity
  8
0
100
AcDbLine
 10
20.50609665440988
 20
10.60660171779822
 30
0.0
 11
15.90990257669732
 21
15.20279579551077
 31
0.0
  0
LINE
  5
E22
330
FC2
100
AcDbEntity
  8
0
100
AcDbLine
 10
9.899494936611667
 20
21.21320343559643
 30
0.0
 11
7.015432997818642
 21
24.09726537438945
 31
0.0
  0
LINE
  5
E27
330
FC2
100
AcDbEntity
  8
0
100
AcDbLine
 10
15.20279579551077
 20
15.90990257669732
 30
0.0
 11
10.60660171779822
 21
20.50609665440988
 31
0.0
  0
LINE
  5
E07
330
FC2
100
AcDbEntity
  8
0
100
AcDbLine
 10
24.3196502514474
 20
8.20726168313379
 30
0.0
 11
21.92031021678298
 21
10.60660171779821
 31
0.0
  0
LINE
  5
E09
330
FC2
100
AcDbEntity
  8
0
100
AcDbLine
 10
21.21320343559643
 20
11.31370849898476
 30
0.0
 11
16.61700935788387
 21
15.90990257669732
 31
0.0
  0
LINE
  5
E19
330
FC2
100
AcDbEntity
  8
0
100
AcDbLine
 10
15.90990257669732
 20
16.61700935788387
 30
0.0
 11
11.31370849898476
 21
21.21320343559643
 31
0.0
  0
LINE
  5
E20
330
FC2
100
AcDbEntity
  8
0
100
AcDbLine
 10
10.60660171779821
 20
21.92031021678298
 30
0.0
 11
8.207261683133808
 21
24.31965025144738
 31
0.0
  0
LINE
  5
B05
330
FC2
100
AcDbEntity
  8
0
100
AcDbLine
 10
-27.04888051187181
 20
-16.79173992169414
 30
0.0
 11
-16.79173992169414
 21
-27.04888051187181
 31
0.0
  0
LINE
  5
AFE
330
FC2
100
AcDbEntity
  8
0
100
AcDbLine
 10
-16.79173992169414
 20
27.0488805118718
 30
0.0
 11
-27.04888051187181
 21
16.79173992169414
 31
0.0
  0
LINE
  5
B01
330
FC2
100
AcDbEntity
  8
0
100
AcDbLine
 10
16.79173992169414
 20
27.04888051187179
 30
0.0
 11
27.0488805118718
 21
16.79173992169414
 31
0.0
  0
LINE
  5
B09
330
FC2
100
AcDbEntity
  8
0
100
AcDbLine
 10
16.79173992169413
 20
-27.04888051187181
 30
0.0
 11
27.04888051187181
 21
-16.79173992169414
 31
0.0
  0
VIEWPORT
  5
108E
330
FBE
100
AcDbEntity
 67
     1
  8
0
100
AcDbViewport
 10
128.5
 20
97.5
 30
0.0
 40
314.226
 41
222.18
 68
     1
 69
     1
 12
128.5
 22
97.5
 13
0.0
 23
0.0
 14
10.0
 24
10.0
 15
10.0
 25
10.0
 16
0.0
 26
0.0
 36
1.0
 17
0.0
 27
0.0
 37
0.0
 42
50.0
 43
0.0
 44
0.0
 45
222.18
 50
0.0
 51
0.0
 72
   100
 90
   557152
  1

281
     0
 71
     1
 74
     0
110
0.0
120
0.0
130
0.0
111
1.0
121
0.0
131
0.0
112
0.0
122
1.0
132
0.0
 79
     0
146
0.0
170
     0
 61
     5
348
FD2
292
     1
282
     1
141
0.0
142
0.0
 63
   256
361
108F
  0
ENDSEC
  0
SECTION
  2
OBJECTS
  0
DICTIONARY
  5
FB0
330
0
100
AcDbDictionary
281
     1
  3
ACAD_DETAILVIEWSTYLE
350
1097
  3
ACAD_GROUP
350
FB1
  3
ACAD_LAYOUT
350
FBD
  3
ACAD_MATERIAL
350
FE6
  3
ACAD_MLEADERSTYLE
350
100E
  3
ACAD_MLINESTYLE
350
FBA
  3
ACAD_PLOTSETTINGS
350
FBC
  3
ACAD_PLOTSTYLENAME
350
FB2
  3
ACAD_SCALELIST
350
FEA
  3
ACAD_SECTIONVIEWSTYLE
350
1098
  3
ACAD_TABLESTYLE
350
100C
  3
ACAD_VISUALSTYLE
350
FCD
  3
ACDB_RECOMPOSE_DATA
350
1094
  3
AcDbVariableDictionary
350
1090
  3
QCAD_OBJECTS
350
1012
  0
SUN
  5
1010
330
FCC
100
AcDbSun
 90
        1
290
     0
 63
     7
421
 16777215
 40
1.0
291
     1
 91
  2455826
 92
 54000000
292
     0
 70
     2
 71
   256
280
     1
  0
SUN
  5
108F
330
108E
100
AcDbSun
 90
        1
290
     0
 63
     7
421
 16777215
 40
1.0
291
     1
 91
  2455826
 92
 54000000
292
     0
 70
     2
 71
   256
280
     1
  0
DICTIONARY
  5
1097
102
{ACAD_REACTORS
330
FB0
102
}
330
FB0
100
AcDbDictionary
281
     1
  0
DICTIONARY
  5
FB1
102
{ACAD_REACTORS
330
FB0
102
}
330
FB0
100
AcDbDictionary
281
     1
  0
DICTIONARY
  5
FBD
102
{ACAD_REACTORS
330
FB0
102
}
330
FB0
100
AcDbDictionary
281
     1
  3
Layout1
350
FC1
  3
Model
350
FC5
  0
DICTIONARY
  5
FE6
102
{ACAD_REACTORS
330
FB0
102
}
330
FB0
100
AcDbDictionary
281
     1
  3
ByBlock
350
FE8
  3
ByLayer
350
FE7
  3
Global
350
FE9
  0
DICTIONARY
  5
100E
102
{ACAD_REACTORS
330
FB0
102
}
330
FB0
100
AcDbDictionary
281
     1
  3
Standard
350
100F
  0
DICTIONARY
  5
FBA
102
{ACAD_REACTORS
330
FB0
102
}
330
FB0
100
AcDbDictionary
281
     1
  3
Standard
350
FBB
  0
DICTIONARY
  5
FBC
102
{ACAD_REACTORS
330
FB0
102
}
330
FB0
100
AcDbDictionary
281
     1
  0
ACDBDICTIONARYWDFLT
  5
FB2
102
{ACAD_REACTORS
330
FB0
102
}
330
FB0
100
AcDbDictionary
281
     1
  3
Normal
350
FB3
100
AcDbDictionaryWithDefault
340
FB3
  0
DICTIONARY
  5
FEA
102
{ACAD_REACTORS
330
FB0
102
}
330
FB0
100
AcDbDictionary
281
     1
  3
A0
350
FEB
  3
A1
350
FEC
  3
A2
350
FED
  3
A3
350
FEE
  3
A4
350
FEF
  3
A5
350
FF0
  3
A6
350
FF1
  3
A7
350
FF2
  3
A8
350
FF3
  3
A9
350
FF4
  3
B0
350
FF5
  3
B1
350
FF6
  3
B2
350
FF7
  3
B3
350
FF8
  3
B4
350
FF9
  3
B5
350
FFA
  3
B6
350
FFB
  3
B7
350
FFC
  3
B8
350
FFD
  3
B9
350
FFE
  3
C0
350
FFF
  3
C1
350
1000
  3
C2
350
1001
  3
C3
350
1002
  3
C4
350
1003
  3
C5
350
1004
  3
C6
350
1005
  3
C7
350
1006
  3
C8
350
1007
  3
C9
350
1008
  3
D0
350
1009
  3
D1
350
100A
  3
D2
350
100B
  0
DICTIONARY
  5
1098
102
{ACAD_REACTORS
330
FB0
102
}
330
FB0
100
AcDbDictionary
281
     1
  0
DICTIONARY
  5
100C
102
{ACAD_REACTORS
330
FB0
102
}
330
FB0
100
AcDbDictionary
281
     1
  3
Standard
350
100D
  0
DICTIONARY
  5
FCD
102
{ACAD_REACTORS
330
FB0
102
}
330
FB0
100
AcDbDictionary
281
     1
  3
2dWireframe
350
FD2
  3
Basic
350
FD5
  3
Brighten
350
FD9
  3
ColorChange
350
FDD
  3
Conceptual
350
FD7
  3
Dim
350
FD8
  3
EdgeColorOff
350
FE0
  3
Facepattern
350
FDC
  3
Flat
350
FCE
  3
FlatWithEdges
350
FCF
  3
Gouraud
350
FD0
  3
GouraudWithEdges
350
FD1
  3
Hidden
350
FD4
  3
JitterOff
350
FDE
  3
Linepattern
350
FDB
  3
OverhangOff
350
FDF
  3
Realistic
350
FD6
  3
Shaded
350
FE5
  3
Shaded with edges
350
FE4
  3
Shades of Gray
350
FE1
  3
Sketchy
350
FE2
  3
Thicken
350
FDA
  3
Wireframe
350
FD3
  3
X-Ray
350
FE3
  0
XRECORD
  5
1094
102
{ACAD_REACTORS
330
FB0
102
}
330
FB0
100
AcDbXrecord
280
     1
 90
        1
330
100D
  0
DICTIONARY
  5
1090
102
{ACAD_REACTORS
330
FB0
102
}
330
FB0
100
AcDbDictionary
281
     1
  3
CANNOSCALE
350
1091
  3
CMLEADERSTYLE
350
1096
  3
CTABLESTYLE
350
1095
  0
DICTIONARY
  5
1012
102
{ACAD_REACTORS
330
FB0
102
}
330
FB0
100
AcDbDictionary
281
     1
  3
CamExport/ConfigV2
350
1014
  3
ColorSettings/BackgroundColor
350
1015
  3
ColorSettings/ColorMode
350
1016
  3
Grid/DisplayGrid00
350
1017
  3
Grid/DisplayGrid01
350
1018
  3
Grid/DisplayGrid02
350
1019
  3
Grid/DisplayGrid03
350
101A
  3
Grid/GridSpacingX00
350
101B
  3
Grid/GridSpacingX01
350
101C
  3
Grid/GridSpacingX02
350
101D
  3
Grid/GridSpacingX03
350
101E
  3
Grid/GridSpacingY00
350
101F
  3
Grid/GridSpacingY01
350
1020
  3
Grid/GridSpacingY02
350
1021
  3
Grid/GridSpacingY03
350
1022
  3
Grid/IsometricGrid00
350
1023
  3
Grid/IsometricGrid01
350
1024
  3
Grid/IsometricGrid02
350
1025
  3
Grid/IsometricGrid03
350
1026
  3
Grid/IsometricProjection00
350
1027
  3
Grid/IsometricProjection01
350
1028
  3
Grid/IsometricProjection02
350
1029
  3
Grid/IsometricProjection03
350
102A
  3
Grid/MetaGridSpacingX00
350
102B
  3
Grid/MetaGridSpacingX01
350
102C
  3
Grid/MetaGridSpacingX02
350
102D
  3
Grid/MetaGridSpacingX03
350
102E
  3
Grid/MetaGridSpacingY00
350
102F
  3
Grid/MetaGridSpacingY01
350
1030
  3
Grid/MetaGridSpacingY02
350
1031
  3
Grid/MetaGridSpacingY03
350
1032
  3
MultiPageSettings/Columns
350
1033
  3
MultiPageSettings/GlueMarginsBottom
350
1034
  3
MultiPageSettings/GlueMarginsLeft
350
1035
  3
MultiPageSettings/GlueMarginsRight
350
1036
  3
MultiPageSettings/GlueMarginsTop
350
1037
  3
MultiPageSettings/PrintCropMarks
350
1038
  3
MultiPageSettings/Rows
350
1039
  3
PageSettings/OffsetX
350
103A
  3
PageSettings/OffsetY
350
103B
  3
PageSettings/PageOrientation
350
103C
  3
PageSettings/PaperHeight
350
103D
  3
PageSettings/PaperWidth
350
103E
  3
PageSettings/Scale
350
103F
  3
PageSettings/ShowPaperBorders
350
1040
  3
PageTagSettings/EnablePageTags
350
1041
  3
PageTagSettings/TagAlignment
350
1042
  3
PageTagSettings/TagFont
350
1043
  3
PageTagSettings/TagPosition
350
1044
  3
QCADVersion
350
1045
  3
UnitSettings/PaperUnit
350
1046
  3
ViewportCenter
350
1047
  3
ViewportHeight
350
1048
  3
ViewportWidth
350
1049
  0
LAYOUT
  5
FC1
102
{ACAD_REACTORS
330
FBD
102
}
330
FBD
100
AcDbPlotSettings
  1

  2
none_device
  4
ISO_A4_(210.00_x_297.00_MM)
  6

 40
7.5
 41
20.0
 42
7.5
 43
20.0
 44
210.0
 45
297.0
 46
0.0
 47
0.0
 48
0.0
 49
0.0
140
0.0
141
0.0
142
1.0
143
1.0
 70
   688
 72
     1
 73
     1
 74
     5
  7

 75
    16
 76
     0
 77
     2
 78
   300
147
1.0
148
0.0
149
0.0
100
AcDbLayout
  1
Layout1
 70
     1
 71
     0
 10
-20.0
 20
-7.5
 11
277.0
 21
202.5
 12
0.0
 22
0.0
 32
0.0
 14
0.0
 24
0.0
 34
0.0
 15
0.0
 25
0.0
 35
0.0
146
0.0
 13
0.0
 23
0.0
 33
0.0
 16
1.0
 26
0.0
 36
0.0
 17
0.0
 27
1.0
 37
0.0
 76
     0
330
FBE
331
108E
  0
LAYOUT
  5
FC5
102
{ACAD_REACTORS
330
FBD
102
}
330
FBD
100
AcDbPlotSettings
  1

  2
none_device
  4
Letter_(8.50_x_11.00_Inches)
  6

 40
6.35
 41
6.35
 42
6.35000508
 43
6.35000508
 44
215.9
 45
279.4
 46
0.0
 47
0.0
 48
0.0
 49
0.0
140
0.0
141
0.0
142
1.0
143
1.0
 70
  1712
 72
     0
 73
     0
 74
     0
  7

 75
     0
 76
     0
 77
     2
 78
   300
147
1.0
148
0.0
149
0.0
100
AcDbLayout
  1
Model
 70
     1
 71
     0
 10
0.0
 20
0.0
 11
12.0
 21
9.0
 12
0.0
 22
0.0
 32
0.0
 14
-108.75
 24
-108.75
 34
0.0
 15
108.75
 25
108.75
 35
0.0
146
0.0
 13
0.0
 23
0.0
 33
0.0
 16
1.0
 26
0.0
 36
0.0
 17
0.0
 27
1.0
 37
0.0
 76
     0
330
FC2
331
FCC
  0
MATERIAL
  5
FE8
102
{ACAD_REACTORS
330
FE6
102
}
330
FE6
100
AcDbMaterial
  1
ByBlock
 72
     1
 94
      127
  0
MATERIAL
  5
FE7
102
{ACAD_REACTORS
330
FE6
102
}
330
FE6
100
AcDbMaterial
  1
ByLayer
 72
     1
 94
      127
  0
MATERIAL
  5
FE9
102
{ACAD_REACTORS
330
FE6
102
}
330
FE6
100
AcDbMaterial
  1
Global
 72
     1
 94
      127
  0
MLEADERSTYLE
  5
100F
102
{ACAD_REACTORS
330
100E
102
}
330
100E
100
AcDbMLeaderStyle
179
     2
170
     2
171
     1
172
     0
 90
        2
 40
0.0
 41
0.0
173
     1
 91
-1056964608
340
FB7
 92
       -2
290
     1
 42
0.09
291
     1
 43
0.36
  3
Standard
341
0
 44
0.18
300

342
FB5
174
     1
178
     6
175
     1
176
     0
 93
-1056964608
 45
0.18
292
     0
297
     0
 46
0.18
343
0
 94
-1056964608
 47
1.0
 49
1.0
140
1.0
293
     1
141
0.0
294
     1
177
     0
142
1.0
295
     0
296
     0
143
0.125
271
     0
272
     9
273
     9
298
     0
  0
MLINESTYLE
  5
FBB
102
{ACAD_REACTORS
330
FBA
102
}
330
FBA
100
AcDbMlineStyle
  2
Standard
 70
     0
  3

 62
   256
 51
90.0
 52
90.0
 71
     2
 49
0.5
 62
   256
  6
BYLAYER
 49
-0.5
 62
   256
  6
BYLAYER
  0
ACDBPLACEHOLDER
  5
FB3
102
{ACAD_REACTORS
330
FB2
102
}
330
FB2
  0
SCALE
  5
FEB
102
{ACAD_REACTORS
330
FEA
102
}
330
FEA
100
AcDbScale
 70
     0
300
1:1
140
1.0
141
1.0
290
     1
  0
SCALE
  5
FEC
102
{ACAD_REACTORS
330
FEA
102
}
330
FEA
100
AcDbScale
 70
     0
300
1:2
140
1.0
141
2.0
290
     0
  0
SCALE
  5
FED
102
{ACAD_REACTORS
330
FEA
102
}
330
FEA
100
AcDbScale
 70
     0
300
1:4
140
1.0
141
4.0
290
     0
  0
SCALE
  5
FEE
102
{ACAD_REACTORS
330
FEA
102
}
330
FEA
100
AcDbScale
 70
     0
300
1:5
140
1.0
141
5.0
290
     0
  0
SCALE
  5
FEF
102
{ACAD_REACTORS
330
FEA
102
}
330
FEA
100
AcDbScale
 70
     0
300
1:8
140
1.0
141
8.0
290
     0
  0
SCALE
  5
FF0
102
{ACAD_REACTORS
330
FEA
102
}
330
FEA
100
AcDbScale
 70
     0
300
1:10
140
1.0
141
10.0
290
     0
  0
SCALE
  5
FF1
102
{ACAD_REACTORS
330
FEA
102
}
330
FEA
100
AcDbScale
 70
     0
300
1:16
140
1.0
141
16.0
290
     0
  0
SCALE
  5
FF2
102
{ACAD_REACTORS
330
FEA
102
}
330
FEA
100
AcDbScale
 70
     0
300
1:20
140
1.0
141
20.0
290
     0
  0
SCALE
  5
FF3
102
{ACAD_REACTORS
330
FEA
102
}
330
FEA
100
AcDbScale
 70
     0
300
1:30
140
1.0
141
30.0
290
     0
  0
SCALE
  5
FF4
102
{ACAD_REACTORS
330
FEA
102
}
330
FEA
100
AcDbScale
 70
     0
300
1:40
140
1.0
141
40.0
290
     0
  0
SCALE
  5
FF5
102
{ACAD_REACTORS
330
FEA
102
}
330
FEA
100
AcDbScale
 70
     0
300
1:50
140
1.0
141
50.0
290
     0
  0
SCALE
  5
FF6
102
{ACAD_REACTORS
330
FEA
102
}
330
FEA
100
AcDbScale
 70
     0
300
1:100
140
1.0
141
100.0
290
     0
  0
SCALE
  5
FF7
102
{ACAD_REACTORS
330
FEA
102
}
330
FEA
100
AcDbScale
 70
     0
300
2:1
140
2.0
141
1.0
290
     0
  0
SCALE
  5
FF8
102
{ACAD_REACTORS
330
FEA
102
}
330
FEA
100
AcDbScale
 70
     0
300
4:1
140
4.0
141
1.0
290
     0
  0
SCALE
  5
FF9
102
{ACAD_REACTORS
330
FEA
102
}
330
FEA
100
AcDbScale
 70
     0
300
8:1
140
8.0
141
1.0
290
     0
  0
SCALE
  5
FFA
102
{ACAD_REACTORS
330
FEA
102
}
330
FEA
100
AcDbScale
 70
     0
300
10:1
140
10.0
141
1.0
290
     0
  0
SCALE
  5
FFB
102
{ACAD_REACTORS
330
FEA
102
}
330
FEA
100
AcDbScale
 70
     0
300
100:1
140
100.0
141
1.0
290
     0
  0
SCALE
  5
FFC
102
{ACAD_REACTORS
330
FEA
102
}
330
FEA
100
AcDbScale
 70
     0
300
1/128" = 1'-0"
140
0.0078125
141
12.0
290
     0
  0
SCALE
  5
FFD
102
{ACAD_REACTORS
330
FEA
102
}
330
FEA
100
AcDbScale
 70
     0
300
1/64" = 1'-0"
140
0.015625
141
12.0
290
     0
  0
SCALE
  5
FFE
102
{ACAD_REACTORS
330
FEA
102
}
330
FEA
100
AcDbScale
 70
     0
300
1/32" = 1'-0"
140
0.03125
141
12.0
290
     0
  0
SCALE
  5
FFF
102
{ACAD_REACTORS
330
FEA
102
}
330
FEA
100
AcDbScale
 70
     0
300
1/16" = 1'-0"
140
0.0625
141
12.0
290
     0
  0
SCALE
  5
1000
102
{ACAD_REACTORS
330
FEA
102
}
330
FEA
100
AcDbScale
 70
     0
300
3/32" = 1'-0"
140
0.09375
141
12.0
290
     0
  0
SCALE
  5
1001
102
{ACAD_REACTORS
330
FEA
102
}
330
FEA
100
AcDbScale
 70
     0
300
1/8" = 1'-0"
140
0.125
141
12.0
290
     0
  0
SCALE
  5
1002
102
{ACAD_REACTORS
330
FEA
102
}
330
FEA
100
AcDbScale
 70
     0
300
3/16" = 1'-0"
140
0.1875
141
12.0
290
     0
  0
SCALE
  5
1003
102
{ACAD_REACTORS
330
FEA
102
}
330
FEA
100
AcDbScale
 70
     0
300
1/4" = 1'-0"
140
0.25
141
12.0
290
     0
  0
SCALE
  5
1004
102
{ACAD_REACTORS
330
FEA
102
}
330
FEA
100
AcDbScale
 70
     0
300
3/8" = 1'-0"
140
0.375
141
12.0
290
     0
  0
SCALE
  5
1005
102
{ACAD_REACTORS
330
FEA
102
}
330
FEA
100
AcDbScale
 70
     0
300
1/2" = 1'-0"
140
0.5
141
12.0
290
     0
  0
SCALE
  5
1006
102
{ACAD_REACTORS
330
FEA
102
}
330
FEA
100
AcDbScale
 70
     0
300
3/4" = 1'-0"
140
0.75
141
12.0
290
     0
  0
SCALE
  5
1007
102
{ACAD_REACTORS
330
FEA
102
}
330
FEA
100
AcDbScale
 70
     0
300
1" = 1'-0"
140
1.0
141
12.0
290
     0
  0
SCALE
  5
1008
102
{ACAD_REACTORS
330
FEA
102
}
330
FEA
100
AcDbScale
 70
     0
300
1-1/2" = 1'-0"
140
1.5
141
12.0
290
     0
  0
SCALE
  5
1009
102
{ACAD_REACTORS
330
FEA
102
}
330
FEA
100
AcDbScale
 70
     0
300
3" = 1'-0"
140
3.0
141
12.0
290
     0
  0
SCALE
  5
100A
102
{ACAD_REACTORS
330
FEA
102
}
330
FEA
100
AcDbScale
 70
     0
300
6" = 1'-0"
140
6.0
141
12.0
290
     0
  0
SCALE
  5
100B
102
{ACAD_REACTORS
330
FEA
102
}
330
FEA
100
AcDbScale
 70
     0
300
1'-0" = 1'-0"
140
12.0
141
12.0
290
     0
  0
TABLESTYLE
  5
100D
102
{ACAD_REACTORS
330
100C
102
}
102
{ACAD_XDICTIONARY
360
1092
102
}
330
100C
100
AcDbTableStyle
  3
Standard
 70
     0
 71
     0
 40
0.06
 41
0.06
280
     0
281
     0
  7
Standard
140
0.18
170
     2
 62
     0
 63
   257
283
     0
 90
        4
 91
        0
  1

274
    -2
284
     1
 64
     0
275
    -2
285
     1
 65
     0
276
    -2
286
     1
 66
     0
277
    -2
287
     1
 67
     0
278
    -2
288
     1
 68
     0
279
    -2
289
     1
 69
     0
  7
Standard
140
0.25
170
     5
 62
     0
 63
   257
283
     0
 90
        4
 91
        0
  1

274
    -2
284
     1
 64
     0
275
    -2
285
     1
 65
     0
276
    -2
286
     1
 66
     0
277
    -2
287
     1
 67
     0
278
    -2
288
     1
 68
     0
279
    -2
289
     1
 69
     0
  7
Standard
140
0.18
170
     5
 62
     0
 63
   257
283
     0
 90
        4
 91
        0
  1

274
    -2
284
     1
 64
     0
275
    -2
285
     1
 65
     0
276
    -2
286
     1
 66
     0
277
    -2
287
     1
 67
     0
278
    -2
288
     1
 68
     0
279
    -2
289
     1
 69
     0
  0
VISUALSTYLE
  5
FD2
102
{ACAD_REACTORS
330
FCD
102
}
330
FCD
100
AcDbVisualStyle
  2
2dWireframe
 70
     4
177
     3
291
     0
 70
    58
 90
        0
176
     1
 90
        2
176
     1
 90
        0
176
     1
 90
        0
176
     1
 40
0.6
176
     1
 40
30.0
176
     1
 62
     7
420
 16777215
176
     1
 90
        1
176
     1
 90
        4
176
     1
 62
     7
176
     1
 62
   257
176
     1
 90
        1
176
     1
 90
        1
176
     1
 40
1.0
176
     1
 90
        0
176
     1
 62
   257
176
     1
 40
1.0
176
     1
 90
        1
176
     1
 90
        6
176
     1
 90
        2
176
     1
 62
     7
176
     1
 90
        5
176
     1
 90
        0
176
     1
 90
        0
176
     1
290
     0
176
     1
 90
        1
176
     1
 40
0.0
176
     1
 90
        0
176
     1
290
     1
176
     1
290
     1
176
     1
290
     0
176
     1
290
     0
176
     1
290
     0
176
     1
290
     0
176
     1
290
     0
176
     1
290
     0
176
     1
290
     0
176
     1
 90
       50
176
     1
 40
0.0
176
     1
 40
1.0
176
     1
 90
        0
176
     1
 62
   178
420
        0
176
     1
 90
       50
176
     1
 90
        3
176
     1
 62
     5
420
      255
176
     1
290
     0
176
     1
 90
       50
176
     1
 90
       50
176
     1
 90
       50
176
     1
290
     0
176
     1
 90
       50
176
     1
 62
   256
176
     0
 40
1.0
176
     0
 90
        2
176
     1
  1
strokes_ogs.tif
176
     1
290
     0
176
     1
 40
1.0
176
     1
 40
1.0
176
     1
  0
VISUALSTYLE
  5
FD5
102
{ACAD_REACTORS
330
FCD
102
}
330
FCD
100
AcDbVisualStyle
  2
Basic
 70
     7
177
     3
291
     1
 70
    58
 90
        1
176
     1
 90
        0
176
     1
 90
        1
176
     1
 90
        0
176
     1
 40
0.6
176
     1
 40
30.0
176
     1
 62
     7
420
 16777215
176
     1
 90
        0
176
     1
 90
        4
176
     1
 62
     7
176
     1
 62
   257
176
     1
 90
        1
176
     1
 90
        1
176
     1
 40
1.0
176
     1
 90
        8
176
     1
 62
     7
176
     1
 40
1.0
176
     1
 90
        1
176
     1
 90
        6
176
     1
 90
        2
176
     1
 62
     7
176
     1
 90
        5
176
     1
 90
        0
176
     1
 90
        0
176
     1
290
     0
176
     1
 90
        1
176
     1
 40
0.0
176
     1
 90
        0
176
     1
290
     0
176
     1
290
     1
176
     1
290
     1
176
     1
290
     0
176
     1
290
     0
176
     1
290
     0
176
     1
290
     0
176
     1
290
     0
176
     1
290
     0
176
     1
 90
       50
176
     1
 40
0.0
176
     1
 40
1.0
176
     1
 90
        0
176
     1
 62
   178
420
        0
176
     1
 90
       50
176
     1
 90
        3
176
     1
 62
     5
420
      255
176
     1
290
     0
176
     1
 90
       50
176
     1
 90
       50
176
     1
 90
       50
176
     1
290
     0
176
     1
 90
       50
176
     1
 62
   256
176
     0
 40
1.0
176
     0
 90
        2
176
     1
  1
strokes_ogs.tif
176
     1
290
     0
176
     1
 40
1.0
176
     1
 40
1.0
176
     1
  0
VISUALSTYLE
  5
FD9
102
{ACAD_REACTORS
330
FCD
102
}
330
FCD
100
AcDbVisualStyle
  2
Brighten
 70
    12
177
     3
291
     1
 70
    58
 90
        2
176
     1
 90
        2
176
     1
 90
        0
176
     1
 90
        0
176
     1
 40
0.6
176
     1
 40
30.0
176
     1
 62
     7
420
 16777215
176
     1
 90
        1
176
     1
 90
        4
176
     1
 62
     7
176
     1
 62
   257
176
     1
 90
        1
176
     1
 90
        1
176
     1
 40
1.0
176
     1
 90
        8
176
     1
 62
     7
176
     1
 40
1.0
176
     1
 90
        1
176
     1
 90
        6
176
     1
 90
        2
176
     1
 62
     7
176
     1
 90
        5
176
     1
 90
        0
176
     1
 90
        0
176
     1
290
     0
176
     1
 90
        1
176
     1
 40
50.0
176
     1
 90
        0
176
     1
290
     0
176
     1
290
     1
176
     1
290
     1
176
     1
290
     0
176
     1
290
     0
176
     1
290
     0
176
     1
290
     0
176
     1
290
     0
176
     1
290
     0
176
     1
 90
       50
176
     1
 40
0.0
176
     1
 40
1.0
176
     1
 90
        0
176
     1
 62
   178
420
        0
176
     1
 90
       50
176
     1
 90
        3
176
     1
 62
     5
420
      255
176
     1
290
     0
176
     1
 90
       50
176
     1
 90
       50
176
     1
 90
       50
176
     1
290
     0
176
     1
 90
       50
176
     1
 62
   256
176
     0
 40
1.0
176
     0
 90
        2
176
     1
  1
strokes_ogs.tif
176
     1
290
     0
176
     1
 40
1.0
176
     1
 40
1.0
176
     1
  0
VISUALSTYLE
  5
FDD
102
{ACAD_REACTORS
330
FCD
102
}
330
FCD
100
AcDbVisualStyle
  2
ColorChange
 70
    16
177
     3
291
     1
 70
    58
 90
        2
176
     1
 90
        2
176
     1
 90
        3
176
     1
 90
        0
176
     1
 40
0.6
176
     1
 40
30.0
176
     1
 62
     8
420
  8421504
176
     1
 90
        1
176
     1
 90
        4
176
     1
 62
     7
176
     1
 62
   257
176
     1
 90
        1
176
     1
 90
        1
176
     1
 40
1.0
176
     1
 90
        8
176
     1
 62
     8
420
  8421504
176
     1
 40
1.0
176
     1
 90
        1
176
     1
 90
        6
176
     1
 90
        2
176
     1
 62
     7
176
     1
 90
        5
176
     1
 90
        0
176
     1
 90
        0
176
     1
290
     0
176
     1
 90
        1
176
     1
 40
0.0
176
     1
 90
        0
176
     1
290
     0
176
     1
290
     1
176
     1
290
     1
176
     1
290
     0
176
     1
290
     0
176
     1
290
     0
176
     1
290
     0
176
     1
290
     0
176
     1
290
     0
176
     1
 90
       50
176
     1
 40
0.0
176
     1
 40
1.0
176
     1
 90
        0
176
     1
 62
   178
420
        0
176
     1
 90
       50
176
     1
 90
        3
176
     1
 62
     5
420
      255
176
     1
290
     0
176
     1
 90
       50
176
     1
 90
       50
176
     1
 90
       50
176
     1
290
     0
176
     1
 90
       50
176
     1
 62
   256
176
     0
 40
1.0
176
     0
 90
        2
176
     1
  1
strokes_ogs.tif
176
     1
290
     0
176
     1
 40
1.0
176
     1
 40
1.0
176
     1
  0
VISUALSTYLE
  5
FD7
102
{ACAD_REACTORS
330
FCD
102
}
330
FCD
100
AcDbVisualStyle
  2
Conceptual
 70
     9
177
     3
291
     0
 70
    58
 90
        3
176
     1
 90
        2
176
     1
 90
        0
176
     1
 90
        0
176
     1
 40
0.6
176
     1
 40
30.0
176
     1
 62
     7
420
 16777215
176
     1
 90
        2
176
     1
 90
        2
176
     1
 62
     7
176
     1
 62
   257
176
     1
 90
        1
176
     1
 90
        1
176
     1
 40
179.0
176
     1
 90
        8
176
     1
 62
     7
176
     1
 40
1.0
176
     1
 90
        1
176
     1
 90
        6
176
     1
 90
        2
176
     1
 62
     7
176
     1
 90
        3
176
     1
 90
        0
176
     1
 90
        0
176
     1
290
     0
176
     1
 90
        1
176
     1
 40
0.0
176
     1
 90
        0
176
     1
290
     0
176
     1
290
     1
176
     1
290
     1
176
     1
290
     0
176
     1
290
     0
176
     1
290
     0
176
     1
290
     0
176
     1
290
     0
176
     1
290
     0
176
     1
 90
       50
176
     1
 40
0.0
176
     1
 40
1.0
176
     1
 90
        0
176
     1
 62
   178
420
        0
176
     1
 90
       50
176
     1
 90
        3
176
     1
 62
     5
420
      255
176
     1
290
     0
176
     1
 90
       50
176
     1
 90
       50
176
     1
 90
       50
176
     1
290
     0
176
     1
 90
       50
176
     1
 62
   256
176
     0
 40
1.0
176
     0
 90
        2
176
     1
  1
strokes_ogs.tif
176
     1
290
     0
176
     1
 40
1.0
176
     1
 40
1.0
176
     1
  0
VISUALSTYLE
  5
FD8
102
{ACAD_REACTORS
330
FCD
102
}
330
FCD
100
AcDbVisualStyle
  2
Dim
 70
    11
177
     3
291
     1
 70
    58
 90
        2
176
     1
 90
        2
176
     1
 90
        0
176
     1
 90
        0
176
     1
 40
0.6
176
     1
 40
30.0
176
     1
 62
     7
420
 16777215
176
     1
 90
        1
176
     1
 90
        4
176
     1
 62
     7
176
     1
 62
   257
176
     1
 90
        1
176
     1
 90
        1
176
     1
 40
1.0
176
     1
 90
        8
176
     1
 62
     7
176
     1
 40
1.0
176
     1
 90
        1
176
     1
 90
        6
176
     1
 90
        2
176
     1
 62
     7
176
     1
 90
        5
176
     1
 90
        0
176
     1
 90
        0
176
     1
290
     0
176
     1
 90
        1
176
     1
 40
-50.0
176
     1
 90
        0
176
     1
290
     0
176
     1
290
     1
176
     1
290
     1
176
     1
290
     0
176
     1
290
     0
176
     1
290
     0
176
     1
290
     0
176
     1
290
     0
176
     1
290
     0
176
     1
 90
       50
176
     1
 40
0.0
176
     1
 40
1.0
176
     1
 90
        0
176
     1
 62
   178
420
        0
176
     1
 90
       50
176
     1
 90
        3
176
     1
 62
     5
420
      255
176
     1
290
     0
176
     1
 90
       50
176
     1
 90
       50
176
     1
 90
       50
176
     1
290
     0
176
     1
 90
       50
176
     1
 62
   256
176
     0
 40
1.0
176
     0
 90
        2
176
     1
  1
strokes_ogs.tif
176
     1
290
     0
176
     1
 40
1.0
176
     1
 40
1.0
176
     1
  0
VISUALSTYLE
  5
FE0
102
{ACAD_REACTORS
330
FCD
102
}
330
FCD
100
AcDbVisualStyle
  2
EdgeColorOff
 70
    22
177
     3
291
     1
 70
    58
 90
        2
176
     0
 90
        2
176
     0
 90
        0
176
     0
 90
        0
176
     0
 40
0.6
176
     0
 40
30.0
176
     0
 62
     7
420
 16777215
176
     0
 90
        1
176
     0
 90
        4
176
     0
 62
     7
176
     0
 62
   257
176
     0
 90
        1
176
     0
 90
        1
176
     0
 40
1.0
176
     0
 90
        8
176
     2
 62
     7
176
     0
 40
1.0
176
     0
 90
        1
176
     0
 90
        6
176
     0
 90
        2
176
     0
 62
     7
176
     0
 90
        5
176
     0
 90
        0
176
     0
 90
        0
176
     0
290
     0
176
     0
 90
        1
176
     0
 40
0.0
176
     0
 90
        0
176
     0
290
     0
176
     0
290
     1
176
     0
290
     1
176
     0
290
     0
176
     0
290
     0
176
     0
290
     0
176
     0
290
     0
176
     0
290
     0
176
     0
290
     0
176
     0
 90
       50
176
     0
 40
0.0
176
     0
 40
1.0
176
     0
 90
        0
176
     0
 62
   178
420
        0
176
     0
 90
       50
176
     0
 90
        3
176
     0
 62
     5
420
      255
176
     0
290
     0
176
     0
 90
       50
176
     0
 90
       50
176
     0
 90
       50
176
     0
290
     0
176
     0
 90
       50
176
     0
 62
   256
176
     0
 40
1.0
176
     0
 90
        2
176
     0
  1
strokes_ogs.tif
176
     0
290
     0
176
     0
 40
1.0
176
     0
 40
1.0
176
     0
  0
VISUALSTYLE
  5
FDC
102
{ACAD_REACTORS
330
FCD
102
}
330
FCD
100
AcDbVisualStyle
  2
Facepattern
 70
    15
177
     3
291
     1
 70
    58
 90
        2
176
     1
 90
        2
176
     1
 90
        0
176
     1
 90
        0
176
     1
 40
0.6
176
     1
 40
30.0
176
     1
 62
     7
420
 16777215
176
     1
 90
        1
176
     1
 90
        4
176
     1
 62
     7
176
     1
 62
   257
176
     1
 90
        1
176
     1
 90
        1
176
     1
 40
1.0
176
     1
 90
        8
176
     1
 62
     7
176
     1
 40
1.0
176
     1
 90
        1
176
     1
 90
        6
176
     1
 90
        2
176
     1
 62
     7
176
     1
 90
        5
176
     1
 90
        0
176
     1
 90
        0
176
     1
290
     0
176
     1
 90
        1
176
     1
 40
0.0
176
     1
 90
        0
176
     1
290
     0
176
     1
290
     1
176
     1
290
     1
176
     1
290
     0
176
     1
290
     0
176
     1
290
     0
176
     1
290
     0
176
     1
290
     0
176
     1
290
     0
176
     1
 90
       50
176
     1
 40
0.0
176
     1
 40
1.0
176
     1
 90
        0
176
     1
 62
   178
420
        0
176
     1
 90
       50
176
     1
 90
        3
176
     1
 62
     5
420
      255
176
     1
290
     0
176
     1
 90
       50
176
     1
 90
       50
176
     1
 90
       50
176
     1
290
     0
176
     1
 90
       50
176
     1
 62
   256
176
     0
 40
1.0
176
     0
 90
        2
176
     1
  1
strokes_ogs.tif
176
     1
290
     0
176
     1
 40
1.0
176
     1
 40
1.0
176
     1
  0
VISUALSTYLE
  5
FCE
102
{ACAD_REACTORS
330
FCD
102
}
330
FCD
100
AcDbVisualStyle
  2
Flat
 70
     0
177
     3
291
     1
 70
    58
 90
        2
176
     1
 90
        1
176
     1
 90
        1
176
     1
 90
        2
176
     1
 40
0.6
176
     1
 40
30.0
176
     1
 62
     7
420
 16777215
176
     1
 90
        0
176
     1
 90
        0
176
     1
 62
     7
176
     1
 62
   257
176
     1
 90
        1
176
     1
 90
        1
176
     1
 40
1.0
176
     1
 90
        8
176
     1
 62
     7
176
     1
 40
1.0
176
     1
 90
        1
176
     1
 90
        6
176
     1
 90
        2
176
     1
 62
     7
176
     1
 90
        5
176
     1
 90
        0
176
     1
 90
        0
176
     1
290
     0
176
     1
 90
       13
176
     1
 40
0.0
176
     1
 90
        0
176
     1
290
     0
176
     1
290
     1
176
     1
290
     1
176
     1
290
     0
176
     1
290
     0
176
     1
290
     0
176
     1
290
     0
176
     1
290
     0
176
     1
290
     0
176
     1
 90
       50
176
     1
 40
0.0
176
     1
 40
1.0
176
     1
 90
        0
176
     1
 62
   178
420
        0
176
     1
 90
       50
176
     1
 90
        3
176
     1
 62
     5
420
      255
176
     1
290
     0
176
     1
 90
       50
176
     1
 90
       50
176
     1
 90
       50
176
     1
290
     0
176
     1
 90
       50
176
     1
 62
   256
176
     0
 40
1.0
176
     0
 90
        2
176
     1
  1
strokes_ogs.tif
176
     1
290
     0
176
     1
 40
1.0
176
     1
 40
1.0
176
     1
  0
VISUALSTYLE
  5
FCF
102
{ACAD_REACTORS
330
FCD
102
}
330
FCD
100
AcDbVisualStyle
  2
FlatWithEdges
 70
     1
177
     3
291
     1
 70
    58
 90
        2
176
     1
 90
        1
176
     1
 90
        1
176
     1
 90
        2
176
     1
 40
0.6
176
     1
 40
30.0
176
     1
 62
     7
420
 16777215
176
     1
 90
        1
176
     1
 90
        0
176
     1
 62
     7
176
     1
 62
   257
176
     1
 90
        1
176
     1
 90
        1
176
     1
 40
1.0
176
     1
 90
        0
176
     1
 62
   257
176
     1
 40
1.0
176
     1
 90
        1
176
     1
 90
        6
176
     1
 90
        2
176
     1
 62
     7
176
     1
 90
        5
176
     1
 90
        0
176
     1
 90
        0
176
     1
290
     0
176
     1
 90
       13
176
     1
 40
0.0
176
     1
 90
        0
176
     1
290
     0
176
     1
290
     1
176
     1
290
     1
176
     1
290
     0
176
     1
290
     0
176
     1
290
     0
176
     1
290
     0
176
     1
290
     0
176
     1
290
     0
176
     1
 90
       50
176
     1
 40
0.0
176
     1
 40
1.0
176
     1
 90
        0
176
     1
 62
   178
420
        0
176
     1
 90
       50
176
     1
 90
        3
176
     1
 62
     5
420
      255
176
     1
290
     0
176
     1
 90
       50
176
     1
 90
       50
176
     1
 90
       50
176
     1
290
     0
176
     1
 90
       50
176
     1
 62
   256
176
     0
 40
1.0
176
     0
 90
        2
176
     1
  1
strokes_ogs.tif
176
     1
290
     0
176
     1
 40
1.0
176
     1
 40
1.0
176
     1
  0
VISUALSTYLE
  5
FD0
102
{ACAD_REACTORS
330
FCD
102
}
330
FCD
100
AcDbVisualStyle
  2
Gouraud
 70
     2
177
     3
291
     1
 70
    58
 90
        2
176
     1
 90
        2
176
     1
 90
        1
176
     1
 90
        2
176
     1
 40
0.6
176
     1
 40
30.0
176
     1
 62
     7
420
 16777215
176
     1
 90
        0
176
     1
 90
        0
176
     1
 62
     7
176
     1
 62
   257
176
     1
 90
        1
176
     1
 90
        1
176
     1
 40
1.0
176
     1
 90
        0
176
     1
 62
     7
176
     1
 40
1.0
176
     1
 90
        1
176
     1
 90
        6
176
     1
 90
        2
176
     1
 62
     7
176
     1
 90
        5
176
     1
 90
        0
176
     1
 90
        0
176
     1
290
     0
176
     1
 90
       13
176
     1
 40
0.0
176
     1
 90
        0
176
     1
290
     0
176
     1
290
     1
176
     1
290
     1
176
     1
290
     0
176
     1
290
     0
176
     1
290
     0
176
     1
290
     0
176
     1
290
     0
176
     1
290
     0
176
     1
 90
       50
176
     1
 40
0.0
176
     1
 40
1.0
176
     1
 90
        0
176
     1
 62
   178
420
        0
176
     1
 90
       50
176
     1
 90
        3
176
     1
 62
     5
420
      255
176
     1
290
     0
176
     1
 90
       50
176
     1
 90
       50
176
     1
 90
       50
176
     1
290
     0
176
     1
 90
       50
176
     1
 62
   256
176
     0
 40
1.0
176
     0
 90
        2
176
     1
  1
strokes_ogs.tif
176
     1
290
     0
176
     1
 40
1.0
176
     1
 40
1.0
176
     1
  0
VISUALSTYLE
  5
FD1
102
{ACAD_REACTORS
330
FCD
102
}
330
FCD
100
AcDbVisualStyle
  2
GouraudWithEdges
 70
     3
177
     3
291
     1
 70
    58
 90
        2
176
     1
 90
        2
176
     1
 90
        1
176
     1
 90
        2
176
     1
 40
0.6
176
     1
 40
30.0
176
     1
 62
     7
420
 16777215
176
     1
 90
        1
176
     1
 90
        0
176
     1
 62
     7
176
     1
 62
   257
176
     1
 90
        1
176
     1
 90
        1
176
     1
 40
1.0
176
     1
 90
        0
176
     1
 62
   257
176
     1
 40
1.0
176
     1
 90
        1
176
     1
 90
        6
176
     1
 90
        2
176
     1
 62
     7
176
     1
 90
        5
176
     1
 90
        0
176
     1
 90
        0
176
     1
290
     0
176
     1
 90
       13
176
     1
 40
0.0
176
     1
 90
        0
176
     1
290
     0
176
     1
290
     1
176
     1
290
     1
176
     1
290
     0
176
     1
290
     0
176
     1
290
     0
176
     1
290
     0
176
     1
290
     0
176
     1
290
     0
176
     1
 90
       50
176
     1
 40
0.0
176
     1
 40
1.0
176
     1
 90
        0
176
     1
 62
   178
420
        0
176
     1
 90
       50
176
     1
 90
        3
176
     1
 62
     5
420
      255
176
     1
290
     0
176
     1
 90
       50
176
     1
 90
       50
176
     1
 90
       50
176
     1
290
     0
176
     1
 90
       50
176
     1
 62
   256
176
     0
 40
1.0
176
     0
 90
        2
176
     1
  1
strokes_ogs.tif
176
     1
290
     0
176
     1
 40
1.0
176
     1
 40
1.0
176
     1
  0
VISUALSTYLE
  5
FD4
102
{ACAD_REACTORS
330
FCD
102
}
330
FCD
100
AcDbVisualStyle
  2
Hidden
 70
     6
177
     3
291
     0
 70
    58
 90
        1
176
     1
 90
        2
176
     1
 90
        2
176
     1
 90
        0
176
     1
 40
0.6
176
     1
 40
30.0
176
     1
 62
     7
420
 16777215
176
     1
 90
        2
176
     1
 90
        2
176
     1
 62
     7
176
     1
 62
   257
176
     1
 90
        2
176
     1
 90
        1
176
     1
 40
40.0
176
     1
 90
        0
176
     1
 62
   257
176
     1
 40
1.0
176
     1
 90
        1
176
     1
 90
        6
176
     1
 90
        2
176
     1
 62
     7
176
     1
 90
        3
176
     1
 90
        0
176
     1
 90
        0
176
     1
290
     0
176
     1
 90
        1
176
     1
 40
0.0
176
     1
 90
        0
176
     1
290
     0
176
     1
290
     1
176
     1
290
     1
176
     1
290
     0
176
     1
290
     0
176
     1
290
     0
176
     1
290
     0
176
     1
290
     0
176
     1
290
     0
176
     1
 90
       50
176
     1
 40
0.0
176
     1
 40
1.0
176
     1
 90
        0
176
     1
 62
   178
420
        0
176
     1
 90
       50
176
     1
 90
        3
176
     1
 62
     5
420
      255
176
     1
290
     0
176
     1
 90
       50
176
     1
 90
       50
176
     1
 90
       50
176
     1
290
     0
176
     1
 90
       50
176
     1
 62
   256
176
     0
 40
1.0
176
     0
 90
        2
176
     1
  1
strokes_ogs.tif
176
     1
290
     0
176
     1
 40
1.0
176
     1
 40
1.0
176
     1
  0
VISUALSTYLE
  5
FDE
102
{ACAD_REACTORS
330
FCD
102
}
330
FCD
100
AcDbVisualStyle
  2
JitterOff
 70
    20
177
     3
291
     1
 70
    58
 90
        2
176
     0
 90
        2
176
     0
 90
        0
176
     0
 90
        0
176
     0
 40
0.6
176
     0
 40
30.0
176
     0
 62
     7
420
 16777215
176
     0
 90
        1
176
     0
 90
        4
176
     0
 62
     7
176
     0
 62
   257
176
     0
 90
        1
176
     0
 90
        1
176
     0
 40
1.0
176
     0
 90
       10
176
     2
 62
     7
176
     0
 40
1.0
176
     0
 90
        1
176
     0
 90
        6
176
     0
 90
        2
176
     0
 62
     7
176
     0
 90
        5
176
     0
 90
        0
176
     0
 90
        0
176
     0
290
     0
176
     0
 90
        1
176
     0
 40
0.0
176
     0
 90
        0
176
     0
290
     0
176
     0
290
     1
176
     0
290
     1
176
     0
290
     0
176
     0
290
     0
176
     0
290
     0
176
     0
290
     0
176
     0
290
     0
176
     0
290
     0
176
     0
 90
       50
176
     0
 40
0.0
176
     0
 40
1.0
176
     0
 90
        0
176
     0
 62
   178
420
        0
176
     0
 90
       50
176
     0
 90
        3
176
     0
 62
     5
420
      255
176
     0
290
     0
176
     0
 90
       50
176
     0
 90
       50
176
     0
 90
       50
176
     0
290
     0
176
     0
 90
       50
176
     0
 62
   256
176
     0
 40
1.0
176
     0
 90
        2
176
     0
  1
strokes_ogs.tif
176
     0
290
     0
176
     0
 40
1.0
176
     0
 40
1.0
176
     0
  0
VISUALSTYLE
  5
FDB
102
{ACAD_REACTORS
330
FCD
102
}
330
FCD
100
AcDbVisualStyle
  2
Linepattern
 70
    14
177
     3
291
     1
 70
    58
 90
        2
176
     1
 90
        2
176
     1
 90
        0
176
     1
 90
        0
176
     1
 40
0.6
176
     1
 40
30.0
176
     1
 62
     7
420
 16777215
176
     1
 90
        1
176
     1
 90
        4
176
     1
 62
     7
176
     1
 62
   257
176
     1
 90
        7
176
     1
 90
        7
176
     1
 40
1.0
176
     1
 90
        8
176
     1
 62
     7
176
     1
 40
1.0
176
     1
 90
        1
176
     1
 90
        6
176
     1
 90
        2
176
     1
 62
     7
176
     1
 90
        5
176
     1
 90
        0
176
     1
 90
        0
176
     1
290
     0
176
     1
 90
        1
176
     1
 40
0.0
176
     1
 90
        0
176
     1
290
     0
176
     1
290
     1
176
     1
290
     1
176
     1
290
     0
176
     1
290
     0
176
     1
290
     0
176
     1
290
     0
176
     1
290
     0
176
     1
290
     0
176
     1
 90
       50
176
     1
 40
0.0
176
     1
 40
1.0
176
     1
 90
        0
176
     1
 62
   178
420
        0
176
     1
 90
       50
176
     1
 90
        3
176
     1
 62
     5
420
      255
176
     1
290
     0
176
     1
 90
       50
176
     1
 90
       50
176
     1
 90
       50
176
     1
290
     0
176
     1
 90
       50
176
     1
 62
   256
176
     0
 40
1.0
176
     0
 90
        2
176
     1
  1
strokes_ogs.tif
176
     1
290
     0
176
     1
 40
1.0
176
     1
 40
1.0
176
     1
  0
VISUALSTYLE
  5
FDF
102
{ACAD_REACTORS
330
FCD
102
}
330
FCD
100
AcDbVisualStyle
  2
OverhangOff
 70
    21
177
     3
291
     1
 70
    58
 90
        2
176
     0
 90
        2
176
     0
 90
        0
176
     0
 90
        0
176
     0
 40
0.6
176
     0
 40
30.0
176
     0
 62
     7
420
 16777215
176
     0
 90
        1
176
     0
 90
        4
176
     0
 62
     7
176
     0
 62
   257
176
     0
 90
        1
176
     0
 90
        1
176
     0
 40
1.0
176
     0
 90
        9
176
     2
 62
     7
176
     0
 40
1.0
176
     0
 90
        1
176
     0
 90
        6
176
     0
 90
        2
176
     0
 62
     7
176
     0
 90
        5
176
     0
 90
        0
176
     0
 90
        0
176
     0
290
     0
176
     0
 90
        1
176
     0
 40
0.0
176
     0
 90
        0
176
     0
290
     0
176
     0
290
     1
176
     0
290
     1
176
     0
290
     0
176
     0
290
     0
176
     0
290
     0
176
     0
290
     0
176
     0
290
     0
176
     0
290
     0
176
     0
 90
       50
176
     0
 40
0.0
176
     0
 40
1.0
176
     0
 90
        0
176
     0
 62
   178
420
        0
176
     0
 90
       50
176
     0
 90
        3
176
     0
 62
     5
420
      255
176
     0
290
     0
176
     0
 90
       50
176
     0
 90
       50
176
     0
 90
       50
176
     0
290
     0
176
     0
 90
       50
176
     0
 62
   256
176
     0
 40
1.0
176
     0
 90
        2
176
     0
  1
strokes_ogs.tif
176
     0
290
     0
176
     0
 40
1.0
176
     0
 40
1.0
176
     0
  0
VISUALSTYLE
  5
FD6
102
{ACAD_REACTORS
330
FCD
102
}
330
FCD
100
AcDbVisualStyle
  2
Realistic
 70
     8
177
     3
291
     0
 70
    58
 90
        2
176
     1
 90
        3
176
     1
 90
        0
176
     1
 90
        2
176
     1
 40
0.6
176
     1
 40
30.0
176
     1
 62
     7
420
 16777215
176
     1
 90
        0
176
     1
 90
        0
176
     1
 62
     7
176
     1
 62
   257
176
     1
 90
        1
176
     1
 90
        1
176
     1
 40
1.0
176
     1
 90
        8
176
     1
 62
   257
176
     1
 40
1.0
176
     1
 90
        1
176
     1
 90
        6
176
     1
 90
        2
176
     1
 62
     7
176
     1
 90
        3
176
     1
 90
        0
176
     1
 90
        0
176
     1
290
     0
176
     1
 90
       13
176
     1
 40
0.0
176
     1
 90
        0
176
     1
290
     0
176
     1
290
     1
176
     1
290
     1
176
     1
290
     0
176
     1
290
     0
176
     1
290
     0
176
     1
290
     0
176
     1
290
     0
176
     1
290
     0
176
     1
 90
       50
176
     1
 40
0.0
176
     1
 40
1.0
176
     1
 90
        0
176
     1
 62
   178
420
        0
176
     1
 90
       50
176
     1
 90
        3
176
     1
 62
     5
420
      255
176
     1
290
     0
176
     1
 90
       50
176
     1
 90
       50
176
     1
 90
       50
176
     1
290
     0
176
     1
 90
       50
176
     1
 62
   256
176
     0
 40
1.0
176
     0
 90
        2
176
     1
  1
strokes_ogs.tif
176
     1
290
     0
176
     1
 40
1.0
176
     1
 40
1.0
176
     1
  0
VISUALSTYLE
  5
FE5
102
{ACAD_REACTORS
330
FCD
102
}
330
FCD
100
AcDbVisualStyle
  2
Shaded
 70
    27
177
     3
291
     0
 70
    58
 90
        2
176
     1
 90
        2
176
     1
 90
        1
176
     1
 90
        2
176
     1
 40
0.6
176
     1
 40
30.0
176
     1
 62
     7
420
 16777215
176
     1
 90
        0
176
     1
 90
        4
176
     1
 62
     7
176
     1
 62
   257
176
     1
 90
        1
176
     1
 90
        1
176
     1
 40
1.0
176
     1
 90
        8
176
     1
 62
   257
176
     1
 40
1.0
176
     1
 90
        1
176
     1
 90
        6
176
     1
 90
        2
176
     1
 62
     8
420
  7895160
176
     1
 90
        3
176
     1
 90
        0
176
     1
 90
        0
176
     1
290
     0
176
     1
 90
        5
176
     1
 40
0.0
176
     1
 90
        0
176
     1
290
     0
176
     1
290
     1
176
     1
290
     1
176
     1
290
     0
176
     1
290
     0
176
     1
290
     0
176
     1
290
     0
176
     1
290
     0
176
     1
290
     0
176
     1
 90
       50
176
     1
 40
0.0
176
     1
 40
1.0
176
     1
 90
        0
176
     1
 62
   178
420
        0
176
     1
 90
       50
176
     1
 90
        3
176
     1
 62
     5
420
      255
176
     1
290
     0
176
     1
 90
       50
176
     1
 90
       50
176
     1
 90
       50
176
     1
290
     0
176
     1
 90
       50
176
     1
 62
   256
176
     0
 40
1.0
176
     0
 90
        2
176
     1
  1
strokes_ogs.tif
176
     1
290
     0
176
     1
 40
1.0
176
     1
 40
1.0
176
     1
  0
VISUALSTYLE
  5
FE4
102
{ACAD_REACTORS
330
FCD
102
}
330
FCD
100
AcDbVisualStyle
  2
Shaded with edges
 70
    26
177
     3
291
     0
 70
    58
 90
        2
176
     1
 90
        2
176
     1
 90
        1
176
     1
 90
        2
176
     1
 40
0.6
176
     1
 40
30.0
176
     1
 62
     7
420
 16777215
176
     1
 90
        1
176
     1
 90
       10
176
     1
 62
     7
176
     1
 62
   257
176
     1
 90
        2
176
     1
 90
        1
176
     1
 40
1.0
176
     1
 90
        8
176
     1
 62
   257
176
     1
 40
1.0
176
     1
 90
        1
176
     1
 90
        6
176
     1
 90
        2
176
     1
 62
     7
176
     1
 90
        3
176
     1
 90
        0
176
     1
 90
        0
176
     1
290
     0
176
     1
 90
        5
176
     1
 40
0.0
176
     1
 90
        0
176
     1
290
     0
176
     1
290
     1
176
     1
290
     1
176
     1
290
     0
176
     1
290
     0
176
     1
290
     0
176
     1
290
     0
176
     1
290
     0
176
     1
290
     0
176
     1
 90
       50
176
     1
 40
0.0
176
     1
 40
1.0
176
     1
 90
        0
176
     1
 62
   178
420
        0
176
     1
 90
       50
176
     1
 90
        3
176
     1
 62
     5
420
      255
176
     1
290
     0
176
     1
 90
       50
176
     1
 90
       50
176
     1
 90
       50
176
     1
290
     0
176
     1
 90
       50
176
     1
 62
   256
176
     0
 40
1.0
176
     0
 90
        2
176
     1
  1
strokes_ogs.tif
176
     1
290
     0
176
     1
 40
1.0
176
     1
 40
1.0
176
     1
  0
VISUALSTYLE
  5
FE1
102
{ACAD_REACTORS
330
FCD
102
}
330
FCD
100
AcDbVisualStyle
  2
Shades of Gray
 70
    23
177
     3
291
     0
 70
    58
 90
        2
176
     1
 90
        2
176
     1
 90
        3
176
     1
 90
        0
176
     1
 40
0.6
176
     1
 40
30.0
176
     1
 62
     7
420
 16777215
176
     1
 90
        2
176
     1
 90
        2
176
     1
 62
     7
176
     1
 62
     7
176
     1
 90
        1
176
     1
 90
        1
176
     1
 40
40.0
176
     1
 90
        8
176
     1
 62
     7
176
     1
 40
1.0
176
     1
 90
        1
176
     1
 90
        6
176
     1
 90
        2
176
     1
 62
     7
176
     1
 90
        3
176
     1
 90
        0
176
     1
 90
        0
176
     1
290
     0
176
     1
 90
        1
176
     1
 40
0.0
176
     1
 90
        0
176
     1
290
     0
176
     1
290
     1
176
     1
290
     1
176
     1
290
     0
176
     1
290
     0
176
     1
290
     0
176
     1
290
     0
176
     1
290
     0
176
     1
290
     0
176
     1
 90
       50
176
     1
 40
0.0
176
     1
 40
1.0
176
     1
 90
        0
176
     1
 62
   178
420
        0
176
     1
 90
       50
176
     1
 90
        3
176
     1
 62
     5
420
      255
176
     1
290
     0
176
     1
 90
       50
176
     1
 90
       50
176
     1
 90
       50
176
     1
290
     0
176
     1
 90
       50
176
     1
 62
   256
176
     0
 40
1.0
176
     0
 90
        2
176
     1
  1
strokes_ogs.tif
176
     1
290
     0
176
     1
 40
1.0
176
     1
 40
1.0
176
     1
  0
VISUALSTYLE
  5
FE2
102
{ACAD_REACTORS
330
FCD
102
}
330
FCD
100
AcDbVisualStyle
  2
Sketchy
 70
    24
177
     3
291
     0
 70
    58
 90
        1
176
     1
 90
        2
176
     1
 90
        2
176
     1
 90
        0
176
     1
 40
0.6
176
     1
 40
30.0
176
     1
 62
     7
420
 16777215
176
     1
 90
        2
176
     1
 90
        2
176
     1
 62
     7
176
     1
 62
     7
176
     1
 90
        1
176
     1
 90
        1
176
     1
 40
40.0
176
     1
 90
       11
176
     1
 62
     7
176
     1
 40
1.0
176
     1
 90
        1
176
     1
 90
        6
176
     1
 90
        2
176
     1
 62
     7
176
     1
 90
        6
176
     1
 90
        0
176
     1
 90
        0
176
     1
290
     0
176
     1
 90
        1
176
     1
 40
0.0
176
     1
 90
        0
176
     1
290
     0
176
     1
290
     1
176
     1
290
     1
176
     1
290
     0
176
     1
290
     0
176
     1
290
     0
176
     1
290
     0
176
     1
290
     0
176
     1
290
     0
176
     1
 90
       50
176
     1
 40
0.0
176
     1
 40
1.0
176
     1
 90
        0
176
     1
 62
   178
420
        0
176
     1
 90
       50
176
     1
 90
        3
176
     1
 62
     5
420
      255
176
     1
290
     0
176
     1
 90
       50
176
     1
 90
       50
176
     1
 90
       50
176
     1
290
     0
176
     1
 90
       50
176
     1
 62
   256
176
     0
 40
1.0
176
     0
 90
        2
176
     1
  1
strokes_ogs.tif
176
     1
290
     0
176
     1
 40
1.0
176
     1
 40
1.0
176
     1
  0
VISUALSTYLE
  5
FDA
102
{ACAD_REACTORS
330
FCD
102
}
330
FCD
100
AcDbVisualStyle
  2
Thicken
 70
    13
177
     3
291
     1
 70
    58
 90
        2
176
     1
 90
        2
176
     1
 90
        0
176
     1
 90
        0
176
     1
 40
0.6
176
     1
 40
30.0
176
     1
 62
     7
420
 16777215
176
     1
 90
        1
176
     1
 90
        4
176
     1
 62
     7
176
     1
 62
   257
176
     1
 90
        1
176
     1
 90
        1
176
     1
 40
1.0
176
     1
 90
       12
176
     1
 62
     7
176
     1
 40
1.0
176
     1
 90
        1
176
     1
 90
        6
176
     1
 90
        2
176
     1
 62
     7
176
     1
 90
        5
176
     1
 90
        0
176
     1
 90
        0
176
     1
290
     0
176
     1
 90
        1
176
     1
 40
0.0
176
     1
 90
        0
176
     1
290
     0
176
     1
290
     1
176
     1
290
     1
176
     1
290
     0
176
     1
290
     0
176
     1
290
     0
176
     1
290
     0
176
     1
290
     0
176
     1
290
     0
176
     1
 90
       50
176
     1
 40
0.0
176
     1
 40
1.0
176
     1
 90
        0
176
     1
 62
   178
420
        0
176
     1
 90
       50
176
     1
 90
        3
176
     1
 62
     5
420
      255
176
     1
290
     0
176
     1
 90
       50
176
     1
 90
       50
176
     1
 90
       50
176
     1
290
     0
176
     1
 90
       50
176
     1
 62
   256
176
     0
 40
1.0
176
     0
 90
        2
176
     1
  1
strokes_ogs.tif
176
     1
290
     0
176
     1
 40
1.0
176
     1
 40
1.0
176
     1
  0
VISUALSTYLE
  5
FD3
102
{ACAD_REACTORS
330
FCD
102
}
330
FCD
100
AcDbVisualStyle
  2
Wireframe
 70
     5
177
     3
291
     0
 70
    58
 90
        0
176
     1
 90
        2
176
     1
 90
        0
176
     1
 90
        0
176
     1
 40
0.6
176
     1
 40
30.0
176
     1
 62
     7
420
 16777215
176
     1
 90
        1
176
     1
 90
        4
176
     1
 62
     7
176
     1
 62
   257
176
     1
 90
        1
176
     1
 90
        1
176
     1
 40
1.0
176
     1
 90
        0
176
     1
 62
   257
176
     1
 40
1.0
176
     1
 90
        1
176
     1
 90
        6
176
     1
 90
        2
176
     1
 62
     7
176
     1
 90
        3
176
     1
 90
        0
176
     1
 90
        0
176
     1
290
     0
176
     1
 90
        1
176
     1
 40
0.0
176
     1
 90
        0
176
     1
290
     0
176
     1
290
     1
176
     1
290
     1
176
     1
290
     0
176
     1
290
     0
176
     1
290
     0
176
     1
290
     0
176
     1
290
     0
176
     1
290
     0
176
     1
 90
       50
176
     1
 40
0.0
176
     1
 40
1.0
176
     1
 90
        0
176
     1
 62
   178
420
        0
176
     1
 90
       50
176
     1
 90
        3
176
     1
 62
     5
420
      255
176
     1
290
     0
176
     1
 90
       50
176
     1
 90
       50
176
     1
 90
       50
176
     1
290
     0
176
     1
 90
       50
176
     1
 62
   256
176
     0
 40
1.0
176
     0
 90
        2
176
     1
  1
strokes_ogs.tif
176
     1
290
     0
176
     1
 40
1.0
176
     1
 40
1.0
176
     1
  0
VISUALSTYLE
  5
FE3
102
{ACAD_REACTORS
330
FCD
102
}
330
FCD
100
AcDbVisualStyle
  2
X-Ray
 70
    25
177
     3
291
     0
 70
    58
 90
        2
176
     1
 90
        2
176
     1
 90
        1
176
     1
 90
        1
176
     1
 40
0.5
176
     1
 40
30.0
176
     1
 62
     7
420
 16777215
176
     1
 90
        1
176
     1
 90
        0
176
     1
 62
     7
176
     1
 62
   257
176
     1
 90
        1
176
     1
 90
        1
176
     1
 40
1.0
176
     1
 90
        8
176
     1
 62
     7
176
     1
 40
1.0
176
     1
 90
        1
176
     1
 90
        6
176
     1
 90
        2
176
     1
 62
     7
176
     1
 90
        3
176
     1
 90
        0
176
     1
 90
        0
176
     1
290
     0
176
     1
 90
       13
176
     1
 40
0.0
176
     1
 90
        0
176
     1
290
     0
176
     1
290
     1
176
     1
290
     1
176
     1
290
     0
176
     1
290
     0
176
     1
290
     0
176
     1
290
     0
176
     1
290
     0
176
     1
290
     0
176
     1
 90
       50
176
     1
 40
0.0
176
     1
 40
1.0
176
     1
 90
        0
176
     1
 62
   178
420
        0
176
     1
 90
       50
176
     1
 90
        3
176
     1
 62
     5
420
      255
176
     1
290
     0
176
     1
 90
       50
176
     1
 90
       50
176
     1
 90
       50
176
     1
290
     0
176
     1
 90
       50
176
     1
 62
   256
176
     0
 40
1.0
176
     0
 90
        2
176
     1
  1
strokes_ogs.tif
176
     1
290
     0
176
     1
 40
1.0
176
     1
 40
1.0
176
     1
  0
DICTIONARYVAR
  5
1091
102
{ACAD_REACTORS
330
1090
102
}
330
1090
100
DictionaryVariables
280
     0
  1
1:1
  0
DICTIONARYVAR
  5
1096
102
{ACAD_REACTORS
330
1090
102
}
330
1090
100
DictionaryVariables
280
     0
  1
Standard
  0
DICTIONARYVAR
  5
1095
102
{ACAD_REACTORS
330
1090
102
}
330
1090
100
DictionaryVariables
280
     0
  1
Standard
  0
XRECORD
  5
1014
102
{ACAD_REACTORS
330
1012
102
}
330
1012
100
AcDbXrecord
280
     1
1000
BuildBoticsNoToolChangerIN
  0
XRECORD
  5
1015
102
{ACAD_REACTORS
330
1012
102
}
330
1012
100
AcDbXrecord
280
     1
1000
#ffffff
  0
XRECORD
  5
1016
102
{ACAD_REACTORS
330
1012
102
}
330
1012
100
AcDbXrecord
280
     1
1000
FullColor
  0
XRECORD
  5
1017
102
{ACAD_REACTORS
330
1012
102
}
330
1012
100
AcDbXrecord
280
     1
290
     0
  0
XRECORD
  5
1018
102
{ACAD_REACTORS
330
1012
102
}
330
1012
100
AcDbXrecord
280
     1
290
     0
  0
XRECORD
  5
1019
102
{ACAD_REACTORS
330
1012
102
}
330
1012
100
AcDbXrecord
280
     1
290
     0
  0
XRECORD
  5
101A
102
{ACAD_REACTORS
330
1012
102
}
330
1012
100
AcDbXrecord
280
     1
290
     0
  0
XRECORD
  5
101B
102
{ACAD_REACTORS
330
1012
102
}
330
1012
100
AcDbXrecord
280
     1
1000
auto
  0
XRECORD
  5
101C
102
{ACAD_REACTORS
330
1012
102
}
330
1012
100
AcDbXrecord
280
     1
1000
auto
  0
XRECORD
  5
101D
102
{ACAD_REACTORS
330
1012
102
}
330
1012
100
AcDbXrecord
280
     1
1000
auto
  0
XRECORD
  5
101E
102
{ACAD_REACTORS
330
1012
102
}
330
1012
100
AcDbXrecord
280
     1
1000
auto
  0
XRECORD
  5
101F
102
{ACAD_REACTORS
330
1012
102
}
330
1012
100
AcDbXrecord
280
     1
1000
auto
  0
XRECORD
  5
1020
102
{ACAD_REACTORS
330
1012
102
}
330
1012
100
AcDbXrecord
280
     1
1000
auto
  0
XRECORD
  5
1021
102
{ACAD_REACTORS
330
1012
102
}
330
1012
100
AcDbXrecord
280
     1
1000
auto
  0
XRECORD
  5
1022
102
{ACAD_REACTORS
330
1012
102
}
330
1012
100
AcDbXrecord
280
     1
1000
auto
  0
XRECORD
  5
1023
102
{ACAD_REACTORS
330
1012
102
}
330
1012
100
AcDbXrecord
280
     1
290
     0
  0
XRECORD
  5
1024
102
{ACAD_REACTORS
330
1012
102
}
330
1012
100
AcDbXrecord
280
     1
290
     0
  0
XRECORD
  5
1025
102
{ACAD_REACTORS
330
1012
102
}
330
1012
100
AcDbXrecord
280
     1
290
     0
  0
XRECORD
  5
1026
102
{ACAD_REACTORS
330
1012
102
}
330
1012
100
AcDbXrecord
280
     1
290
     0
  0
XRECORD
  5
1027
102
{ACAD_REACTORS
330
1012
102
}
330
1012
100
AcDbXrecord
280
     1
 90
    65537
  0
XRECORD
  5
1028
102
{ACAD_REACTORS
330
1012
102
}
330
1012
100
AcDbXrecord
280
     1
 90
    65537
  0
XRECORD
  5
1029
102
{ACAD_REACTORS
330
1012
102
}
330
1012
100
AcDbXrecord
280
     1
 90
    65537
  0
XRECORD
  5
102A
102
{ACAD_REACTORS
330
1012
102
}
330
1012
100
AcDbXrecord
280
     1
 90
    65537
  0
XRECORD
  5
102B
102
{ACAD_REACTORS
330
1012
102
}
330
1012
100
AcDbXrecord
280
     1
1000
auto
  0
XRECORD
  5
102C
102
{ACAD_REACTORS
330
1012
102
}
330
1012
100
AcDbXrecord
280
     1
1000
auto
  0
XRECORD
  5
102D
102
{ACAD_REACTORS
330
1012
102
}
330
1012
100
AcDbXrecord
280
     1
1000
auto
  0
XRECORD
  5
102E
102
{ACAD_REACTORS
330
1012
102
}
330
1012
100
AcDbXrecord
280
     1
1000
auto
  0
XRECORD
  5
102F
102
{ACAD_REACTORS
330
1012
102
}
330
1012
100
AcDbXrecord
280
     1
1000
auto
  0
XRECORD
  5
1030
102
{ACAD_REACTORS
330
1012
102
}
330
1012
100
AcDbXrecord
280
     1
1000
auto
  0
XRECORD
  5
1031
102
{ACAD_REACTORS
330
1012
102
}
330
1012
100
AcDbXrecord
280
     1
1000
auto
  0
XRECORD
  5
1032
102
{ACAD_REACTORS
330
1012
102
}
330
1012
100
AcDbXrecord
280
     1
1000
auto
  0
XRECORD
  5
1033
102
{ACAD_REACTORS
330
1012
102
}
330
1012
100
AcDbXrecord
280
     1
 90
        1
  0
XRECORD
  5
1034
102
{ACAD_REACTORS
330
1012
102
}
330
1012
100
AcDbXrecord
280
     1
 40
0.5
  0
XRECORD
  5
1035
102
{ACAD_REACTORS
330
1012
102
}
330
1012
100
AcDbXrecord
280
     1
 40
0.5
  0
XRECORD
  5
1036
102
{ACAD_REACTORS
330
1012
102
}
330
1012
100
AcDbXrecord
280
     1
 40
0.5
  0
XRECORD
  5
1037
102
{ACAD_REACTORS
330
1012
102
}
330
1012
100
AcDbXrecord
280
     1
 40
0.5
  0
XRECORD
  5
1038
102
{ACAD_REACTORS
330
1012
102
}
330
1012
100
AcDbXrecord
280
     1
290
     0
  0
XRECORD
  5
1039
102
{ACAD_REACTORS
330
1012
102
}
330
1012
100
AcDbXrecord
280
     1
 90
        1
  0
XRECORD
  5
103A
102
{ACAD_REACTORS
330
1012
102
}
330
1012
100
AcDbXrecord
280
     1
 40
0.0
  0
XRECORD
  5
103B
102
{ACAD_REACTORS
330
1012
102
}
330
1012
100
AcDbXrecord
280
     1
 40
0.0
  0
XRECORD
  5
103C
102
{ACAD_REACTORS
330
1012
102
}
330
1012
100
AcDbXrecord
280
     1
1000
Portrait
  0
XRECORD
  5
103D
102
{ACAD_REACTORS
330
1012
102
}
330
1012
100
AcDbXrecord
280
     1
 40
11.0
  0
XRECORD
  5
103E
102
{ACAD_REACTORS
330
1012
102
}
330
1012
100
AcDbXrecord
280
     1
 40
8.5
  0
XRECORD
  5
103F
102
{ACAD_REACTORS
330
1012
102
}
330
1012
100
AcDbXrecord
280
     1
1000
1:1
  0
XRECORD
  5
1040
102
{ACAD_REACTORS
330
1012
102
}
330
1012
100
AcDbXrecord
280
     1
290
     1
  0
XRECORD
  5
1041
102
{ACAD_REACTORS
330
1012
102
}
330
1012
100
AcDbXrecord
280
     1
290
     0
  0
XRECORD
  5
1042
102
{ACAD_REACTORS
330
1012
102
}
330
1012
100
AcDbXrecord
280
     1
1000
Inside
  0
XRECORD
  5
1043
102
{ACAD_REACTORS
330
1012
102
}
330
1012
100
AcDbXrecord
280
     1
1000
Arial,10,-1,5,50,0,0,0,0,0
  0
XRECORD
  5
1044
102
{ACAD_REACTORS
330
1012
102
}
330
1012
100
AcDbXrecord
280
     1
1000
TopLeft
  0
XRECORD
  5
1045
102
{ACAD_REACTORS
330
1012
102
}
330
1012
100
AcDbXrecord
280
     1
1000
3.25.1
  0
XRECORD
  5
1046
102
{ACAD_REACTORS
330
1012
102
}
330
1012
100
AcDbXrecord
280
     1
 90
        1
  0
XRECORD
  5
1047
102
{ACAD_REACTORS
330
1012
102
}
330
1012
100
AcDbXrecord
280
     1
  0
XRECORD
  5
1048
102
{ACAD_REACTORS
330
1012
102
}
330
1012
100
AcDbXrecord
280
     1
 40
270.8863636363636
  0
XRECORD
  5
1049
102
{ACAD_REACTORS
330
1012
102
}
330
1012
100
AcDbXrecord
280
     1
 40
419.1818181818182
  0
DICTIONARY
  5
1092
330
100D
100
AcDbDictionary
280
     1
281
     1
  3
ACAD_ROUNDTRIP_2008_TABLESTYLE_CELLSTYLEMAP
360
1093
  0
CELLSTYLEMAP
  5
1093
102
{ACAD_REACTORS
330
1092
102
}
330
1092
100
AcDbCellStyleMap
 90
        3
300
CELLSTYLE
  1
TABLEFORMAT_BEGIN
 90
        5
170
     1
 91
        0
 92
    32768
 62
   257
 93
        1
300
CONTENTFORMAT
  1
CONTENTFORMAT_BEGIN
 90
        0
 91
        0
 92
        4
 93
        0
300

 40
0.0
140
1.0
 94
        5
 62
     0
340
FB5
144
0.25
309
CONTENTFORMAT_END
171
     1
301
MARGIN
  1
CELLMARGIN_BEGIN
 40
0.06
 40
0.06
 40
0.06
 40
0.06
 40
0.06
 40
0.06
309
CELLMARGIN_END
 94
        6
 95
        1
302
GRIDFORMAT
  1
GRIDFORMAT_BEGIN
 90
        0
 91
        1
 62
     0
 92
       -2
340
FB7
 93
        0
 40
0.045
309
GRIDFORMAT_END
 95
        2
302
GRIDFORMAT
  1
GRIDFORMAT_BEGIN
 90
        0
 91
        1
 62
     0
 92
       -2
340
FB7
 93
        0
 40
0.045
309
GRIDFORMAT_END
 95
        4
302
GRIDFORMAT
  1
GRIDFORMAT_BEGIN
 90
        0
 91
        1
 62
     0
 92
       -2
340
FB7
 93
        0
 40
0.045
309
GRIDFORMAT_END
 95
        8
302
GRIDFORMAT
  1
GRIDFORMAT_BEGIN
 90
        0
 91
        1
 62
     0
 92
       -2
340
FB7
 93
        0
 40
0.045
309
GRIDFORMAT_END
 95
       16
302
GRIDFORMAT
  1
GRIDFORMAT_BEGIN
 90
        0
 91
        1
 62
     0
 92
       -2
340
FB7
 93
        0
 40
0.045
309
GRIDFORMAT_END
 95
       32
302
GRIDFORMAT
  1
GRIDFORMAT_BEGIN
 90
        0
 91
        1
 62
     0
 92
       -2
340
FB7
 93
        0
 40
0.045
309
GRIDFORMAT_END
309
TABLEFORMAT_END
  1
CELLSTYLE_BEGIN
 90
        1
 91
        1
300
_TITLE
309
CELLSTYLE_END
300
CELLSTYLE
  1
TABLEFORMAT_BEGIN
 90
        5
170
     1
 91
        0
 92
        0
 62
   257
 93
        1
300
CONTENTFORMAT
  1
CONTENTFORMAT_BEGIN
 90
        0
 91
        0
 92
        4
 93
        0
300

 40
0.0
140
1.0
 94
        5
 62
     0
340
FB5
144
0.18
309
CONTENTFORMAT_END
171
     1
301
MARGIN
  1
CELLMARGIN_BEGIN
 40
0.06
 40
0.06
 40
0.06
 40
0.06
 40
0.06
 40
0.06
309
CELLMARGIN_END
 94
        6
 95
        1
302
GRIDFORMAT
  1
GRIDFORMAT_BEGIN
 90
        0
 91
        1
 62
     0
 92
       -2
340
FB7
 93
        0
 40
0.045
309
GRIDFORMAT_END
 95
        2
302
GRIDFORMAT
  1
GRIDFORMAT_BEGIN
 90
        0
 91
        1
 62
     0
 92
       -2
340
FB7
 93
        0
 40
0.045
309
GRIDFORMAT_END
 95
        4
302
GRIDFORMAT
  1
GRIDFORMAT_BEGIN
 90
        0
 91
        1
 62
     0
 92
       -2
340
FB7
 93
        0
 40
0.045
309
GRIDFORMAT_END
 95
        8
302
GRIDFORMAT
  1
GRIDFORMAT_BEGIN
 90
        0
 91
        1
 62
     0
 92
       -2
340
FB7
 93
        0
 40
0.045
309
GRIDFORMAT_END
 95
       16
302
GRIDFORMAT
  1
GRIDFORMAT_BEGIN
 90
        0
 91
        1
 62
     0
 92
       -2
340
FB7
 93
        0
 40
0.045
309
GRIDFORMAT_END
 95
       32
302
GRIDFORMAT
  1
GRIDFORMAT_BEGIN
 90
        0
 91
        1
 62
     0
 92
       -2
340
FB7
 93
        0
 40
0.045
309
GRIDFORMAT_END
309
TABLEFORMAT_END
  1
CELLSTYLE_BEGIN
 90
        2
 91
        1
300
_HEADER
309
CELLSTYLE_END
300
CELLSTYLE
  1
TABLEFORMAT_BEGIN
 90
        5
170
     1
 91
        0
 92
        0
 62
   257
 93
        1
300
CONTENTFORMAT
  1
CONTENTFORMAT_BEGIN
 90
        0
 91
        0
 92
        4
 93
        0
300

 40
0.0
140
1.0
 94
        2
 62
     0
340
FB5
144
0.18
309
CONTENTFORMAT_END
171
     1
301
MARGIN
  1
CELLMARGIN_BEGIN
 40
0.06
 40
0.06
 40
0.06
 40
0.06
 40
0.06
 40
0.06
309
CELLMARGIN_END
 94
        6
 95
        1
302
GRIDFORMAT
  1
GRIDFORMAT_BEGIN
 90
        0
 91
        1
 62
     0
 92
       -2
340
FB7
 93
        0
 40
0.045
309
GRIDFORMAT_END
 95
        2
302
GRIDFORMAT
  1
GRIDFORMAT_BEGIN
 90
        0
 91
        1
 62
     0
 92
       -2
340
FB7
 93
        0
 40
0.045
309
GRIDFORMAT_END
 95
        4
302
GRIDFORMAT
  1
GRIDFORMAT_BEGIN
 90
        0
 91
        1
 62
     0
 92
       -2
340
FB7
 93
        0
 40
0.045
309
GRIDFORMAT_END
 95
        8
302
GRIDFORMAT
  1
GRIDFORMAT_BEGIN
 90
        0
 91
        1
 62
     0
 92
       -2
340
FB7
 93
        0
 40
0.045
309
GRIDFORMAT_END
 95
       16
302
GRIDFORMAT
  1
GRIDFORMAT_BEGIN
 90
        0
 91
        1
 62
     0
 92
       -2
340
FB7
 93
        0
 40
0.045
309
GRIDFORMAT_END
 95
       32
302
GRIDFORMAT
  1
GRIDFORMAT_BEGIN
 90
        0
 91
        1
 62
     0
 92
       -2
340
FB7
 93
        0
 40
0.045
309
GRIDFORMAT_END
309
TABLEFORMAT_END
  1
CELLSTYLE_BEGIN
 90
        3
 91
        2
300
_DATA
309
CELLSTYLE_END
  0
ENDSEC
  0
EOF
